<svg width="14" height="11" viewBox="0 0 14 11" fill="none" xmlns="http://www.w3.org/2000/svg">
<path d="M13.9154 5.11979C12.5973 2.36432 9.98789 0.5 7 0.5C4.01211 0.5 1.40193 2.36562 0.0845702 5.12005C0.0289692 5.23789 0 5.36809 0 5.50013C0 5.63217 0.0289692 5.76237 0.0845702 5.88021C1.40266 8.63568 4.01211 10.5 7 10.5C9.98789 10.5 12.5981 8.63437 13.9154 5.87995C13.971 5.76211 14 5.63191 14 5.49987C14 5.36783 13.971 5.23763 13.9154 5.11979ZM7 9.25C6.30776 9.25 5.63107 9.03007 5.0555 8.61801C4.47993 8.20596 4.03132 7.62029 3.76642 6.93506C3.50151 6.24984 3.4322 5.49584 3.56725 4.76841C3.70229 4.04098 4.03564 3.3728 4.52512 2.84835C5.01461 2.3239 5.63825 1.96675 6.31718 1.82206C6.99612 1.67736 7.69985 1.75162 8.33939 2.03545C8.97894 2.31928 9.52556 2.79993 9.91015 3.41661C10.2947 4.0333 10.5 4.75832 10.5 5.5C10.5002 5.99252 10.4099 6.48027 10.234 6.93535C10.0582 7.39043 9.80043 7.80392 9.47538 8.15218C9.15033 8.50045 8.7644 8.77667 8.33966 8.96504C7.91492 9.15341 7.45969 9.25024 7 9.25ZM7 3C6.79173 3.00312 6.58481 3.03632 6.38483 3.0987C6.54967 3.33872 6.62878 3.63409 6.6078 3.93124C6.58681 4.22839 6.46714 4.50764 6.27047 4.71836C6.0738 4.92908 5.81316 5.0573 5.53582 5.07978C5.25848 5.10226 4.9828 5.0175 4.75878 4.84089C4.63122 5.34442 4.65424 5.87814 4.82462 6.36693C4.995 6.85571 5.30414 7.27494 5.70855 7.56561C6.11295 7.85629 6.59225 8.00377 7.07899 7.98729C7.56572 7.97082 8.03537 7.79122 8.42185 7.47378C8.80832 7.15634 9.09216 6.71703 9.2334 6.2177C9.37464 5.71838 9.36618 5.18416 9.20921 4.69025C9.05224 4.19635 8.75465 3.76761 8.35835 3.4644C7.96205 3.16119 7.48697 2.99877 7 3Z" fill="white"/>
</svg>
