<svg width="24" height="25" viewBox="0 0 24 25" fill="none" xmlns="http://www.w3.org/2000/svg">
<g id="FontAwesome - Icons" clip-path="url(#clip0_1738_12306)">
<path id="Vector" d="M21 6.21598V6.5H15V0.5H15.284C15.5824 0.500002 15.8685 0.61852 16.0795 0.829484L20.6705 5.42047C20.8815 5.63145 21 5.91761 21 6.21598ZM14.625 8C14.0063 8 13.5 7.49375 13.5 6.875V0.5H4.125C3.50367 0.5 3 1.00367 3 1.625V23.375C3 23.9963 3.50367 24.5 4.125 24.5H19.875C20.4963 24.5 21 23.9963 21 23.375V8H14.625ZM8.27555 8.75C9.5182 8.75 10.5255 9.75734 10.5255 11C10.5255 12.2427 9.5182 13.25 8.27555 13.25C7.03289 13.25 6.02555 12.2427 6.02555 11C6.02555 9.75734 7.03294 8.75 8.27555 8.75ZM18.0255 20H6.02555L6.04828 17.7273L7.90055 15.875C8.1202 15.6553 8.45362 15.6781 8.67328 15.8977L10.5255 17.75L15.3778 12.8977C15.5975 12.6781 15.9536 12.6781 16.1733 12.8977L18.0255 14.75V20Z" fill="#CECFD1"/>
</g>
<defs>
<clipPath id="clip0_1738_12306">
<rect width="24" height="24" fill="white" transform="translate(0 0.5)"/>
</clipPath>
</defs>
</svg>
