<svg width="75" height="71" viewBox="0 0 75 71" fill="none" xmlns="http://www.w3.org/2000/svg">
<path fill-rule="evenodd" clip-rule="evenodd" d="M65.7792 4.70009C65.6505 1.91769 66.6389 0.296129 68.5539 0.00527766C68.7958 -0.030757 69.0249 0.121102 69.0815 0.357902C70.7443 7.07837 74.4945 14.952 74.7802 17.8322C76.1006 33.6643 71.6477 48.073 56.4205 55.787C50.5546 58.2065 45.0876 62.0776 41.4918 67.8561C40.4571 69.5162 38.6142 70.3347 36.6889 69.9821C34.7636 69.632 33.3274 68.2164 32.9439 66.2988C32.3905 63.5216 32.3313 60.3531 32.8332 56.5077C34.151 49.4217 41.2808 42.6009 52.9689 36.6809C59.0793 32.2512 61.0072 25.0211 65.2644 19.2555C67.1151 17.0548 69.707 17.9814 69.2025 20.8719C68.1549 26.29 66.1035 33.1521 61.8772 37.8675C66.276 35.2112 69.6967 27.16 70.5873 19.9067C70.7726 17.9197 69.5963 16.2415 67.617 16.365C67.3647 12.9006 66.2348 8.90842 65.7792 4.70009Z" fill="#3D436B"/>
<path fill-rule="evenodd" clip-rule="evenodd" d="M60.7405 7.29219C61.0365 4.53296 61.8061 2.99376 63.6619 2.97317C63.9115 2.9706 64.12 3.16107 64.138 3.41073C64.3517 6.3244 65.9243 12.3087 66.4134 16.3935C65.3555 17.1194 64.4521 17.9482 64.1792 18.2725L64.1355 18.324L64.0943 18.3806C63.3787 19.3484 62.7224 20.3805 62.0918 21.4435C62.2848 17.9379 60.5552 11.4336 60.7405 7.29219Z" fill="#3D436B"/>
<path fill-rule="evenodd" clip-rule="evenodd" d="M56.0025 11.4103C56.2985 8.65369 57.0681 7.1145 58.9213 7.09133C59.1736 7.08876 59.3821 7.2818 59.3975 7.53404C59.5802 10.458 60.8157 17.7808 61.2867 22.8385C60.0925 24.962 58.9574 27.1601 57.6704 29.2063C57.5803 24.9568 55.8275 15.2738 56.0025 11.4103Z" fill="#3D436B"/>
<path fill-rule="evenodd" clip-rule="evenodd" d="M51.5219 19.6003C51.8179 16.8436 52.5875 15.3044 54.4408 15.2813C54.693 15.2787 54.9015 15.4717 54.9169 15.724C55.0945 18.563 56.2631 25.546 56.7624 30.5806C55.6762 32.1404 54.4613 33.5715 53.0097 34.7632C52.5515 29.9706 51.3778 22.7945 51.5219 19.6003Z" fill="#3D436B"/>
<path fill-rule="evenodd" clip-rule="evenodd" d="M9.22048 4.70009C9.34917 1.91769 8.36079 0.296129 6.44581 0.00527766C6.20386 -0.030757 5.97478 0.121102 5.91815 0.357902C4.25541 7.07837 0.505227 14.952 0.219523 17.8322C-1.10089 33.6643 3.35197 48.073 18.5792 55.787C24.4451 58.2065 29.9121 62.0776 33.5079 67.8561C34.5426 69.5162 36.3855 70.3347 38.3108 69.9821C40.2361 69.632 41.6723 68.2164 42.0558 66.2988C42.6092 63.5216 42.671 60.3531 42.1665 56.5077C40.8487 49.4217 33.7189 42.6009 22.0308 36.6809C15.9204 32.2512 13.9925 25.0211 9.73526 19.2555C7.88462 17.0548 5.2927 17.9814 5.79718 20.8719C6.84476 26.29 8.89617 33.1521 13.1225 37.8675C8.72371 35.2112 5.30299 27.16 4.41242 19.9067C4.2271 17.9197 5.40337 16.2415 7.38271 16.365C7.63753 12.9006 8.7649 8.90842 9.22048 4.70009Z" fill="#293066"/>
<path fill-rule="evenodd" clip-rule="evenodd" d="M14.2608 7.29219C13.9648 4.53296 13.1952 2.99376 11.3394 2.97317C11.0897 2.9706 10.8812 3.16107 10.8632 3.41073C10.6496 6.3244 9.07693 12.3087 8.58789 16.3935C9.64577 17.1194 10.5492 17.9482 10.822 18.2725L10.8658 18.324L10.907 18.3806C11.6225 19.3484 12.2789 20.3805 12.9095 21.4435C12.719 17.9379 14.4461 11.4336 14.2608 7.29219Z" fill="#293066"/>
<path fill-rule="evenodd" clip-rule="evenodd" d="M18.9991 11.4103C18.7031 8.65369 17.9335 7.1145 16.0803 7.09133C15.828 7.08876 15.6195 7.2818 15.6041 7.53404C15.4213 10.458 14.1859 17.7808 13.7148 22.8385C14.9091 24.962 16.0442 27.1601 17.3312 29.2063C17.4213 24.9568 19.1715 15.2738 18.9991 11.4103Z" fill="#293066"/>
<path fill-rule="evenodd" clip-rule="evenodd" d="M23.4807 19.6003C23.1847 16.8436 22.4151 15.3044 20.5619 15.2813C20.3097 15.2787 20.1012 15.4717 20.0857 15.724C19.9081 18.563 18.7396 25.546 18.2402 30.5806C19.3264 32.1404 20.5413 33.5715 21.993 34.7632C22.4511 29.9706 23.6223 22.7945 23.4807 19.6003Z" fill="#293066"/>
</svg>
