<?xml version="1.0" encoding="UTF-8"?>
<!DOCTYPE svg PUBLIC "-//W3C//DTD SVG 1.1//EN" "http://www.w3.org/Graphics/SVG/1.1/DTD/svg11.dtd">
<svg xmlns="http://www.w3.org/2000/svg" version="1.1" width="144px" height="158px" style="shape-rendering:geometricPrecision; text-rendering:geometricPrecision; image-rendering:optimizeQuality; fill-rule:evenodd; clip-rule:evenodd" xmlns:xlink="http://www.w3.org/1999/xlink">
<g><path style="opacity:1" fill="#fdfefe" d="M -0.5,-0.5 C 47.5,-0.5 95.5,-0.5 143.5,-0.5C 143.5,52.1667 143.5,104.833 143.5,157.5C 95.5,157.5 47.5,157.5 -0.5,157.5C -0.5,104.833 -0.5,52.1667 -0.5,-0.5 Z"/></g>
<g><path style="opacity:1" fill="#427680" d="M 26.5,20.5 C 28.9328,20.2729 30.5994,21.2729 31.5,23.5C 32.1115,25.913 32.4448,28.413 32.5,31C 31.3092,38.7882 30.4758,46.6216 30,54.5C 27.6277,50.9761 25.1277,47.6428 22.5,44.5C 24.4807,36.5982 25.814,28.5982 26.5,20.5 Z"/></g>
<g><path style="opacity:1" fill="#edfcfc" d="M 14.5,26.5 C 6.21806,46.0847 5.21806,66.0847 11.5,86.5C 8.81633,85.4957 7.31633,83.4957 7,80.5C 4.31689,63.1897 5.31689,46.1897 10,29.5C 10.9184,27.6243 12.4184,26.6243 14.5,26.5 Z"/></g>
<g><path style="opacity:1" fill="#dcf3f6" d="M 23.5,18.5 C 24.2223,19.5511 25.2223,20.2178 26.5,20.5C 25.814,28.5982 24.4807,36.5982 22.5,44.5C 25.1277,47.6428 27.6277,50.9761 30,54.5C 30.4758,46.6216 31.3092,38.7882 32.5,31C 32.4448,28.413 32.1115,25.913 31.5,23.5C 33.0443,23.7031 34.3777,24.3698 35.5,25.5C 37.7771,25.0145 39.9437,25.6812 42,27.5C 42.2233,31.7868 42.89,36.1201 44,40.5C 48.0464,41.5548 49.5464,44.2214 48.5,48.5C 49.1174,48.6107 49.6174,48.944 50,49.5C 50.2382,53.2222 50.7382,56.8889 51.5,60.5C 48.9165,63.8893 48.2498,67.556 49.5,71.5C 48.8333,74.8333 48.1667,78.1667 47.5,81.5C 49.9971,83.8259 52.6638,85.9926 55.5,88C 54.944,88.3826 54.6107,88.8826 54.5,89.5C 48.3528,86.863 43.1861,82.863 39,77.5C 34.2132,68.0903 29.0466,58.9237 23.5,50C 21.8333,49.3333 20.1667,49.3333 18.5,50C 18.506,61.5373 21.506,72.3706 27.5,82.5C 26.6446,83.293 25.8113,82.9597 25,81.5C 18.628,71.5062 15.4614,60.5062 15.5,48.5C 17.6339,47.0979 19.3006,45.2645 20.5,43C 22.3183,34.9255 23.3183,26.7588 23.5,18.5 Z"/></g>
<g><path style="opacity:1" fill="#3f767e" d="M 34.5,28.5 C 37.2385,27.9648 39.0718,28.9648 40,31.5C 41.0898,44.0913 40.0898,56.4246 37,68.5C 35.1667,64.8333 33.3333,61.1667 31.5,57.5C 33.1048,47.9131 34.1048,38.2465 34.5,28.5 Z"/></g>
<g><path style="opacity:1" fill="#e4f5f5" d="M 127.5,14.5 C 123.545,16.0642 121.878,19.0642 122.5,23.5C 123.583,31.1641 124.583,38.8307 125.5,46.5C 127.39,46.2965 128.89,46.9632 130,48.5C 130.135,63.2289 125.468,76.2289 116,87.5C 120.066,80.3465 123.4,72.6798 126,64.5C 127.05,59.5518 127.55,54.5518 127.5,49.5C 124.956,49.1043 122.789,49.771 121,51.5C 116.254,60.6611 111.254,69.6611 106,78.5C 98.5793,84.7883 90.746,90.4549 82.5,95.5C 82.5858,94.5041 82.2524,93.6708 81.5,93C 83.7127,90.7261 86.3793,89.2261 89.5,88.5C 91.5294,85.1515 94.5294,83.4849 98.5,83.5C 97.9713,79.0523 96.9713,74.7189 95.5,70.5C 96.0399,65.2321 96.0399,59.8988 95.5,54.5C 95.6667,51.1667 95.8333,47.8333 96,44.5C 96.9862,43.8288 98.1529,43.8288 99.5,44.5C 102.951,40.2159 104.451,35.2159 104,29.5C 105.716,26.5374 107.882,24.8708 110.5,24.5C 112.494,20.1759 115.827,18.5092 120.5,19.5C 120.227,17.549 120.893,16.049 122.5,15C 122.167,14.6667 121.833,14.3333 121.5,14C 122.76,12.887 123.927,12.7203 125,13.5C 125.308,12.6919 125.808,12.0253 126.5,11.5C 126.517,12.3937 126.851,13.3937 127.5,14.5 Z"/></g>
<g><path style="opacity:1" fill="#809ea2" d="M 115.5,20.5 C 116.833,20.5 118.167,20.5 119.5,20.5C 120.994,29.1276 121.827,37.7942 122,46.5C 119.513,48.8089 117.513,51.4756 116,54.5C 115.057,46.5111 114.223,38.5111 113.5,30.5C 113.401,26.9706 114.067,23.6373 115.5,20.5 Z"/></g>
<g><path style="opacity:1" fill="#81a0a3" d="M 107.5,28.5 C 108.822,28.33 109.989,28.6634 111,29.5C 111.977,38.8775 113.144,48.2108 114.5,57.5C 112.588,61.6597 110.421,65.6597 108,69.5C 106.888,59.3291 105.722,49.1625 104.5,39C 104.597,35.2124 105.597,31.7124 107.5,28.5 Z"/></g>
<g><path style="opacity:1" fill="#44757e" d="M 48.5,48.5 C 48.5807,59.2794 47.5807,69.946 45.5,80.5C 42.9346,78.0956 40.9346,75.2622 39.5,72C 40.5404,62.8432 41.5404,53.6765 42.5,44.5C 45.9114,43.933 47.9114,45.2663 48.5,48.5 Z"/></g>
<g><path style="opacity:1" fill="#819fa2" d="M 99.5,44.5 C 100.833,44.5 102.167,44.5 103.5,44.5C 104.031,53.5488 105.031,62.5488 106.5,71.5C 105.327,75.166 103.16,78.166 100,80.5C 98.7961,72.3692 97.9628,64.2026 97.5,56C 97.2896,51.9427 97.9563,48.1094 99.5,44.5 Z"/></g>
<g><path style="opacity:1" fill="#377583" d="M 15.5,48.5 C 15.4614,60.5062 18.628,71.5062 25,81.5C 25.8113,82.9597 26.6446,83.293 27.5,82.5C 21.506,72.3706 18.506,61.5373 18.5,50C 20.1667,49.3333 21.8333,49.3333 23.5,50C 29.0466,58.9237 34.2132,68.0903 39,77.5C 43.1861,82.863 48.3528,86.863 54.5,89.5C 61.134,93.8061 67.134,98.8061 72.5,104.5C 75.7275,107.935 78.2275,111.935 80,116.5C 81.3561,124.095 81.8561,131.762 81.5,139.5C 81.416,142.682 80.0827,145.015 77.5,146.5C 74.7508,146.726 72.0841,146.393 69.5,145.5C 64.1512,138.657 59.1512,131.49 54.5,124C 52.7818,123.654 51.1151,123.154 49.5,122.5C 48.914,122.709 48.414,123.043 48,123.5C 46.3247,122.405 45.158,120.905 44.5,119C 41.1656,116.925 37.4989,116.091 33.5,116.5C 31.7523,112.046 28.7523,108.713 24.5,106.5C 23.4164,105.335 22.5831,104.002 22,102.5C 21.7922,100.141 21.6256,97.9743 21.5,96C 22.4491,95.3828 23.2825,95.5494 24,96.5C 24.3333,94.1667 24.6667,91.8333 25,89.5C 25.9246,88.9535 26.7579,88.2868 27.5,87.5C 26.2402,86.6184 25.0736,85.6184 24,84.5C 23.6258,85.4162 23.1258,86.2496 22.5,87C 19.805,87.2543 17.305,87.421 15,87.5C 13.485,84.8233 12.985,82.1566 13.5,79.5C 10.7114,69.6825 9.54475,59.6825 10,49.5C 11.2989,48.91 12.1322,47.91 12.5,46.5C 13.1821,42.8621 13.6821,39.1954 14,35.5C 14.3333,36.5 14.6667,37.5 15,38.5C 15.2022,36.7444 15.7022,35.0777 16.5,33.5C 17.9458,34.1709 18.6125,35.3376 18.5,37C 16.7569,40.6488 15.7569,44.4821 15.5,48.5 Z"/></g>
<g><path style="opacity:1" fill="#3f757f" d="M 23.5,18.5 C 23.3183,26.7588 22.3183,34.9255 20.5,43C 19.3006,45.2645 17.6339,47.0979 15.5,48.5C 15.7569,44.4821 16.7569,40.6488 18.5,37C 18.6125,35.3376 17.9458,34.1709 16.5,33.5C 15.7022,35.0777 15.2022,36.7444 15,38.5C 14.6667,37.5 14.3333,36.5 14,35.5C 13.6821,39.1954 13.1821,42.8621 12.5,46.5C 12.1322,47.91 11.2989,48.91 10,49.5C 9.54475,59.6825 10.7114,69.6825 13.5,79.5C 12.985,82.1566 13.485,84.8233 15,87.5C 17.305,87.421 19.805,87.2543 22.5,87C 23.1258,86.2496 23.6258,85.4162 24,84.5C 25.0736,85.6184 26.2402,86.6184 27.5,87.5C 26.7579,88.2868 25.9246,88.9535 25,89.5C 24.6667,91.8333 24.3333,94.1667 24,96.5C 23.2825,95.5494 22.4491,95.3828 21.5,96C 21.6256,97.9743 21.7922,100.141 22,102.5C 22.5831,104.002 23.4164,105.335 24.5,106.5C 28.7523,108.713 31.7523,112.046 33.5,116.5C 22.7725,109.067 15.4391,99.0674 11.5,86.5C 5.21806,66.0847 6.21806,46.0847 14.5,26.5C 16.1221,22.6781 17.1221,18.6781 17.5,14.5C 20.2921,14.6225 22.2921,15.9558 23.5,18.5 Z"/></g>
<g><path style="opacity:1" fill="#7b9ea3" d="M 127.5,14.5 C 129.413,22.5139 132.079,30.1805 135.5,37.5C 137.534,49.7219 138.034,62.0553 137,74.5C 134.41,94.0711 124.91,109.238 108.5,120C 102.64,122.424 97.3068,125.591 92.5,129.5C 88.8412,132.789 85.1745,136.122 81.5,139.5C 81.8561,131.762 81.3561,124.095 80,116.5C 78.2275,111.935 75.7275,107.935 72.5,104.5C 75.859,101.471 79.1924,98.4715 82.5,95.5C 90.746,90.4549 98.5793,84.7883 106,78.5C 111.254,69.6611 116.254,60.6611 121,51.5C 122.789,49.771 124.956,49.1043 127.5,49.5C 127.55,54.5518 127.05,59.5518 126,64.5C 123.4,72.6798 120.066,80.3465 116,87.5C 125.468,76.2289 130.135,63.2289 130,48.5C 128.89,46.9632 127.39,46.2965 125.5,46.5C 124.583,38.8307 123.583,31.1641 122.5,23.5C 121.878,19.0642 123.545,16.0642 127.5,14.5 Z"/></g>
<g><path style="opacity:1" fill="#ecf7f7" d="M 135.5,37.5 C 137.694,39.2214 138.861,41.5547 139,44.5C 139.333,43.8333 139.667,43.1667 140,42.5C 139.174,48.489 139.341,54.489 140.5,60.5C 139.609,67.5139 138.609,74.5139 137.5,81.5C 137.673,83.0378 138.006,84.5378 138.5,86C 136.059,89.6978 134.059,93.6978 132.5,98C 134.767,99.0812 134.934,100.581 133,102.5C 130.333,103.228 127.833,104.894 125.5,107.5C 121.88,110.991 118.547,114.824 115.5,119C 110.405,121.766 105.405,124.766 100.5,128C 97.7934,128.395 95.1267,128.895 92.5,129.5C 97.3068,125.591 102.64,122.424 108.5,120C 124.91,109.238 134.41,94.0711 137,74.5C 138.034,62.0553 137.534,49.7219 135.5,37.5 Z"/></g>
<g><path style="opacity:1" fill="#47767d" d="M 33.5,116.5 C 37.4989,116.091 41.1656,116.925 44.5,119C 45.158,120.905 46.3247,122.405 48,123.5C 48.414,123.043 48.914,122.709 49.5,122.5C 51.1151,123.154 52.7818,123.654 54.5,124C 59.1512,131.49 64.1512,138.657 69.5,145.5C 72.0841,146.393 74.7508,146.726 77.5,146.5C 75.2046,148.385 72.538,148.885 69.5,148C 66.4686,145.441 64.3019,142.274 63,138.5C 59.8333,135.333 56.6667,132.167 53.5,129C 46.601,125.059 39.9343,120.892 33.5,116.5 Z"/></g>
</svg>
