<svg width="16" height="16" viewBox="0 0 16 16" fill="none" xmlns="http://www.w3.org/2000/svg">
<g id="FontAwesome - Icons">
<path id="Vector" d="M8.71347 13.9096L8.01972 14.6033C7.72597 14.8971 7.25097 14.8971 6.96035 14.6033L0.885351 8.53145C0.591602 8.2377 0.591602 7.7627 0.885351 7.47207L6.96035 1.39707C7.2541 1.10332 7.7291 1.10332 8.01972 1.39707L8.71347 2.09082C9.01035 2.3877 9.0041 2.87207 8.70097 3.1627L4.93535 6.7502H13.9166C14.3322 6.7502 14.6666 7.08457 14.6666 7.5002V8.5002C14.6666 8.91582 14.3322 9.2502 13.9166 9.2502H4.93535L8.70097 12.8377C9.00722 13.1283 9.01347 13.6127 8.71347 13.9096Z" fill="black"/>
</g>
</svg>
