<svg width="17" height="17" viewBox="0 0 17 17" fill="none" xmlns="http://www.w3.org/2000/svg">
<path d="M8.5 0C3.81313 0 0 3.81313 0 8.5C0 13.1869 3.81313 17 8.5 17C13.1869 17 17 13.1869 17 8.5C17 3.81313 13.1869 0 8.5 0ZM8.2875 2.975C8.63983 2.975 8.925 3.26018 8.925 3.6125V4.05576C9.88848 4.14459 10.7136 4.81716 10.9695 5.76406C11.0613 6.10406 10.8604 6.4542 10.5204 6.546C10.1787 6.63652 9.82987 6.4365 9.73765 6.09692C9.61312 5.63537 9.19148 5.3125 8.7125 5.3125H7.96875C7.32403 5.3125 6.8 5.83653 6.8 6.48125C6.8 7.12598 7.32403 7.65 7.96875 7.65H8.81875C10.2833 7.65 11.475 8.8417 11.475 10.3063C11.475 11.7351 10.3403 12.9006 8.925 12.9567V13.3875C8.925 13.7398 8.63983 14.025 8.2875 14.025C7.93518 14.025 7.65 13.7398 7.65 13.3875V12.9442C6.6776 12.855 5.85044 12.1744 5.60054 11.216C5.51171 10.8752 5.7154 10.5271 6.05625 10.4382C6.39838 10.3498 6.74521 10.5531 6.83403 10.8939C6.95601 11.3614 7.37802 11.6875 7.86167 11.6875H8.81792C9.57952 11.6875 10.1992 11.0679 10.1992 10.3063C10.1992 9.54465 9.58035 8.925 8.81875 8.925H7.96875C6.6215 8.925 5.525 7.8285 5.525 6.48125C5.525 5.24195 6.4532 4.21757 7.65 4.06074V3.6125C7.65 3.26018 7.93518 2.975 8.2875 2.975Z" fill="#293066"/>
</svg>
