<?xml version="1.0" standalone="no"?>
<!DOCTYPE svg PUBLIC "-//W3C//DTD SVG 20010904//EN"
 "http://www.w3.org/TR/2001/REC-SVG-20010904/DTD/svg10.dtd">
<svg version="1.0" xmlns="http://www.w3.org/2000/svg"
 width="20.000000pt" height="20.000000pt" viewBox="0 0 20.000000 20.000000"
 preserveAspectRatio="xMidYMid meet">

<g transform="translate(0.000000,20.000000) scale(0.100000,-0.100000)"
fill="#000000" stroke="none">
<path d="M72 160 c-49 -20 -48 -101 3 -120 55 -21 106 30 85 85 -7 19 -50 49
-63 44 -1 0 -12 -4 -25 -9z m40 -32 c9 -27 3 -63 -11 -63 -8 0 -16 6 -19 13
-2 8 3 10 15 6 17 -5 17 -5 0 9 -10 8 -15 21 -11 31 7 19 20 21 26 4z"/>
</g>
</svg>
