<svg width="14" height="17" viewBox="0 0 14 17" fill="none" xmlns="http://www.w3.org/2000/svg">
<path d="M13.0681 2.38C12.4193 2.38 12.1229 2.78375 12.1229 3.24063V7.82C12.1229 8.00727 11.9548 8.16 11.7454 8.16C11.5375 8.16 11.3576 8.00727 11.3576 7.82V1.52336C11.3649 1.11164 11.0818 0.68 10.4212 0.68C9.76059 0.68 9.476 1.14352 9.476 1.53266V7.48398C9.476 7.67258 9.30642 7.82398 9.09851 7.82398C8.88912 7.82398 8.71512 7.67258 8.71512 7.48531V0.852656C8.71512 0.508672 8.4202 0 7.77581 0C7.12995 0 6.82913 0.508672 6.82913 0.852656V7.82C6.82913 8.00727 6.65956 8.16 6.45164 8.16C6.24373 8.16 6.07268 8.00727 6.07268 7.82V2.22594C6.07268 1.60172 5.50791 1.37461 5.12747 1.37461C4.76325 1.37461 4.18522 1.59508 4.18522 2.18742V10.9809C4.17047 10.9889 4.15278 10.9916 4.13508 10.9969L4.13361 10.9809L2.24615 8.94094C1.75511 8.46547 0.924928 8.46547 0.39703 8.94094C-0.132343 9.38453 -0.132343 10.1309 0.39703 10.6077L0.438318 10.6569C0.451589 10.6888 0.46486 10.7206 0.489928 10.7485L3.70598 14.4699L4.73671 15.6732L4.73523 15.6613L4.86795 15.8153C4.86942 15.8153 4.86942 15.8153 4.8709 15.8166C5.46073 16.5205 6.35432 16.9389 7.34376 16.9907C7.39095 16.9934 7.44256 16.996 7.49564 16.9973C7.51186 16.9973 7.52808 17 7.5443 17C7.54578 17 7.54725 16.9987 7.5502 16.9987C7.56052 16.9987 7.57085 17 7.58264 17H10.6026C12.2733 17 14 15.8552 14 13.94C14 13.94 14 3.72539 14 3.25789C14 2.79039 13.7184 2.38 13.0681 2.38ZM11.2897 12.4684L9.09261 14.4473L6.89549 12.4684C6.62122 12.228 6.45017 11.8934 6.45017 11.5228C6.45017 10.7923 7.10783 10.2 7.91885 10.2C8.40103 10.2 8.82424 10.4125 9.09261 10.7366C9.36098 10.4125 9.78419 10.2 10.2664 10.2C11.0774 10.2 11.7351 10.7923 11.7351 11.5228C11.7351 11.8934 11.564 12.228 11.2897 12.4684Z" fill="black" fill-opacity="0.4"/>
</svg>
