<svg width="20" height="16" viewBox="0 0 20 16" fill="none" xmlns="http://www.w3.org/2000/svg">
<path d="M9.73484 4.15082L3.3336 9.57464V15.4285C3.3336 15.5801 3.39212 15.7254 3.4963 15.8326C3.60048 15.9398 3.74178 16 3.88911 16L7.77978 15.9896C7.92663 15.9889 8.06721 15.9283 8.17079 15.8212C8.27437 15.7142 8.33252 15.5692 8.33252 15.4181V11.9996C8.33252 11.848 8.39104 11.7026 8.49522 11.5954C8.5994 11.4883 8.7407 11.4281 8.88803 11.4281H11.1101C11.2574 11.4281 11.3987 11.4883 11.5029 11.5954C11.6071 11.7026 11.6656 11.848 11.6656 11.9996V15.4156C11.6654 15.4908 11.6796 15.5654 11.7074 15.6349C11.7352 15.7044 11.7761 15.7677 11.8277 15.8209C11.8793 15.8742 11.9406 15.9164 12.0081 15.9453C12.0756 15.9741 12.148 15.9889 12.2211 15.9889L16.1104 16C16.2577 16 16.399 15.9398 16.5032 15.8326C16.6074 15.7254 16.6659 15.5801 16.6659 15.4285V9.57071L10.266 4.15082C10.1908 4.08843 10.0971 4.05441 10.0004 4.05441C9.9038 4.05441 9.81008 4.08843 9.73484 4.15082ZM19.8462 7.8373L16.9437 5.37596V0.428619C16.9437 0.314942 16.8998 0.205921 16.8216 0.12554C16.7435 0.045158 16.6375 0 16.527 0H14.5827C14.4722 0 14.3663 0.045158 14.2881 0.12554C14.21 0.205921 14.1661 0.314942 14.1661 0.428619V3.02212L11.0577 0.391115C10.7593 0.138579 10.385 0.000504823 9.99871 0.000504823C9.61239 0.000504823 9.23807 0.138579 8.93976 0.391115L0.151203 7.8373C0.109015 7.87318 0.0741102 7.91725 0.0484844 7.96701C0.0228586 8.01676 0.00701361 8.07122 0.00185477 8.12728C-0.00330407 8.18334 0.00232436 8.23989 0.0184184 8.29371C0.0345125 8.34753 0.0607569 8.39756 0.0956519 8.44094L0.981 9.54821C1.0158 9.59174 1.0586 9.62778 1.10696 9.65428C1.15532 9.68077 1.20828 9.69719 1.26282 9.7026C1.31735 9.708 1.37239 9.70229 1.42477 9.68579C1.47716 9.66929 1.52587 9.64232 1.56811 9.60643L9.73484 2.68637C9.81008 2.62398 9.9038 2.58996 10.0004 2.58996C10.0971 2.58996 10.1908 2.62398 10.266 2.68637L18.4331 9.60643C18.4753 9.64233 18.5239 9.66933 18.5762 9.68588C18.6286 9.70244 18.6835 9.70823 18.738 9.70292C18.7925 9.69762 18.8454 9.68132 18.8938 9.65495C18.9422 9.62859 18.985 9.59268 19.0199 9.54928L19.9052 8.44201C19.9401 8.39838 19.9662 8.34809 19.9821 8.29404C19.998 8.23998 20.0034 8.18323 19.9979 8.12704C19.9924 8.07084 19.9762 8.01632 19.9502 7.96659C19.9241 7.91687 19.8888 7.87293 19.8462 7.8373Z" fill="#4B4B4B" fill-opacity="0.6"/>
</svg>
