<svg width="18" height="16" viewBox="0 0 18 16" fill="none" xmlns="http://www.w3.org/2000/svg">
<path d="M7.38 3.67059C7.88834 3.42631 8.44057 3.29797 9 3.29412C10.0741 3.29412 11.1043 3.74033 11.8638 4.53461C12.6233 5.32888 13.05 6.40614 13.05 7.52941C13.0489 8.02827 12.9605 8.52271 12.789 8.98824L15.3 11.4259C16.4211 10.3114 17.3363 8.99054 18 7.52941C18 7.52941 15.3 0.941176 9 0.941176C7.75907 0.935253 6.5314 1.20807 5.4 1.74118L7.38 3.67059ZM1.8 0L0.9 0.941176L3.195 3.2C1.85004 4.39144 0.761217 5.86686 0 7.52941C0 7.52941 2.7 14.1176 9 14.1176C10.4575 14.1251 11.8934 13.7497 13.176 13.0259L16.2 16L17.1 15.0588L1.8 0ZM9 11.7647C7.92587 11.7647 6.89574 11.3185 6.13622 10.5242C5.3767 9.72994 4.95 8.65268 4.95 7.52941C4.95497 6.80188 5.14108 6.08826 5.49 5.45882L6.867 6.81412C6.79244 7.04467 6.75295 7.28605 6.75 7.52941C6.74909 7.91247 6.83798 8.28993 7.0089 8.62874C7.17982 8.96755 7.42755 9.25738 7.73041 9.47285C8.03327 9.68833 8.38202 9.82289 8.74613 9.86474C9.11024 9.9066 9.47862 9.85448 9.819 9.71294L11.205 11.0776C10.5496 11.5263 9.78329 11.765 9 11.7647Z" fill="#4F4848"/>
</svg>
