<svg width="25" height="25" viewBox="0 0 25 25" fill="none" xmlns="http://www.w3.org/2000/svg">
<path d="M13.4348 2.3804C14.1646 2.3776 14.8943 2.38493 15.6238 2.4024L15.8178 2.4094C16.0418 2.4174 16.2628 2.4274 16.5298 2.4394C17.5938 2.4894 18.3198 2.6574 18.9568 2.9044C19.6168 3.1584 20.1728 3.5024 20.7288 4.0584C21.2372 4.558 21.6307 5.16234 21.8818 5.8294C22.1288 6.4664 22.2968 7.1934 22.3468 8.2574C22.3588 8.5234 22.3688 8.7454 22.3768 8.9694L22.3828 9.1634C22.4006 9.89259 22.4083 10.622 22.4058 11.3514L22.4068 12.0974V13.4074C22.4093 14.1371 22.4016 14.8669 22.3838 15.5964L22.3778 15.7904C22.3698 16.0144 22.3598 16.2354 22.3478 16.5024C22.2978 17.5664 22.1278 18.2924 21.8818 18.9294C21.6315 19.5972 21.2379 20.202 20.7288 20.7014C20.2288 21.2097 19.6241 21.6031 18.9568 21.8544C18.3198 22.1014 17.5938 22.2694 16.5298 22.3194C16.2628 22.3314 16.0418 22.3414 15.8178 22.3494L15.6238 22.3554C14.8943 22.3732 14.1646 22.3808 13.4348 22.3784L12.6888 22.3794H11.3798C10.6501 22.3819 9.92035 22.3742 9.19083 22.3564L8.99683 22.3504C8.75944 22.3418 8.5221 22.3318 8.28483 22.3204C7.22083 22.2704 6.49483 22.1004 5.85683 21.8544C5.18951 21.6037 4.58506 21.2102 4.08583 20.7014C3.57687 20.2017 3.18305 19.597 2.93183 18.9294C2.68483 18.2924 2.51683 17.5664 2.46683 16.5024C2.45569 16.2651 2.44569 16.0278 2.43683 15.7904L2.43183 15.5964C2.41339 14.8669 2.40506 14.1371 2.40683 13.4074V11.3514C2.40404 10.622 2.41137 9.89259 2.42883 9.1634L2.43583 8.9694C2.44383 8.7454 2.45383 8.5234 2.46583 8.2574C2.51583 7.1924 2.68383 6.4674 2.93083 5.8294C3.1822 5.16202 3.57679 4.55784 4.08683 4.0594C4.58572 3.55015 5.18979 3.15597 5.85683 2.9044C6.49483 2.6574 7.21983 2.4894 8.28483 2.4394L8.99683 2.4094L9.19083 2.4044C9.92001 2.38597 10.6494 2.37763 11.3788 2.3794L13.4348 2.3804ZM12.4068 7.3804C11.7443 7.37103 11.0866 7.49342 10.4718 7.74046C9.85702 7.98751 9.29747 8.35427 8.82567 8.81945C8.35387 9.28463 7.97923 9.83893 7.72351 10.4502C7.4678 11.0614 7.33612 11.7173 7.33612 12.3799C7.33612 13.0425 7.4678 13.6984 7.72351 14.3096C7.97923 14.9209 8.35387 15.4752 8.82567 15.9403C9.29747 16.4055 9.85702 16.7723 10.4718 17.0193C11.0866 17.2664 11.7443 17.3888 12.4068 17.3794C13.7329 17.3794 15.0047 16.8526 15.9424 15.9149C16.88 14.9772 17.4068 13.7055 17.4068 12.3794C17.4068 11.0533 16.88 9.78154 15.9424 8.84386C15.0047 7.90618 13.7329 7.3804 12.4068 7.3804ZM12.4068 9.3804C12.8053 9.37305 13.2013 9.44519 13.5716 9.5926C13.9419 9.74001 14.2792 9.95974 14.5636 10.2389C14.848 10.5181 15.074 10.8512 15.2283 11.2187C15.3825 11.5862 15.462 11.9808 15.4621 12.3794C15.4622 12.778 15.3828 13.1726 15.2287 13.5401C15.0745 13.9077 14.8487 14.2408 14.5643 14.5201C14.28 14.7994 13.9428 15.0193 13.5726 15.1668C13.2023 15.3143 12.8063 15.3866 12.4078 15.3794C11.6122 15.3794 10.8491 15.0633 10.2865 14.5007C9.7239 13.9381 9.40783 13.175 9.40783 12.3794C9.40783 11.5837 9.7239 10.8207 10.2865 10.2581C10.8491 9.69547 11.6122 9.3794 12.4078 9.3794L12.4068 9.3804ZM17.6568 5.8804C17.3342 5.89331 17.0291 6.03055 16.8054 6.26337C16.5817 6.49619 16.4568 6.80653 16.4568 7.1294C16.4568 7.45226 16.5817 7.7626 16.8054 7.99542C17.0291 8.22825 17.3342 8.36548 17.6568 8.3784C17.9883 8.3784 18.3063 8.2467 18.5407 8.01228C18.7751 7.77786 18.9068 7.45992 18.9068 7.1284C18.9068 6.79688 18.7751 6.47893 18.5407 6.24451C18.3063 6.01009 17.9883 5.8784 17.6568 5.8784V5.8804Z" fill="#293066"/>
</svg>
