<svg width="23" height="23" viewBox="0 0 23 23" fill="none" xmlns="http://www.w3.org/2000/svg">
<path d="M22.4005 22.3326V22.3317H22.406V14.2975C22.406 10.3671 21.5598 7.33949 16.965 7.33949C14.7561 7.33949 13.2737 8.55165 12.6686 9.70082H12.6047V7.70643H8.24805V22.3317H12.7845V15.0898C12.7845 13.183 13.146 11.3392 15.5073 11.3392C17.8339 11.3392 17.8686 13.5153 17.8686 15.2121V22.3326H22.4005Z" fill="#293066"/>
<path d="M0.861328 7.70732H5.40326V22.3326H0.861328V7.70732Z" fill="#293066"/>
<path d="M3.1306 0.426193C1.67838 0.426193 0.5 1.60458 0.5 3.05679C0.5 4.509 1.67838 5.71203 3.1306 5.71203C4.58281 5.71203 5.76119 4.509 5.76119 3.05679C5.76028 1.60458 4.5819 0.426193 3.1306 0.426193V0.426193Z" fill="#293066"/>
</svg>
