<svg width="148" height="139" viewBox="0 0 148 139" fill="none" xmlns="http://www.w3.org/2000/svg">
<path fill-rule="evenodd" clip-rule="evenodd" d="M129.805 9.27483C129.551 3.78424 131.501 0.584362 135.28 0.0104146C135.758 -0.0606939 136.21 0.238975 136.322 0.706259C139.603 13.968 147.003 29.5052 147.567 35.1888C150.172 66.4308 141.386 94.864 111.337 110.086C99.7617 114.861 88.9735 122.5 81.8779 133.903C79.836 137.179 76.1994 138.794 72.4001 138.098C68.6009 137.407 65.7667 134.614 65.0099 130.83C63.9179 125.349 63.8011 119.097 64.7915 111.508C67.3921 97.5255 81.4614 84.0657 104.526 72.3836C116.584 63.6423 120.388 49.3749 128.789 37.9976C132.441 33.6549 137.556 35.4834 136.56 41.1873C134.493 51.879 130.445 65.4201 122.105 74.7251C130.785 69.4834 137.535 53.5957 139.293 39.2826C139.659 35.3615 137.337 32.0499 133.432 32.2937C132.934 25.4571 130.704 17.5793 129.805 9.27483Z" fill="#3D436B"/>
<path fill-rule="evenodd" clip-rule="evenodd" d="M119.86 14.3896C120.444 8.94473 121.963 5.90738 125.625 5.86675C126.118 5.86167 126.529 6.23753 126.565 6.73021C126.986 12.4798 130.089 24.2889 131.055 32.3496C128.967 33.7819 127.184 35.4174 126.646 36.0574L126.559 36.159L126.478 36.2707C125.066 38.1805 123.771 40.2172 122.527 42.3149C122.907 35.3971 119.494 22.562 119.86 14.3896Z" fill="#3D436B"/>
<path fill-rule="evenodd" clip-rule="evenodd" d="M110.514 22.5163C111.098 17.0765 112.617 14.0392 116.274 13.9935C116.772 13.9884 117.183 14.3693 117.214 14.8671C117.574 20.637 120.012 35.0873 120.942 45.0679C118.585 49.2582 116.345 53.5958 113.806 57.6337C113.628 49.248 110.169 30.1402 110.514 22.5163Z" fill="#3D436B"/>
<path fill-rule="evenodd" clip-rule="evenodd" d="M101.671 38.6782C102.256 33.2384 103.774 30.201 107.431 30.1553C107.929 30.1502 108.34 30.5312 108.371 31.0289C108.721 36.6313 111.027 50.4111 112.013 60.346C109.869 63.4239 107.472 66.248 104.607 68.5996C103.703 59.1422 101.387 44.9814 101.671 38.6782Z" fill="#3D436B"/>
<path fill-rule="evenodd" clip-rule="evenodd" d="M18.1951 9.27483C18.449 3.78424 16.4986 0.584362 12.7197 0.0104146C12.2423 -0.0606939 11.7902 0.238975 11.6785 0.706259C8.39734 13.968 0.99698 29.5052 0.433192 35.1888C-2.17243 66.4308 6.61455 94.864 36.663 110.086C48.2384 114.861 59.0266 122.5 66.1222 133.903C68.164 137.179 71.8007 138.794 75.5999 138.098C79.3992 137.407 82.2333 134.614 82.9901 130.83C84.0822 125.349 84.2041 119.097 83.2085 111.508C80.608 97.5255 66.5387 84.0657 43.4741 72.3836C31.4162 63.6423 27.6119 49.3749 19.2109 37.9976C15.559 33.6549 10.4443 35.4834 11.4398 41.1873C13.507 51.879 17.5551 65.4201 25.8951 74.7251C17.2148 69.4834 10.4646 53.5957 8.70717 39.2826C8.34147 35.3615 10.6627 32.0499 14.5685 32.2937C15.0714 25.4571 17.2961 17.5793 18.1951 9.27483Z" fill="#293066"/>
<path fill-rule="evenodd" clip-rule="evenodd" d="M28.1403 14.3896C27.5562 8.94473 26.0375 5.90738 22.3754 5.86675C21.8828 5.86167 21.4713 6.23753 21.4358 6.73021C21.0142 12.4798 17.9108 24.2889 16.9458 32.3496C19.0333 33.7819 20.8161 35.4174 21.3545 36.0574L21.4409 36.159L21.5221 36.2707C22.9342 38.1805 24.2293 40.2172 25.4737 42.3149C25.0979 35.3971 28.506 22.562 28.1403 14.3896Z" fill="#293066"/>
<path fill-rule="evenodd" clip-rule="evenodd" d="M37.4908 22.5163C36.9067 17.0765 35.388 14.0392 31.731 13.9935C31.2332 13.9884 30.8218 14.3693 30.7913 14.8671C30.4307 20.637 27.9927 35.0873 27.0632 45.0679C29.42 49.2582 31.6599 53.5958 34.1995 57.6337C34.3772 49.248 37.8311 30.1402 37.4908 22.5163Z" fill="#293066"/>
<path fill-rule="evenodd" clip-rule="evenodd" d="M46.3339 38.6782C45.7498 33.2384 44.2311 30.201 40.5741 30.1553C40.0763 30.1502 39.6649 30.5312 39.6344 31.0289C39.284 36.6313 36.978 50.4111 35.9927 60.346C38.1361 63.4239 40.5335 66.248 43.3981 68.5996C44.3022 59.1422 46.6132 44.9814 46.3339 38.6782Z" fill="#293066"/>
</svg>
