<svg width="17" height="18" viewBox="0 0 17 18" fill="none" xmlns="http://www.w3.org/2000/svg">
<path d="M0.26 0.34005C0.06 0.42005 0 2.16005 0 8.16005C0 15.58 0.02 15.92 0.4 16.56C1.12 17.74 1.5 17.8 8.34 17.8C15.12 17.8 15.4 17.76 16.28 16.54C16.68 16 16.7 15.72 16.7 10.54V5.10005L15.66 5.04005L14.6 4.98005V10.06C14.6 14.34 14.56 15.2 14.3 15.4C14.06 15.6 13.94 15.6 13.7 15.4C13.44 15.18 13.4 14.1 13.4 7.92005C13.4 2.56005 13.34 0.620049 13.16 0.44005C12.98 0.26005 11.3 0.200048 6.72 0.220049C3.3 0.220049 0.38 0.280048 0.26 0.34005ZM11.2 4.00005V5.00005H6.6H2V4.00005V3.00005H6.6H11.2V4.00005ZM6 8.40005V9.00005H4H2V8.40005V7.80005H4H6V8.40005ZM11.2 8.40005V9.00005H9.3H7.4V8.40005V7.80005H9.3H11.2V8.40005ZM6 11V11.6H4H2V11V10.4H4H6V11ZM11.2 11V11.6H9.3H7.4V11V10.4H9.3H11.2V11ZM6 13.6V14.2H4H2V13.6V13H4H6V13.6ZM11.2 13.6V14.2H9.3H7.4V13.6V13H9.3H11.2V13.6Z" fill="#4B4B4B" fill-opacity="0.6"/>
</svg>
