<svg width="55" height="52" viewBox="0 0 55 52" fill="none" xmlns="http://www.w3.org/2000/svg">
<path fill-rule="evenodd" clip-rule="evenodd" d="M48.2381 3.44673C48.1437 1.40631 48.8685 0.217161 50.2729 0.00387029C50.4503 -0.0225552 50.6183 0.0888083 50.6598 0.262461C51.8791 5.19081 54.6293 10.9648 54.8388 13.0769C55.8071 24.6871 52.5417 35.2535 41.375 40.9105C37.0733 42.6847 33.0642 45.5236 30.4273 49.7611C29.6685 50.9786 28.3171 51.5788 26.9052 51.3202C25.4933 51.0635 24.4401 50.0254 24.1588 48.6192C23.753 46.5825 23.7096 44.259 24.0777 41.439C25.0441 36.2426 30.2726 31.2406 38.8438 26.8993C43.3248 23.6509 44.7386 18.3488 47.8606 14.1207C49.2177 12.5069 51.1185 13.1864 50.7485 15.3061C49.9803 19.2793 48.4759 24.3115 45.3766 27.7695C48.6024 25.8215 51.1109 19.9173 51.764 14.5983C51.8999 13.1411 51.0373 11.9104 49.5858 12.001C49.4008 9.46041 48.5722 6.53285 48.2381 3.44673Z" fill="#3D436B"/>
<path fill-rule="evenodd" clip-rule="evenodd" d="M44.5415 5.34747C44.7585 3.32404 45.3229 2.19529 46.6838 2.18019C46.8669 2.17831 47.0198 2.31798 47.033 2.50108C47.1897 4.63776 48.343 9.02627 48.7016 12.0218C47.9258 12.5541 47.2633 13.1619 47.0632 13.3997L47.0311 13.4374L47.0009 13.479C46.4762 14.1887 45.9949 14.9456 45.5324 15.7251C45.674 13.1543 44.4056 8.38451 44.5415 5.34747Z" fill="#3D436B"/>
<path fill-rule="evenodd" clip-rule="evenodd" d="M41.0695 8.36749C41.2866 6.34594 41.851 5.2172 43.21 5.20021C43.395 5.19833 43.5479 5.33989 43.5592 5.52487C43.6932 7.66911 44.5992 13.0391 44.9447 16.7481C44.0688 18.3053 43.2364 19.9173 42.2927 21.4179C42.2266 18.3016 40.9412 11.2007 41.0695 8.36749Z" fill="#3D436B"/>
<path fill-rule="evenodd" clip-rule="evenodd" d="M37.7824 14.3738C37.9994 12.3523 38.5638 11.2235 39.9228 11.2066C40.1078 11.2047 40.2607 11.3462 40.272 11.5312C40.4023 13.6132 41.2592 18.734 41.6254 22.4261C40.8288 23.5699 39.9379 24.6194 38.8734 25.4933C38.5374 21.9787 37.6767 16.7163 37.7824 14.3738Z" fill="#3D436B"/>
<path fill-rule="evenodd" clip-rule="evenodd" d="M6.76169 3.44673C6.85606 1.40631 6.13125 0.217161 4.72692 0.00387029C4.5495 -0.0225552 4.38151 0.0888083 4.33998 0.262461C3.12063 5.19081 0.370499 10.9648 0.160983 13.0769C-0.807321 24.6871 2.45811 35.2535 13.6248 40.9105C17.9264 42.6847 21.9356 45.5236 24.5724 49.7611C25.3312 50.9786 26.6827 51.5788 28.0946 51.3202C29.5064 51.0635 30.5597 50.0254 30.8409 48.6192C31.2468 46.5825 31.2921 44.259 30.9221 41.439C29.9557 36.2426 24.7272 31.2406 16.1559 26.8993C11.6749 23.6509 10.2612 18.3488 7.13919 14.1207C5.78206 12.5069 3.88131 13.1864 4.25127 15.3061C5.01949 19.2793 6.52386 24.3115 9.62318 27.7695C6.39739 25.8215 3.88886 19.9173 3.23577 14.5983C3.09987 13.1411 3.96247 11.9104 5.41399 12.001C5.60085 9.46041 6.42759 6.53285 6.76169 3.44673Z" fill="#293066"/>
<path fill-rule="evenodd" clip-rule="evenodd" d="M10.457 5.34747C10.2399 3.32404 9.67556 2.19529 8.31465 2.18019C8.13156 2.17831 7.97867 2.31798 7.96545 2.50108C7.80879 4.63776 6.65551 9.02627 6.29688 12.0218C7.07265 12.5541 7.73518 13.1619 7.93525 13.3997L7.96734 13.4374L7.99754 13.479C8.52228 14.1887 9.0036 14.9456 9.46604 15.7251C9.32636 13.1543 10.5929 8.38451 10.457 5.34747Z" fill="#293066"/>
<path fill-rule="evenodd" clip-rule="evenodd" d="M13.9317 8.36749C13.7147 6.34594 13.1503 5.2172 11.7913 5.20021C11.6063 5.19833 11.4534 5.33989 11.4421 5.52487C11.3081 7.66911 10.4021 13.0391 10.0566 16.7481C10.9325 18.3053 11.7649 19.9173 12.7086 21.4179C12.7747 18.3016 14.0582 11.2007 13.9317 8.36749Z" fill="#293066"/>
<path fill-rule="evenodd" clip-rule="evenodd" d="M17.218 14.3738C17.001 12.3523 16.4366 11.2235 15.0776 11.2066C14.8926 11.2047 14.7397 11.3462 14.7284 11.5312C14.5981 13.6132 13.7412 18.734 13.375 22.4261C14.1715 23.5699 15.0625 24.6194 16.127 25.4933C16.463 21.9787 17.3218 16.7163 17.218 14.3738Z" fill="#293066"/>
</svg>
