<svg width="20" height="20" viewBox="0 0 20 20" fill="none" xmlns="http://www.w3.org/2000/svg">
<path d="M7.31961 2.02005C5.89961 2.50005 4.73961 3.28005 3.71961 4.40005L2.95961 5.24005L2.27961 4.58005L1.59961 3.92005V6.16005V8.40005H3.83961H6.07961L5.23961 7.54005L4.39961 6.68005L4.83961 6.06005C6.07961 4.38005 7.83961 3.52005 9.99961 3.52005C11.1996 3.52005 11.7196 3.62005 12.6196 4.04005C16.8196 5.98005 17.8396 11.36 14.5996 14.6C13.3196 15.88 11.8396 16.48 9.95961 16.5H8.41961L8.21961 17.3C8.11961 17.72 8.05961 18.14 8.11961 18.2C8.17961 18.26 9.09961 18.3 10.1796 18.3C12.0196 18.3 12.1996 18.26 13.6196 17.56C16.5196 16.12 18.2196 13.56 18.3596 10.4C18.4796 7.66005 17.5596 5.44005 15.4996 3.64005C13.3196 1.72005 10.0596 1.08005 7.31961 2.02005Z" fill="#4B4B4B" fill-opacity="0.6"/>
<path d="M9.59961 5.38C9.59961 5.6 9.43961 5.82 9.23961 5.88C8.15961 6.22 7.49961 8 7.97961 9.24C8.09961 9.54 8.67961 10.1 9.33961 10.54C10.2996 11.18 10.5196 11.42 10.5596 11.96C10.5996 12.4 10.5196 12.64 10.3196 12.72C9.87961 12.9 9.39961 12.44 9.39961 11.88C9.39961 11.44 9.31961 11.4 8.49961 11.4C7.63961 11.4 7.59961 11.42 7.59961 12C7.59961 12.94 8.09961 13.74 8.89961 14.02C9.33961 14.18 9.59961 14.42 9.59961 14.64C9.59961 14.9 9.75961 15 10.0996 15C10.4596 15 10.5996 14.9 10.5996 14.6C10.5996 14.36 10.7396 14.2 10.9196 14.2C11.0796 14.2 11.4996 13.94 11.8196 13.62C12.2996 13.12 12.3996 12.88 12.3996 12.06C12.3796 10.8 12.0796 10.28 10.7796 9.42C9.65961 8.68 9.33961 8.04 9.81961 7.48C10.1396 7.1 10.5996 7.48 10.5996 8.12C10.5996 8.56 10.6796 8.6 11.5196 8.6H12.4596L12.3396 7.74C12.2596 7.1 12.0596 6.76 11.5196 6.28C11.1196 5.94 10.7996 5.5 10.7996 5.32C10.7996 5.1 10.6196 5 10.1996 5C9.73961 5 9.59961 5.1 9.59961 5.38Z" fill="#4B4B4B" fill-opacity="0.6"/>
<path d="M1.59961 10.5401C1.59961 10.8601 1.65961 11.3201 1.73961 11.5601C1.83961 11.9801 1.93961 12.0201 2.57961 11.9001C3.53961 11.7201 3.65961 11.5801 3.49961 10.7201C3.35961 10.0201 3.31961 10.0001 2.47961 10.0001C1.65961 10.0001 1.59961 10.0401 1.59961 10.5401Z" fill="#4B4B4B" fill-opacity="0.6"/>
<path d="M3.16039 13.2201C2.74039 13.4401 2.40039 13.6601 2.40039 13.7001C2.40039 13.7601 2.64039 14.1601 2.92039 14.6001C3.48039 15.4401 3.58039 15.4401 4.56039 14.6201L5.00039 14.2401L4.56039 13.5201C4.30039 13.1401 4.06039 12.8201 4.00039 12.8201C3.94039 12.8201 3.56039 13.0001 3.16039 13.2201Z" fill="#4B4B4B" fill-opacity="0.6"/>
<path d="M5.25883 15.8001C4.99883 16.1001 4.79883 16.4401 4.79883 16.5401C4.79883 16.7001 6.19883 17.6001 6.43883 17.6001C6.57883 17.6001 7.27883 16.0001 7.17883 15.9401C6.71883 15.6201 5.97883 15.2001 5.85883 15.2201C5.77883 15.2201 5.49883 15.4801 5.25883 15.8001Z" fill="#4B4B4B" fill-opacity="0.6"/>
</svg>
