<svg width="23" height="19" viewBox="0 0 23 19" fill="none" xmlns="http://www.w3.org/2000/svg">
<path d="M22.5 2.51032C21.6819 2.8717 20.8101 3.11124 19.9012 3.22755C20.8363 2.66539 21.5499 1.78201 21.8854 0.717241C21.0136 1.24063 20.0511 1.61032 19.0254 1.81663C18.1976 0.929087 17.0179 0.379395 15.7309 0.379395C13.2339 0.379395 11.2236 2.42032 11.2236 4.92232C11.2236 5.28232 11.2539 5.62847 11.3281 5.95801C7.5785 5.77386 4.26063 3.96416 2.03175 1.20739C1.64262 1.88724 1.41438 2.66539 1.41438 3.50309C1.41438 5.07601 2.21875 6.47032 3.41775 7.27755C2.69313 7.2637 1.98225 7.05186 1.38 6.71816C1.38 6.73201 1.38 6.75001 1.38 6.76801C1.38 8.97509 2.94337 10.8083 4.9935 11.2306C4.62637 11.3317 4.22625 11.3802 3.811 11.3802C3.52225 11.3802 3.23075 11.3635 2.95712 11.3026C3.5415 13.1012 5.19975 14.4235 7.1715 14.4665C5.637 15.6752 3.68863 16.4035 1.57938 16.4035C1.2095 16.4035 0.85475 16.3869 0.5 16.3412C2.49787 17.6386 4.86562 18.3794 7.419 18.3794C15.7185 18.3794 20.256 11.4563 20.256 5.45539C20.256 5.25463 20.2491 5.06078 20.2395 4.86832C21.1346 4.22863 21.8867 3.4297 22.5 2.51032Z" fill="#293066"/>
</svg>
