<svg width="21" height="21" viewBox="0 0 21 21" fill="none" xmlns="http://www.w3.org/2000/svg">
<path d="M3.26339 0.379395C1.6875 0.379395 0.40625 1.66064 0.40625 3.23654V17.5223C0.40625 19.0981 1.6875 20.3794 3.26339 20.3794H17.5491C19.125 20.3794 20.4062 19.0981 20.4062 17.5223V3.23654C20.4062 1.66064 19.125 0.379395 17.5491 0.379395H3.26339ZM16.5268 4.12939L11.8929 9.42404L17.3438 16.6294H13.0759L9.73661 12.2589L5.91071 16.6294H3.79018L8.74554 10.9642L3.51786 4.12939H7.89286L10.9152 8.12493L14.4062 4.12939H16.5268ZM14.8393 15.3615L7.25446 5.33029H5.99107L13.6607 15.3615H14.8348H14.8393Z" fill="#293066"/>
</svg>
