<svg width="33" height="32" viewBox="0 0 33 32" fill="none" xmlns="http://www.w3.org/2000/svg">
<path id="Vector" d="M16.25 0C7.42765 0 0.25 7.17766 0.25 16C0.25 24.8223 7.42765 32 16.25 32C25.0723 32 32.25 24.8223 32.25 16C32.25 7.17766 25.0723 0 16.25 0ZM15.85 5.6C16.5132 5.6 17.05 6.1368 17.05 6.8V7.63438C18.8636 7.80158 20.4168 9.0676 20.8984 10.85C21.0712 11.49 20.6931 12.1491 20.0531 12.3219C19.4099 12.4923 18.7533 12.1158 18.5797 11.4766C18.3453 10.6078 17.5516 10 16.65 10H15.25C14.0364 10 13.05 10.9864 13.05 12.2C13.05 13.4136 14.0364 14.4 15.25 14.4H16.85C19.6068 14.4 21.85 16.6432 21.85 19.4C21.85 22.0896 19.714 24.2835 17.05 24.3891V25.2C17.05 25.8632 16.5132 26.4 15.85 26.4C15.1868 26.4 14.65 25.8632 14.65 25.2V24.3656C12.8196 24.1976 11.2626 22.9165 10.7922 21.1125C10.625 20.4709 11.0084 19.8156 11.65 19.6484C12.294 19.482 12.9469 19.8647 13.1141 20.5063C13.3437 21.3863 14.138 22 15.0484 22H16.8484C18.282 22 19.4484 20.8336 19.4484 19.4C19.4484 17.9664 18.2836 16.8 16.85 16.8H15.25C12.714 16.8 10.65 14.736 10.65 12.2C10.65 9.8672 12.3972 7.93895 14.65 7.64375V6.8C14.65 6.1368 15.1868 5.6 15.85 5.6Z" fill="white"/>
</svg>
