<svg width="26" height="32" viewBox="0 0 26 32" fill="none" xmlns="http://www.w3.org/2000/svg">
<path id="Vector" d="M24.2693 4.48C23.0643 4.48 22.5139 5.24 22.5139 6.1V14.72C22.5139 15.0725 22.2017 15.36 21.8128 15.36C21.4267 15.36 21.0926 15.0725 21.0926 14.72V2.8675C21.1063 2.0925 20.5805 1.28 19.3537 1.28C18.1268 1.28 17.5983 2.1525 17.5983 2.885V14.0875C17.5983 14.4425 17.2834 14.7275 16.8972 14.7275C16.5084 14.7275 16.1852 14.4425 16.1852 14.09V1.605C16.1852 0.9575 15.6375 0 14.4408 0C13.2413 0 12.6827 0.9575 12.6827 1.605V14.72C12.6827 15.0725 12.3677 15.36 11.9816 15.36C11.5955 15.36 11.2778 15.0725 11.2778 14.72V4.19C11.2778 3.015 10.229 2.5875 9.52245 2.5875C8.84604 2.5875 7.77255 3.0025 7.77255 4.1175V20.67C7.74516 20.685 7.7123 20.69 7.67944 20.7L7.6767 20.67L4.17142 16.83C3.2595 15.935 1.71772 15.935 0.737341 16.83C-0.24578 17.665 -0.24578 19.07 0.737341 19.9675L0.814019 20.06C0.838665 20.12 0.863312 20.18 0.909867 20.2325L6.88253 27.2375L8.79675 29.5025L8.79401 29.48L9.04047 29.77C9.04321 29.77 9.04321 29.77 9.04595 29.7725C10.1413 31.0975 11.8009 31.885 13.6384 31.9825C13.726 31.9875 13.8219 31.9925 13.9205 31.995C13.9506 31.995 13.9807 32 14.0108 32C14.0136 32 14.0163 31.9975 14.0218 31.9975C14.041 31.9975 14.0601 32 14.082 32H19.6905C22.7932 32 26 29.845 26 26.24C26 26.24 26 7.0125 26 6.1325C26 5.2525 25.4769 4.48 24.2693 4.48ZM20.9666 23.47L16.8863 27.195L12.8059 23.47C12.2965 23.0175 11.9789 22.3875 11.9789 21.69C11.9789 20.315 13.2003 19.2 14.7064 19.2C15.6019 19.2 16.3879 19.6 16.8863 20.21C17.3847 19.6 18.1706 19.2 19.0661 19.2C20.5723 19.2 21.7937 20.315 21.7937 21.69C21.7937 22.3875 21.476 23.0175 20.9666 23.47Z" fill="white"/>
</svg>
