<svg width="28" height="30" viewBox="0 0 28 30" fill="none" xmlns="http://www.w3.org/2000/svg">
<g id="Black">
<path id="Vector" d="M1.3662 1.14408C1.0462 1.27208 0.950195 4.05608 0.950195 13.6561C0.950195 25.5281 0.982195 26.0721 1.5902 27.0961C2.7422 28.9841 3.3502 29.0801 14.2942 29.0801C25.1422 29.0801 25.5902 29.0161 26.9982 27.0641C27.6382 26.2001 27.6702 25.7521 27.6702 17.4641V8.76008L26.0062 8.66408L24.3102 8.56808V16.6961C24.3102 23.5441 24.2462 24.9201 23.8302 25.2401C23.4462 25.5601 23.2542 25.5601 22.8702 25.2401C22.4542 24.8881 22.3902 23.1601 22.3902 13.2721C22.3902 4.69608 22.2942 1.59208 22.0062 1.30408C21.7182 1.01608 19.0302 0.920076 11.7022 0.952076C6.2302 0.952076 1.5582 1.04808 1.3662 1.14408ZM18.8702 7.00008V8.60008H11.5102H4.1502V7.00008V5.40008H11.5102H18.8702V7.00008ZM10.5502 14.0401V15.0001H7.3502H4.1502V14.0401V13.0801H7.3502H10.5502V14.0401ZM18.8702 14.0401V15.0001H15.8302H12.7902V14.0401V13.0801H15.8302H18.8702V14.0401ZM10.5502 18.2001V19.1601H7.3502H4.1502V18.2001V17.2401H7.3502H10.5502V18.2001ZM18.8702 18.2001V19.1601H15.8302H12.7902V18.2001V17.2401H15.8302H18.8702V18.2001ZM10.5502 22.3601V23.3201H7.3502H4.1502V22.3601V21.4001H7.3502H10.5502V22.3601ZM18.8702 22.3601V23.3201H15.8302H12.7902V22.3601V21.4001H15.8302H18.8702V22.3601Z" fill="white"/>
</g>
</svg>
