<svg width="20" height="21" viewBox="0 0 20 21" fill="none" xmlns="http://www.w3.org/2000/svg">
<path fill-rule="evenodd" clip-rule="evenodd" d="M10 20.3794C12.6522 20.3794 15.1957 19.3258 17.0711 17.4505C18.9464 15.5751 20 13.0316 20 10.3794C20 7.72723 18.9464 5.18369 17.0711 3.30833C15.1957 1.43296 12.6522 0.379395 10 0.379395C7.34784 0.379395 4.8043 1.43296 2.92893 3.30833C1.05357 5.18369 0 7.72723 0 10.3794C0 13.0316 1.05357 15.5751 2.92893 17.4505C4.8043 19.3258 7.34784 20.3794 10 20.3794ZM14.6337 8.76314C14.8614 8.52739 14.9874 8.21164 14.9846 7.88389C14.9817 7.55615 14.8503 7.24263 14.6185 7.01087C14.3868 6.77911 14.0732 6.64765 13.7455 6.6448C13.4178 6.64195 13.102 6.76795 12.8663 6.99564L8.75 11.1119L7.13375 9.49564C6.898 9.26795 6.58224 9.14195 6.2545 9.1448C5.92675 9.14765 5.61324 9.27911 5.38148 9.51087C5.14972 9.74263 5.01826 10.0561 5.01541 10.3839C5.01256 10.7116 5.13855 11.0274 5.36625 11.2631L7.86625 13.7631C8.10066 13.9975 8.41854 14.1291 8.75 14.1291C9.08146 14.1291 9.39934 13.9975 9.63375 13.7631L14.6337 8.76314Z" fill="#010059"/>
</svg>
