<svg width="212" height="80" viewBox="0 0 212 80" fill="none" xmlns="http://www.w3.org/2000/svg">
<path d="M48.364 9.19758H58.5913C59.4954 9.19758 60.3625 9.55675 61.0019 10.1961C61.6412 10.8354 62.0004 11.7025 62.0004 12.6067V73.9703C62.0004 74.8745 61.6412 75.7416 61.0019 76.3809C60.3625 77.0202 59.4954 77.3794 58.5913 77.3794H4.04581C3.14166 77.3794 2.27455 77.0202 1.63522 76.3809C0.99589 75.7416 0.636719 74.8745 0.636719 73.9703V12.6067C0.636719 11.7025 0.99589 10.8354 1.63522 10.1961C2.27455 9.55675 3.14166 9.19758 4.04581 9.19758H14.2731V2.37939H21.0913V9.19758H41.5458V2.37939H48.364V9.19758ZM14.2731 29.6521V36.4703H48.364V29.6521H14.2731ZM14.2731 43.2885V50.1067H48.364V43.2885H14.2731Z" fill="#293066"/>
<path d="M105.797 10.1841V44.3794H99.0469V17.9653L90.9375 20.5435V15.2231L105.07 10.1841H105.797ZM117.516 41.1216C117.516 40.1216 117.859 39.2856 118.547 38.6138C119.25 37.9419 120.18 37.606 121.336 37.606C122.492 37.606 123.414 37.9419 124.102 38.6138C124.805 39.2856 125.156 40.1216 125.156 41.1216C125.156 42.1216 124.805 42.9575 124.102 43.6294C123.414 44.3013 122.492 44.6372 121.336 44.6372C120.18 44.6372 119.25 44.3013 118.547 43.6294C117.859 42.9575 117.516 42.1216 117.516 41.1216ZM137.18 28.8403L131.789 27.5513L133.734 10.2544H152.906V15.7153H139.289L138.445 23.2856C138.898 23.02 139.586 22.7388 140.508 22.4419C141.43 22.1294 142.461 21.9731 143.602 21.9731C145.258 21.9731 146.727 22.231 148.008 22.7466C149.289 23.2622 150.375 24.0122 151.266 24.9966C152.172 25.981 152.859 27.1841 153.328 28.606C153.797 30.0278 154.031 31.6372 154.031 33.4341C154.031 34.9497 153.797 36.395 153.328 37.77C152.859 39.1294 152.148 40.3481 151.195 41.4263C150.242 42.4888 149.047 43.3247 147.609 43.9341C146.172 44.5435 144.469 44.8481 142.5 44.8481C141.031 44.8481 139.609 44.6294 138.234 44.1919C136.875 43.7544 135.648 43.106 134.555 42.2466C133.477 41.3872 132.609 40.3481 131.953 39.1294C131.312 37.895 130.977 36.4888 130.945 34.9106H137.648C137.742 35.8794 137.992 36.7153 138.398 37.4185C138.82 38.106 139.375 38.6372 140.062 39.0122C140.75 39.3872 141.555 39.5747 142.477 39.5747C143.336 39.5747 144.07 39.4106 144.68 39.0825C145.289 38.7544 145.781 38.3013 146.156 37.7231C146.531 37.1294 146.805 36.4419 146.977 35.6606C147.164 34.8638 147.258 34.0044 147.258 33.0825C147.258 32.1606 147.148 31.3247 146.93 30.5747C146.711 29.8247 146.375 29.1763 145.922 28.6294C145.469 28.0825 144.891 27.6606 144.188 27.3638C143.5 27.0669 142.695 26.9185 141.773 26.9185C140.523 26.9185 139.555 27.1138 138.867 27.5044C138.195 27.895 137.633 28.3403 137.18 28.8403ZM181.359 24.3169V30.2231C181.359 32.7856 181.086 34.9966 180.539 36.856C179.992 38.6997 179.203 40.2153 178.172 41.4028C177.156 42.5747 175.945 43.4419 174.539 44.0044C173.133 44.5669 171.57 44.8481 169.852 44.8481C168.477 44.8481 167.195 44.6763 166.008 44.3325C164.82 43.9731 163.75 43.4185 162.797 42.6685C161.859 41.9185 161.047 40.9731 160.359 39.8325C159.688 38.6763 159.172 37.3013 158.812 35.7075C158.453 34.1138 158.273 32.2856 158.273 30.2231V24.3169C158.273 21.7544 158.547 19.5591 159.094 17.731C159.656 15.8872 160.445 14.3794 161.461 13.2075C162.492 12.0356 163.711 11.1763 165.117 10.6294C166.523 10.0669 168.086 9.78564 169.805 9.78564C171.18 9.78564 172.453 9.96533 173.625 10.3247C174.812 10.6685 175.883 11.2075 176.836 11.9419C177.789 12.6763 178.602 13.6216 179.273 14.7778C179.945 15.9185 180.461 17.2856 180.82 18.8794C181.18 20.4575 181.359 22.27 181.359 24.3169ZM174.586 31.1138V23.4028C174.586 22.1685 174.516 21.0903 174.375 20.1685C174.25 19.2466 174.055 18.4653 173.789 17.8247C173.523 17.1685 173.195 16.6372 172.805 16.231C172.414 15.8247 171.969 15.5278 171.469 15.3403C170.969 15.1528 170.414 15.0591 169.805 15.0591C169.039 15.0591 168.359 15.2075 167.766 15.5044C167.188 15.8013 166.695 16.2778 166.289 16.9341C165.883 17.5747 165.57 18.4341 165.352 19.5122C165.148 20.5747 165.047 21.8716 165.047 23.4028V31.1138C165.047 32.3481 165.109 33.4341 165.234 34.3716C165.375 35.3091 165.578 36.1138 165.844 36.7856C166.125 37.4419 166.453 37.981 166.828 38.4028C167.219 38.8091 167.664 39.106 168.164 39.2935C168.68 39.481 169.242 39.5747 169.852 39.5747C170.602 39.5747 171.266 39.4263 171.844 39.1294C172.438 38.8169 172.938 38.3325 173.344 37.6763C173.766 37.0044 174.078 36.1294 174.281 35.0513C174.484 33.9731 174.586 32.6606 174.586 31.1138ZM208.922 24.3169V30.2231C208.922 32.7856 208.648 34.9966 208.102 36.856C207.555 38.6997 206.766 40.2153 205.734 41.4028C204.719 42.5747 203.508 43.4419 202.102 44.0044C200.695 44.5669 199.133 44.8481 197.414 44.8481C196.039 44.8481 194.758 44.6763 193.57 44.3325C192.383 43.9731 191.312 43.4185 190.359 42.6685C189.422 41.9185 188.609 40.9731 187.922 39.8325C187.25 38.6763 186.734 37.3013 186.375 35.7075C186.016 34.1138 185.836 32.2856 185.836 30.2231V24.3169C185.836 21.7544 186.109 19.5591 186.656 17.731C187.219 15.8872 188.008 14.3794 189.023 13.2075C190.055 12.0356 191.273 11.1763 192.68 10.6294C194.086 10.0669 195.648 9.78564 197.367 9.78564C198.742 9.78564 200.016 9.96533 201.188 10.3247C202.375 10.6685 203.445 11.2075 204.398 11.9419C205.352 12.6763 206.164 13.6216 206.836 14.7778C207.508 15.9185 208.023 17.2856 208.383 18.8794C208.742 20.4575 208.922 22.27 208.922 24.3169ZM202.148 31.1138V23.4028C202.148 22.1685 202.078 21.0903 201.938 20.1685C201.812 19.2466 201.617 18.4653 201.352 17.8247C201.086 17.1685 200.758 16.6372 200.367 16.231C199.977 15.8247 199.531 15.5278 199.031 15.3403C198.531 15.1528 197.977 15.0591 197.367 15.0591C196.602 15.0591 195.922 15.2075 195.328 15.5044C194.75 15.8013 194.258 16.2778 193.852 16.9341C193.445 17.5747 193.133 18.4341 192.914 19.5122C192.711 20.5747 192.609 21.8716 192.609 23.4028V31.1138C192.609 32.3481 192.672 33.4341 192.797 34.3716C192.938 35.3091 193.141 36.1138 193.406 36.7856C193.688 37.4419 194.016 37.981 194.391 38.4028C194.781 38.8091 195.227 39.106 195.727 39.2935C196.242 39.481 196.805 39.5747 197.414 39.5747C198.164 39.5747 198.828 39.4263 199.406 39.1294C200 38.8169 200.5 38.3325 200.906 37.6763C201.328 37.0044 201.641 36.1294 201.844 35.0513C202.047 33.9731 202.148 32.6606 202.148 31.1138Z" fill="#293066"/>
<path d="M91.1992 60.1606V74.3794H88.2695V60.1606H91.1992ZM99.7148 60.1606L94.0801 67.1821L90.8281 70.6782L90.3008 67.9048L92.498 64.897L96.1211 60.1606H99.7148ZM96.3848 74.3794L92.1953 67.8071L94.3633 65.9907L99.8516 74.3794H96.3848ZM105.418 74.5747C104.598 74.5747 103.862 74.4445 103.211 74.1841C102.56 73.9172 102.007 73.5493 101.551 73.0806C101.102 72.6118 100.757 72.0682 100.516 71.4497C100.275 70.8247 100.154 70.1606 100.154 69.4575V69.0669C100.154 68.2661 100.268 67.5337 100.496 66.8696C100.724 66.2056 101.049 65.6294 101.473 65.1411C101.902 64.6528 102.423 64.2785 103.035 64.0181C103.647 63.7511 104.337 63.6177 105.105 63.6177C105.854 63.6177 106.518 63.7414 107.098 63.9888C107.677 64.2362 108.162 64.5877 108.553 65.0435C108.95 65.4992 109.249 66.0461 109.451 66.6841C109.653 67.3156 109.754 68.0187 109.754 68.7935V69.9653H101.355V68.0903H106.99V67.8755C106.99 67.4849 106.919 67.1366 106.775 66.8306C106.639 66.5181 106.43 66.2707 106.15 66.0884C105.87 65.9061 105.512 65.8149 105.076 65.8149C104.705 65.8149 104.386 65.8963 104.119 66.0591C103.852 66.2218 103.634 66.4497 103.465 66.7427C103.302 67.0356 103.178 67.3807 103.094 67.7778C103.016 68.1685 102.977 68.5981 102.977 69.0669V69.4575C102.977 69.8807 103.035 70.2713 103.152 70.6294C103.276 70.9875 103.449 71.2967 103.67 71.5571C103.898 71.8175 104.171 72.0194 104.49 72.1626C104.816 72.3058 105.184 72.3774 105.594 72.3774C106.102 72.3774 106.574 72.2798 107.01 72.0845C107.452 71.8826 107.833 71.5799 108.152 71.1763L109.52 72.6606C109.298 72.9797 108.995 73.2856 108.611 73.5786C108.234 73.8716 107.778 74.1125 107.244 74.3013C106.71 74.4836 106.102 74.5747 105.418 74.5747ZM118.045 63.813H120.594V74.0278C120.594 74.9914 120.379 75.8084 119.949 76.479C119.526 77.1561 118.934 77.6672 118.172 78.0122C117.41 78.3638 116.525 78.5396 115.516 78.5396C115.073 78.5396 114.604 78.481 114.109 78.3638C113.621 78.2466 113.152 78.0643 112.703 77.8169C112.26 77.5695 111.889 77.257 111.59 76.8794L112.83 75.2192C113.156 75.5968 113.533 75.8898 113.963 76.0981C114.393 76.313 114.868 76.4204 115.389 76.4204C115.896 76.4204 116.326 76.326 116.678 76.1372C117.029 75.9549 117.299 75.6847 117.488 75.3267C117.677 74.9751 117.771 74.5487 117.771 74.0474V66.2544L118.045 63.813ZM110.936 69.2231V69.0181C110.936 68.2108 111.033 67.4784 111.229 66.8208C111.43 66.1567 111.714 65.5871 112.078 65.1118C112.449 64.6366 112.898 64.2687 113.426 64.0083C113.953 63.7479 114.549 63.6177 115.213 63.6177C115.916 63.6177 116.505 63.7479 116.98 64.0083C117.456 64.2687 117.846 64.6398 118.152 65.1216C118.458 65.5968 118.696 66.16 118.865 66.811C119.041 67.4556 119.178 68.1619 119.275 68.9302V69.3794C119.178 70.1151 119.031 70.7987 118.836 71.4302C118.641 72.0617 118.383 72.6151 118.064 73.0903C117.745 73.5591 117.348 73.9237 116.873 74.1841C116.404 74.4445 115.844 74.5747 115.193 74.5747C114.542 74.5747 113.953 74.4412 113.426 74.1743C112.905 73.9074 112.459 73.533 112.088 73.0513C111.717 72.5695 111.43 72.0031 111.229 71.3521C111.033 70.701 110.936 69.9914 110.936 69.2231ZM113.748 69.0181V69.2231C113.748 69.6593 113.79 70.0662 113.875 70.4438C113.96 70.8215 114.09 71.1567 114.266 71.4497C114.448 71.7362 114.673 71.9608 114.939 72.1235C115.213 72.2798 115.535 72.3579 115.906 72.3579C116.421 72.3579 116.84 72.2505 117.166 72.0356C117.492 71.8143 117.736 71.5116 117.898 71.1274C118.061 70.7433 118.156 70.3006 118.182 69.7993V68.52C118.169 68.1099 118.113 67.742 118.016 67.4165C117.918 67.0845 117.781 66.8013 117.605 66.5669C117.43 66.3325 117.202 66.1502 116.922 66.02C116.642 65.8898 116.31 65.8247 115.926 65.8247C115.555 65.8247 115.232 65.9093 114.959 66.0786C114.692 66.2414 114.467 66.466 114.285 66.7524C114.109 67.0389 113.976 67.3774 113.885 67.7681C113.794 68.1522 113.748 68.5688 113.748 69.0181ZM125.75 63.813V74.3794H122.928V63.813H125.75ZM122.752 61.0591C122.752 60.6489 122.895 60.3104 123.182 60.0435C123.468 59.7765 123.852 59.6431 124.334 59.6431C124.809 59.6431 125.19 59.7765 125.477 60.0435C125.77 60.3104 125.916 60.6489 125.916 61.0591C125.916 61.4692 125.77 61.8078 125.477 62.0747C125.19 62.3416 124.809 62.4751 124.334 62.4751C123.852 62.4751 123.468 62.3416 123.182 62.0747C122.895 61.8078 122.752 61.4692 122.752 61.0591ZM133.777 71.9966V67.2896C133.777 66.951 133.722 66.6613 133.611 66.4204C133.501 66.173 133.328 65.981 133.094 65.8442C132.866 65.7075 132.57 65.6392 132.205 65.6392C131.893 65.6392 131.622 65.6945 131.395 65.8052C131.167 65.9093 130.991 66.0623 130.867 66.2642C130.743 66.4595 130.682 66.6906 130.682 66.9575H127.869C127.869 66.5083 127.973 66.0819 128.182 65.6782C128.39 65.2746 128.693 64.9198 129.09 64.6138C129.487 64.3013 129.959 64.0571 130.506 63.8813C131.059 63.7056 131.678 63.6177 132.361 63.6177C133.182 63.6177 133.911 63.7544 134.549 64.0278C135.187 64.3013 135.688 64.7114 136.053 65.2583C136.424 65.8052 136.609 66.4888 136.609 67.3091V71.8306C136.609 72.41 136.645 72.8853 136.717 73.2563C136.788 73.6209 136.893 73.9399 137.029 74.2134V74.3794H134.188C134.051 74.0929 133.947 73.7349 133.875 73.3052C133.81 72.869 133.777 72.4328 133.777 71.9966ZM134.148 67.9438L134.168 69.5356H132.596C132.225 69.5356 131.902 69.578 131.629 69.6626C131.355 69.7472 131.131 69.8677 130.955 70.0239C130.779 70.1737 130.649 70.3494 130.564 70.5513C130.486 70.7531 130.447 70.9744 130.447 71.2153C130.447 71.4562 130.503 71.6743 130.613 71.8696C130.724 72.0584 130.883 72.2082 131.092 72.3188C131.3 72.423 131.544 72.4751 131.824 72.4751C132.247 72.4751 132.615 72.3905 132.928 72.2212C133.24 72.0519 133.481 71.8436 133.65 71.5962C133.826 71.3488 133.917 71.1144 133.924 70.8931L134.666 72.0845C134.562 72.3514 134.419 72.6281 134.236 72.9146C134.061 73.201 133.836 73.4712 133.562 73.7251C133.289 73.9725 132.96 74.1776 132.576 74.3403C132.192 74.4966 131.736 74.5747 131.209 74.5747C130.538 74.5747 129.93 74.4412 129.383 74.1743C128.842 73.9009 128.413 73.5265 128.094 73.0513C127.781 72.5695 127.625 72.0226 127.625 71.4106C127.625 70.8573 127.729 70.3657 127.938 69.936C128.146 69.5063 128.452 69.145 128.855 68.8521C129.266 68.5526 129.777 68.328 130.389 68.1782C131.001 68.022 131.71 67.9438 132.518 67.9438H134.148ZM143.953 63.813V65.8052H137.801V63.813H143.953ZM139.324 61.2056H142.137V71.1958C142.137 71.5018 142.176 71.7362 142.254 71.8989C142.339 72.0617 142.462 72.1756 142.625 72.2407C142.788 72.2993 142.993 72.3286 143.24 72.3286C143.416 72.3286 143.572 72.3221 143.709 72.3091C143.852 72.2896 143.973 72.27 144.07 72.2505L144.08 74.3208C143.839 74.3989 143.579 74.4608 143.299 74.5063C143.019 74.5519 142.71 74.5747 142.371 74.5747C141.753 74.5747 141.212 74.4738 140.75 74.272C140.294 74.0636 139.943 73.7316 139.695 73.2759C139.448 72.8201 139.324 72.2212 139.324 71.479V61.2056ZM151.258 71.9966V67.2896C151.258 66.951 151.202 66.6613 151.092 66.4204C150.981 66.173 150.809 65.981 150.574 65.8442C150.346 65.7075 150.05 65.6392 149.686 65.6392C149.373 65.6392 149.103 65.6945 148.875 65.8052C148.647 65.9093 148.471 66.0623 148.348 66.2642C148.224 66.4595 148.162 66.6906 148.162 66.9575H145.35C145.35 66.5083 145.454 66.0819 145.662 65.6782C145.87 65.2746 146.173 64.9198 146.57 64.6138C146.967 64.3013 147.439 64.0571 147.986 63.8813C148.54 63.7056 149.158 63.6177 149.842 63.6177C150.662 63.6177 151.391 63.7544 152.029 64.0278C152.667 64.3013 153.169 64.7114 153.533 65.2583C153.904 65.8052 154.09 66.4888 154.09 67.3091V71.8306C154.09 72.41 154.126 72.8853 154.197 73.2563C154.269 73.6209 154.373 73.9399 154.51 74.2134V74.3794H151.668C151.531 74.0929 151.427 73.7349 151.355 73.3052C151.29 72.869 151.258 72.4328 151.258 71.9966ZM151.629 67.9438L151.648 69.5356H150.076C149.705 69.5356 149.383 69.578 149.109 69.6626C148.836 69.7472 148.611 69.8677 148.436 70.0239C148.26 70.1737 148.13 70.3494 148.045 70.5513C147.967 70.7531 147.928 70.9744 147.928 71.2153C147.928 71.4562 147.983 71.6743 148.094 71.8696C148.204 72.0584 148.364 72.2082 148.572 72.3188C148.781 72.423 149.025 72.4751 149.305 72.4751C149.728 72.4751 150.096 72.3905 150.408 72.2212C150.721 72.0519 150.962 71.8436 151.131 71.5962C151.307 71.3488 151.398 71.1144 151.404 70.8931L152.146 72.0845C152.042 72.3514 151.899 72.6281 151.717 72.9146C151.541 73.201 151.316 73.4712 151.043 73.7251C150.77 73.9725 150.441 74.1776 150.057 74.3403C149.673 74.4966 149.217 74.5747 148.689 74.5747C148.019 74.5747 147.41 74.4412 146.863 74.1743C146.323 73.9009 145.893 73.5265 145.574 73.0513C145.262 72.5695 145.105 72.0226 145.105 71.4106C145.105 70.8573 145.21 70.3657 145.418 69.936C145.626 69.5063 145.932 69.145 146.336 68.8521C146.746 68.5526 147.257 68.328 147.869 68.1782C148.481 68.022 149.191 67.9438 149.998 67.9438H151.629ZM159.012 66.0688V74.3794H156.199V63.813H158.836L159.012 66.0688ZM158.602 68.7251H157.84C157.84 67.9438 157.941 67.2407 158.143 66.6157C158.344 65.9842 158.628 65.4471 158.992 65.0044C159.357 64.5552 159.79 64.2134 160.291 63.979C160.799 63.7381 161.365 63.6177 161.99 63.6177C162.485 63.6177 162.938 63.6893 163.348 63.8325C163.758 63.9757 164.109 64.2036 164.402 64.5161C164.702 64.8286 164.93 65.242 165.086 65.7563C165.249 66.2707 165.33 66.8989 165.33 67.6411V74.3794H162.498V67.6313C162.498 67.1626 162.433 66.798 162.303 66.5376C162.173 66.2772 161.98 66.0949 161.727 65.9907C161.479 65.88 161.173 65.8247 160.809 65.8247C160.431 65.8247 160.102 65.8996 159.822 66.0493C159.549 66.1991 159.321 66.4074 159.139 66.6743C158.963 66.9347 158.829 67.2407 158.738 67.5923C158.647 67.9438 158.602 68.3215 158.602 68.7251Z" fill="#293066"/>
</svg>
