<svg width="184" height="80" viewBox="0 0 184 80" fill="none" xmlns="http://www.w3.org/2000/svg">
<path d="M34.2833 16.439H46.0133L58.8772 3.53597C59.2407 3.16949 59.6731 2.87861 60.1496 2.6801C60.6261 2.4816 61.1371 2.37939 61.6533 2.37939C62.1695 2.37939 62.6805 2.4816 63.157 2.6801C63.6335 2.87861 64.0659 3.16949 64.4294 3.53597L74.5172 13.6629C75.2454 14.3954 75.6542 15.3864 75.6542 16.4194C75.6542 17.4524 75.2454 18.4434 74.5172 19.176L65.5633 28.169H34.2833V35.9889C34.2833 37.0259 33.8714 38.0205 33.1381 38.7537C32.4048 39.487 31.4103 39.8989 30.3733 39.8989C29.3363 39.8989 28.3418 39.487 27.6085 38.7537C26.8753 38.0205 26.4633 37.0259 26.4633 35.9889V24.259C26.4633 22.185 27.2872 20.1959 28.7537 18.7294C30.2203 17.2628 32.2093 16.439 34.2833 16.439ZM10.8233 35.9889V51.6289L1.86942 60.5828C1.14118 61.3154 0.732422 62.3064 0.732422 63.3394C0.732422 64.3723 1.14118 65.3633 1.86942 66.0959L11.9572 76.2228C12.3207 76.5893 12.7532 76.8802 13.2296 77.0787C13.7061 77.2772 14.2171 77.3794 14.7333 77.3794C15.2495 77.3794 15.7605 77.2772 16.237 77.0787C16.7135 76.8802 17.1459 76.5893 17.5094 76.2228L34.2833 59.4489H49.9233C50.9603 59.4489 51.9548 59.037 52.6881 58.3037C53.4213 57.5705 53.8333 56.5759 53.8333 55.5389V51.6289H57.7433C58.7803 51.6289 59.7748 51.217 60.5081 50.4837C61.2413 49.7505 61.6533 48.7559 61.6533 47.7189V43.8089H65.5633C66.6003 43.8089 67.5948 43.397 68.3281 42.6637C69.0613 41.9305 69.4733 40.9359 69.4733 39.8989V35.9889H42.1033V39.8989C42.1033 41.9729 41.2794 43.962 39.8129 45.4285C38.3463 46.8951 36.3573 47.7189 34.2833 47.7189H26.4633C24.3893 47.7189 22.4003 46.8951 20.9337 45.4285C19.4672 43.962 18.6433 41.9729 18.6433 39.8989V28.169L10.8233 35.9889Z" fill="#293066"/>
<path d="M109.912 24.3872H113.521C114.678 24.3872 115.631 24.1919 116.381 23.8013C117.131 23.395 117.686 22.8325 118.045 22.1138C118.42 21.3794 118.607 20.5278 118.607 19.5591C118.607 18.6841 118.436 17.9106 118.092 17.2388C117.764 16.5513 117.256 16.02 116.568 15.645C115.881 15.2544 115.014 15.0591 113.967 15.0591C113.139 15.0591 112.373 15.2231 111.67 15.5513C110.967 15.8794 110.404 16.3403 109.982 16.9341C109.561 17.5278 109.35 18.2466 109.35 19.0903H102.576C102.576 17.2153 103.076 15.5825 104.076 14.1919C105.092 12.8013 106.451 11.7153 108.154 10.9341C109.857 10.1528 111.732 9.76221 113.779 9.76221C116.092 9.76221 118.115 10.1372 119.85 10.8872C121.584 11.6216 122.936 12.7075 123.904 14.145C124.873 15.5825 125.357 17.3638 125.357 19.4888C125.357 20.5669 125.107 21.6138 124.607 22.6294C124.107 23.6294 123.389 24.5356 122.451 25.3481C121.529 26.145 120.404 26.7856 119.076 27.27C117.748 27.7388 116.256 27.9731 114.6 27.9731H109.912V24.3872ZM109.912 29.52V26.0278H114.6C116.459 26.0278 118.092 26.2388 119.498 26.6606C120.904 27.0825 122.084 27.6919 123.037 28.4888C123.99 29.27 124.709 30.1997 125.193 31.2778C125.678 32.3403 125.92 33.52 125.92 34.8169C125.92 36.4106 125.615 37.8325 125.006 39.0825C124.396 40.3169 123.537 41.3638 122.428 42.2231C121.334 43.0825 120.053 43.7388 118.584 44.1919C117.115 44.6294 115.514 44.8481 113.779 44.8481C112.342 44.8481 110.928 44.6528 109.537 44.2622C108.162 43.856 106.912 43.2544 105.787 42.4575C104.678 41.645 103.787 40.6294 103.115 39.4106C102.459 38.1763 102.131 36.7153 102.131 35.0278H108.904C108.904 35.9028 109.123 36.6841 109.561 37.3716C109.998 38.0591 110.6 38.5981 111.365 38.9888C112.146 39.3794 113.014 39.5747 113.967 39.5747C115.045 39.5747 115.967 39.3794 116.732 38.9888C117.514 38.5825 118.107 38.02 118.514 37.3013C118.936 36.5669 119.146 35.7153 119.146 34.7466C119.146 33.4966 118.92 32.4966 118.467 31.7466C118.014 30.981 117.365 30.4185 116.521 30.0591C115.678 29.6997 114.678 29.52 113.521 29.52H109.912ZM153.529 24.3169V30.2231C153.529 32.7856 153.256 34.9966 152.709 36.856C152.162 38.6997 151.373 40.2153 150.342 41.4028C149.326 42.5747 148.115 43.4419 146.709 44.0044C145.303 44.5669 143.74 44.8481 142.021 44.8481C140.646 44.8481 139.365 44.6763 138.178 44.3325C136.99 43.9731 135.92 43.4185 134.967 42.6685C134.029 41.9185 133.217 40.9731 132.529 39.8325C131.857 38.6763 131.342 37.3013 130.982 35.7075C130.623 34.1138 130.443 32.2856 130.443 30.2231V24.3169C130.443 21.7544 130.717 19.5591 131.264 17.731C131.826 15.8872 132.615 14.3794 133.631 13.2075C134.662 12.0356 135.881 11.1763 137.287 10.6294C138.693 10.0669 140.256 9.78564 141.975 9.78564C143.35 9.78564 144.623 9.96533 145.795 10.3247C146.982 10.6685 148.053 11.2075 149.006 11.9419C149.959 12.6763 150.771 13.6216 151.443 14.7778C152.115 15.9185 152.631 17.2856 152.99 18.8794C153.35 20.4575 153.529 22.27 153.529 24.3169ZM146.756 31.1138V23.4028C146.756 22.1685 146.686 21.0903 146.545 20.1685C146.42 19.2466 146.225 18.4653 145.959 17.8247C145.693 17.1685 145.365 16.6372 144.975 16.231C144.584 15.8247 144.139 15.5278 143.639 15.3403C143.139 15.1528 142.584 15.0591 141.975 15.0591C141.209 15.0591 140.529 15.2075 139.936 15.5044C139.357 15.8013 138.865 16.2778 138.459 16.9341C138.053 17.5747 137.74 18.4341 137.521 19.5122C137.318 20.5747 137.217 21.8716 137.217 23.4028V31.1138C137.217 32.3481 137.279 33.4341 137.404 34.3716C137.545 35.3091 137.748 36.1138 138.014 36.7856C138.295 37.4419 138.623 37.981 138.998 38.4028C139.389 38.8091 139.834 39.106 140.334 39.2935C140.85 39.481 141.412 39.5747 142.021 39.5747C142.771 39.5747 143.436 39.4263 144.014 39.1294C144.607 38.8169 145.107 38.3325 145.514 37.6763C145.936 37.0044 146.248 36.1294 146.451 35.0513C146.654 33.9731 146.756 32.6606 146.756 31.1138ZM181.092 24.3169V30.2231C181.092 32.7856 180.818 34.9966 180.271 36.856C179.725 38.6997 178.936 40.2153 177.904 41.4028C176.889 42.5747 175.678 43.4419 174.271 44.0044C172.865 44.5669 171.303 44.8481 169.584 44.8481C168.209 44.8481 166.928 44.6763 165.74 44.3325C164.553 43.9731 163.482 43.4185 162.529 42.6685C161.592 41.9185 160.779 40.9731 160.092 39.8325C159.42 38.6763 158.904 37.3013 158.545 35.7075C158.186 34.1138 158.006 32.2856 158.006 30.2231V24.3169C158.006 21.7544 158.279 19.5591 158.826 17.731C159.389 15.8872 160.178 14.3794 161.193 13.2075C162.225 12.0356 163.443 11.1763 164.85 10.6294C166.256 10.0669 167.818 9.78564 169.537 9.78564C170.912 9.78564 172.186 9.96533 173.357 10.3247C174.545 10.6685 175.615 11.2075 176.568 11.9419C177.521 12.6763 178.334 13.6216 179.006 14.7778C179.678 15.9185 180.193 17.2856 180.553 18.8794C180.912 20.4575 181.092 22.27 181.092 24.3169ZM174.318 31.1138V23.4028C174.318 22.1685 174.248 21.0903 174.107 20.1685C173.982 19.2466 173.787 18.4653 173.521 17.8247C173.256 17.1685 172.928 16.6372 172.537 16.231C172.146 15.8247 171.701 15.5278 171.201 15.3403C170.701 15.1528 170.146 15.0591 169.537 15.0591C168.771 15.0591 168.092 15.2075 167.498 15.5044C166.92 15.8013 166.428 16.2778 166.021 16.9341C165.615 17.5747 165.303 18.4341 165.084 19.5122C164.881 20.5747 164.779 21.8716 164.779 23.4028V31.1138C164.779 32.3481 164.842 33.4341 164.967 34.3716C165.107 35.3091 165.311 36.1138 165.576 36.7856C165.857 37.4419 166.186 37.981 166.561 38.4028C166.951 38.8091 167.396 39.106 167.896 39.2935C168.412 39.481 168.975 39.5747 169.584 39.5747C170.334 39.5747 170.998 39.4263 171.576 39.1294C172.17 38.8169 172.67 38.3325 173.076 37.6763C173.498 37.0044 173.811 36.1294 174.014 35.0513C174.217 33.9731 174.318 32.6606 174.318 31.1138Z" fill="#293066"/>
<path d="M103.262 60.1606H105.742L109.395 70.6001L113.047 60.1606H115.527L110.391 74.3794H108.398L103.262 60.1606ZM101.924 60.1606H104.395L104.844 70.3364V74.3794H101.924V60.1606ZM114.395 60.1606H116.875V74.3794H113.945V70.3364L114.395 60.1606ZM122.236 63.813V74.3794H119.414V63.813H122.236ZM119.238 61.0591C119.238 60.6489 119.382 60.3104 119.668 60.0435C119.954 59.7765 120.339 59.6431 120.82 59.6431C121.296 59.6431 121.676 59.7765 121.963 60.0435C122.256 60.3104 122.402 60.6489 122.402 61.0591C122.402 61.4692 122.256 61.8078 121.963 62.0747C121.676 62.3416 121.296 62.4751 120.82 62.4751C120.339 62.4751 119.954 62.3416 119.668 62.0747C119.382 61.8078 119.238 61.4692 119.238 61.0591ZM129.736 63.813V65.8052H123.584V63.813H129.736ZM125.107 61.2056H127.92V71.1958C127.92 71.5018 127.959 71.7362 128.037 71.8989C128.122 72.0617 128.245 72.1756 128.408 72.2407C128.571 72.2993 128.776 72.3286 129.023 72.3286C129.199 72.3286 129.355 72.3221 129.492 72.3091C129.635 72.2896 129.756 72.27 129.854 72.2505L129.863 74.3208C129.622 74.3989 129.362 74.4608 129.082 74.5063C128.802 74.5519 128.493 74.5747 128.154 74.5747C127.536 74.5747 126.995 74.4738 126.533 74.272C126.077 74.0636 125.726 73.7316 125.479 73.2759C125.231 72.8201 125.107 72.2212 125.107 71.479V61.2056ZM134.15 66.1177V74.3794H131.338V63.813H133.984L134.15 66.1177ZM137.334 63.7446L137.285 66.3521C137.148 66.3325 136.982 66.3162 136.787 66.3032C136.598 66.2837 136.426 66.2739 136.27 66.2739C135.872 66.2739 135.527 66.326 135.234 66.4302C134.948 66.5278 134.707 66.6743 134.512 66.8696C134.323 67.0649 134.18 67.3026 134.082 67.5825C133.991 67.8625 133.939 68.1815 133.926 68.5396L133.359 68.3638C133.359 67.6802 133.428 67.0519 133.564 66.479C133.701 65.8996 133.9 65.395 134.16 64.9653C134.427 64.5356 134.753 64.2036 135.137 63.9692C135.521 63.7349 135.96 63.6177 136.455 63.6177C136.611 63.6177 136.771 63.6307 136.934 63.6567C137.096 63.6763 137.23 63.7056 137.334 63.7446ZM144.033 71.9966V67.2896C144.033 66.951 143.978 66.6613 143.867 66.4204C143.757 66.173 143.584 65.981 143.35 65.8442C143.122 65.7075 142.826 65.6392 142.461 65.6392C142.148 65.6392 141.878 65.6945 141.65 65.8052C141.423 65.9093 141.247 66.0623 141.123 66.2642C140.999 66.4595 140.938 66.6906 140.938 66.9575H138.125C138.125 66.5083 138.229 66.0819 138.438 65.6782C138.646 65.2746 138.949 64.9198 139.346 64.6138C139.743 64.3013 140.215 64.0571 140.762 63.8813C141.315 63.7056 141.934 63.6177 142.617 63.6177C143.438 63.6177 144.167 63.7544 144.805 64.0278C145.443 64.3013 145.944 64.7114 146.309 65.2583C146.68 65.8052 146.865 66.4888 146.865 67.3091V71.8306C146.865 72.41 146.901 72.8853 146.973 73.2563C147.044 73.6209 147.148 73.9399 147.285 74.2134V74.3794H144.443C144.307 74.0929 144.202 73.7349 144.131 73.3052C144.066 72.869 144.033 72.4328 144.033 71.9966ZM144.404 67.9438L144.424 69.5356H142.852C142.48 69.5356 142.158 69.578 141.885 69.6626C141.611 69.7472 141.387 69.8677 141.211 70.0239C141.035 70.1737 140.905 70.3494 140.82 70.5513C140.742 70.7531 140.703 70.9744 140.703 71.2153C140.703 71.4562 140.758 71.6743 140.869 71.8696C140.98 72.0584 141.139 72.2082 141.348 72.3188C141.556 72.423 141.8 72.4751 142.08 72.4751C142.503 72.4751 142.871 72.3905 143.184 72.2212C143.496 72.0519 143.737 71.8436 143.906 71.5962C144.082 71.3488 144.173 71.1144 144.18 70.8931L144.922 72.0845C144.818 72.3514 144.674 72.6281 144.492 72.9146C144.316 73.201 144.092 73.4712 143.818 73.7251C143.545 73.9725 143.216 74.1776 142.832 74.3403C142.448 74.4966 141.992 74.5747 141.465 74.5747C140.794 74.5747 140.186 74.4412 139.639 74.1743C139.098 73.9009 138.669 73.5265 138.35 73.0513C138.037 72.5695 137.881 72.0226 137.881 71.4106C137.881 70.8573 137.985 70.3657 138.193 69.936C138.402 69.5063 138.708 69.145 139.111 68.8521C139.521 68.5526 140.033 68.328 140.645 68.1782C141.257 68.022 141.966 67.9438 142.773 67.9438H144.404Z" fill="#293066"/>
</svg>
