<svg width="600" height="601" viewBox="0 0 600 601" fill="none" xmlns="http://www.w3.org/2000/svg">
<path d="M600 459.259H0V459.559H600V459.259Z" fill="#EBEBEB"/>
<path d="M539.881 478.567H500.137V478.867H539.881V478.567Z" fill="#EBEBEB"/>
<path d="M397.464 481.831H350.4V482.131H397.464V481.831Z" fill="#EBEBEB"/>
<path d="M498.936 467.431H430.512V467.731H498.936V467.431Z" fill="#EBEBEB"/>
<path d="M291.733 469.447H209.377V469.747H291.733V469.447Z" fill="#EBEBEB"/>
<path d="M310.008 469.447H302.412V469.747H310.008V469.447Z" fill="#EBEBEB"/>
<path d="M270.168 474.511H117.996V474.811H270.168V474.511Z" fill="#EBEBEB"/>
<path d="M284.4 405.739H52.6916C50.8764 405.736 49.1366 405.013 47.8542 403.728C46.5718 402.444 45.8516 400.703 45.8516 398.887V73.1714C45.8674 71.3666 46.5946 69.641 47.8753 68.3693C49.156 67.0975 50.8867 66.3825 52.6916 66.3794H284.4C286.217 66.3794 287.96 67.1013 289.245 68.3863C290.53 69.6713 291.252 71.4141 291.252 73.2314V398.887C291.252 400.705 290.53 402.448 289.245 403.733C287.96 405.018 286.217 405.739 284.4 405.739ZM52.6916 66.6194C50.9559 66.6226 49.2925 67.3143 48.0664 68.5427C46.8402 69.7711 46.1516 71.4358 46.1516 73.1714V398.887C46.1516 400.623 46.8402 402.288 48.0664 403.516C49.2925 404.745 50.9559 405.436 52.6916 405.439H284.4C286.136 405.436 287.801 404.745 289.029 403.517C290.257 402.289 290.948 400.624 290.952 398.887V73.1714C290.948 71.4347 290.257 69.77 289.029 68.5419C287.801 67.3139 286.136 66.6226 284.4 66.6194H52.6916Z" fill="#EBEBEB"/>
<path d="M543.972 405.739H312.252C310.436 405.736 308.695 405.013 307.411 403.729C306.127 402.445 305.404 400.704 305.4 398.887V73.1714C305.419 71.3655 306.149 69.6399 307.432 68.3685C308.714 67.0971 310.446 66.3825 312.252 66.3794H543.972C545.775 66.3856 547.503 67.1021 548.781 68.3735C550.059 69.6448 550.785 71.3687 550.8 73.1714V398.887C550.8 400.701 550.082 402.44 548.802 403.724C547.522 405.008 545.785 405.733 543.972 405.739ZM312.252 66.6194C310.516 66.6226 308.851 67.3139 307.623 68.5419C306.395 69.77 305.704 71.4347 305.7 73.1714V398.887C305.704 400.624 306.395 402.289 307.623 403.517C308.851 404.745 310.516 405.436 312.252 405.439H543.972C545.709 405.436 547.374 404.745 548.602 403.517C549.83 402.289 550.521 400.624 550.524 398.887V73.1714C550.521 71.4347 549.83 69.77 548.602 68.5419C547.374 67.3139 545.709 66.6226 543.972 66.6194H312.252Z" fill="#EBEBEB"/>
<path d="M94.0089 459.259H136.045L136.045 318.043H94.0089L94.0089 459.259Z" fill="#F5F5F5"/>
<path d="M93.9956 459.259H100.932L100.932 318.043H93.9956L93.9956 459.259Z" fill="#F0F0F0"/>
<path d="M289.188 322.711H129.564V358.039H289.188V322.711Z" fill="#E6E6E6"/>
<path d="M289.188 368.623H129.564V376.783H289.188V368.623Z" fill="#E6E6E6"/>
<path d="M279.852 318.043H93.9961V330.307H279.852V318.043Z" fill="#F0F0F0"/>
<path d="M279.853 459.259H321.889V318.043H279.853V459.259Z" fill="#F5F5F5"/>
<path d="M279.851 459.259H286.787V318.043H279.851V459.259Z" fill="#F0F0F0"/>
<path d="M413.111 459.259V241.051H340.955V459.259H413.111Z" fill="#F0F0F0"/>
<path d="M409.152 310.747V246.511H344.916V310.747H409.152Z" fill="#E6E6E6"/>
<path d="M409.152 380.755V316.519H344.916V380.755H409.152Z" fill="#E6E6E6"/>
<path d="M409.152 450.751V386.515H344.916V450.751H409.152Z" fill="#E6E6E6"/>
<path d="M370.188 310.759V246.523H344.928V310.759H370.188Z" fill="#E0E0E0"/>
<path d="M370.176 380.755V316.519H344.916V380.755H370.176Z" fill="#E0E0E0"/>
<path d="M370.188 450.763V386.527H344.927V450.763H370.188Z" fill="#E0E0E0"/>
<path d="M432.707 459.247V241.039H413.111V459.247H432.707Z" fill="#F5F5F5"/>
<path d="M490.26 459.259V241.051H418.104V459.259H490.26Z" fill="#F0F0F0"/>
<path d="M486.287 310.759V246.523H422.051V310.759H486.287Z" fill="#E6E6E6"/>
<path d="M486.301 380.755V316.519H422.065V380.755H486.301Z" fill="#E6E6E6"/>
<path d="M486.301 450.763V386.527H422.065V450.763H486.301Z" fill="#E6E6E6"/>
<path d="M447.336 310.759V246.523H422.076V310.759H447.336Z" fill="#E0E0E0"/>
<path d="M447.324 380.755V316.519H422.064V380.755H447.324Z" fill="#E0E0E0"/>
<path d="M447.324 450.751V386.515H422.064V450.751H447.324Z" fill="#E0E0E0"/>
<path d="M509.855 459.259V241.051H490.259V459.259H509.855Z" fill="#F5F5F5"/>
<path d="M465.903 305.888C472.379 299.411 472.379 288.911 465.903 282.434C459.426 275.958 448.926 275.958 442.449 282.434C435.973 288.911 435.973 299.411 442.449 305.888C448.926 312.364 459.426 312.364 465.903 305.888Z" fill="#F5F5F5"/>
<path d="M397.596 364.171C397.48 368.494 395.681 372.601 392.582 375.617C389.484 378.633 385.33 380.321 381.006 380.321C376.682 380.321 372.528 378.633 369.43 375.617C366.331 372.601 364.532 368.494 364.416 364.171H397.596Z" fill="#F0F0F0"/>
<path d="M397.596 351.763C397.656 353.98 397.271 356.185 396.464 358.25C395.657 360.315 394.444 362.197 392.898 363.786C391.352 365.375 389.503 366.637 387.46 367.499C385.418 368.361 383.223 368.806 381.006 368.806C378.789 368.806 376.595 368.361 374.552 367.499C372.51 366.637 370.661 365.375 369.114 363.786C367.568 362.197 366.355 360.315 365.549 358.25C364.742 356.185 364.357 353.98 364.416 351.763H397.596Z" fill="#F0F0F0"/>
<path d="M426.42 450.751H478.572V395.779H426.42V450.751Z" fill="#F0F0F0"/>
<path d="M486.288 395.779H478.572V450.751H486.288V395.779Z" fill="#E0E0E0"/>
<path d="M439.993 241.051H460.729V160.699H439.993V241.051Z" fill="#E6E6E6"/>
<path d="M383.771 241.051H452.591L462.983 146.995H394.163L383.771 241.051Z" fill="#F0F0F0"/>
<path d="M376.32 241.051H447.396L457.8 146.995H386.712L376.32 241.051Z" fill="#F5F5F5"/>
<path d="M426.911 241.051H440.711L424.811 146.995H411.023L426.911 241.051Z" fill="#FAFAFA"/>
<path d="M414.625 241.051H419.977L404.077 146.995H398.725L414.625 241.051Z" fill="#FAFAFA"/>
<path d="M247.129 285.991V105.187L85.1289 105.187V285.991H247.129Z" fill="#EBEBEB"/>
<path d="M248.592 285.979V105.175H247.128V285.979H248.592Z" fill="#E0E0E0"/>
<path d="M97.1289 273.979H235.129L235.129 117.175L97.1289 117.175L97.1289 273.979Z" fill="#F5F5F5"/>
<path d="M177.013 282.379H215.881V227.983H177.013V282.379Z" fill="white"/>
<path d="M120.012 263.227H158.868L161.664 208.831H122.808L120.012 263.227Z" fill="white"/>
<path d="M198.707 166.435H237.563L240.359 112.027H201.503L198.707 166.435Z" fill="white"/>
<path d="M147.652 197.569L186.471 199.271L188.853 144.927L150.034 143.226L147.652 197.569Z" fill="white"/>
<path d="M92.0119 182.461L130.852 181.335L129.276 126.962L90.4361 128.087L92.0119 182.461Z" fill="white"/>
<path d="M300 513.451C428.499 513.451 532.668 507.37 532.668 499.867C532.668 492.365 428.499 486.283 300 486.283C171.501 486.283 67.332 492.365 67.332 499.867C67.332 507.37 171.501 513.451 300 513.451Z" fill="#F5F5F5"/>
<path d="M185.904 490.399H195.18L198.888 468.931H189.612L185.904 490.399Z" fill="#FFC3BD"/>
<path d="M131.389 490.399H140.665L149.137 468.931H139.861L131.389 490.399Z" fill="#FFC3BD"/>
<path d="M141.96 489.331H130.656C130.472 489.334 130.292 489.397 130.146 489.509C129.999 489.621 129.892 489.778 129.84 489.955L127.524 498.199C127.467 498.388 127.454 498.588 127.486 498.783C127.519 498.977 127.597 499.162 127.713 499.321C127.83 499.481 127.982 499.611 128.157 499.702C128.333 499.792 128.527 499.841 128.724 499.843C132.324 499.783 135.036 499.567 139.608 499.567C142.428 499.567 148.212 499.867 152.112 499.867C156.012 499.867 156.732 496.015 155.16 495.667C148.104 494.107 145.56 491.947 143.376 489.895C142.99 489.54 142.486 489.339 141.96 489.331Z" fill="#263238"/>
<path d="M195.169 489.331H185.053C184.867 489.334 184.686 489.395 184.537 489.508C184.388 489.62 184.279 489.777 184.225 489.955L181.921 498.199C181.861 498.388 181.846 498.589 181.878 498.785C181.909 498.98 181.987 499.166 182.104 499.326C182.221 499.486 182.374 499.617 182.551 499.707C182.727 499.797 182.923 499.843 183.121 499.843C186.721 499.783 192.061 499.567 196.645 499.567C202.021 499.567 206.629 499.867 212.929 499.867C216.733 499.867 218.005 496.015 216.433 495.667C209.233 494.083 203.365 493.915 197.329 490.051C196.692 489.612 195.943 489.362 195.169 489.331Z" fill="#263238"/>
<path d="M194.688 224.887C199.584 227.959 204.732 231.055 209.808 233.995C214.884 236.935 220.044 239.791 225.204 242.263C226.488 242.899 227.772 243.463 229.056 244.039C229.692 244.327 230.328 244.555 230.964 244.819L231.924 245.215L232.704 245.503C234.352 246.222 236.172 246.451 237.948 246.163C239.886 245.675 241.626 244.597 242.928 243.079C243.777 242.167 244.551 241.188 245.244 240.151C245.604 239.611 245.952 239.047 246.276 238.471L247.2 236.779L253.992 238.339C253.892 239.243 253.744 240.14 253.548 241.027C253.356 241.867 253.14 242.707 252.876 243.547C252.353 245.269 251.64 246.927 250.752 248.491C249.773 250.199 248.561 251.762 247.152 253.135C245.618 254.649 243.82 255.869 241.848 256.735C239.816 257.616 237.64 258.112 235.428 258.199C233.357 258.294 231.283 258.087 229.272 257.587C228.816 257.479 228.264 257.359 227.88 257.227L226.68 256.855C225.9 256.603 225.096 256.363 224.34 256.087C222.828 255.523 221.268 254.995 219.816 254.371C214.024 251.973 208.371 249.253 202.884 246.223C200.16 244.735 197.472 243.211 194.832 241.603C192.192 239.995 189.588 238.411 186.936 236.623L194.688 224.887Z" fill="#FFC3BD"/>
<path d="M180.733 233.443C182.569 242.299 204.853 255.043 204.853 255.043L212.977 233.695C212.977 233.695 206.629 229.723 197.149 223.387C187.669 217.051 178.705 223.723 180.733 233.443Z" fill="#263238"/>
<path d="M244.621 240.199L251.065 230.083L255.865 241.099C255.865 241.099 252.049 246.883 246.157 243.907L244.621 240.199Z" fill="#FFC3BD"/>
<path d="M259.284 226.255L262.44 234.511L255.876 241.087L251.064 230.083L259.284 226.255Z" fill="#FFC3BD"/>
<path opacity="0.2" d="M198.889 468.943L196.969 480.007H187.705L189.613 468.943H198.889Z" fill="black"/>
<path opacity="0.2" d="M139.86 468.943H149.136L144.756 480.007H135.492L139.86 468.943Z" fill="black"/>
<path d="M191.484 221.179C191.484 221.179 204.36 247.723 197.832 301.147L148.632 307.603C147.744 300.043 149.832 262.327 139.908 227.467C145.249 225.705 150.696 224.282 156.216 223.207C163.121 221.892 170.097 220.979 177.108 220.471C181.911 220.325 186.719 220.562 191.484 221.179Z" fill="#263238"/>
<path opacity="0.2" d="M139.957 227.491L140.173 227.419C144.973 226.075 150.505 231.139 153.457 238.531C157.765 249.331 162.841 263.575 162.841 263.575L146.941 267.379C145.849 253.896 143.511 240.543 139.957 227.491Z" fill="black"/>
<path d="M156.612 199.255C158.424 205.855 160.632 218.095 156.264 223.255C161.924 227.976 168.864 230.901 176.196 231.655C180.792 226.771 177.156 220.531 177.156 220.531C169.524 219.703 169.32 214.075 170.244 208.639L156.612 199.255Z" fill="#FFC3BD"/>
<path d="M194.905 281.683L183.877 220.483C181.848 220.848 179.911 221.609 178.176 222.722C176.441 223.835 174.942 225.28 173.765 226.972C172.589 228.665 171.757 230.573 171.318 232.587C170.878 234.601 170.84 236.682 171.205 238.711L176.665 269.047C177.413 273.139 179.753 276.768 183.172 279.137C186.592 281.506 190.811 282.422 194.905 281.683Z" fill="#293066"/>
<path opacity="0.3" d="M194.905 281.683L183.877 220.483C181.848 220.848 179.911 221.609 178.176 222.722C176.441 223.835 174.942 225.28 173.765 226.972C172.589 228.665 171.757 230.573 171.318 232.587C170.878 234.601 170.84 236.682 171.205 238.711L176.665 269.047C177.413 273.139 179.753 276.768 183.172 279.137C186.592 281.506 190.811 282.422 194.905 281.683Z" fill="black"/>
<path d="M237.156 342.259L229.428 343.651C228.1 343.89 226.735 343.843 225.426 343.514C224.117 343.184 222.893 342.58 221.835 341.741C220.777 340.903 219.91 339.848 219.291 338.649C218.672 337.449 218.315 336.131 218.244 334.783L215.064 273.583C214.941 271.271 215.666 268.993 217.105 267.178C218.544 265.364 220.597 264.138 222.876 263.731L237.168 261.151C238.703 260.878 240.281 260.985 241.765 261.465C243.248 261.944 244.591 262.78 245.675 263.9C246.76 265.02 247.552 266.389 247.984 267.887C248.415 269.385 248.471 270.966 248.148 272.491L242.4 299.395C242.206 300.322 242.149 301.272 242.232 302.215L244.896 332.059C245.109 334.418 244.434 336.772 243.002 338.658C241.57 340.545 239.485 341.829 237.156 342.259Z" fill="#293066"/>
<path opacity="0.2" d="M237.169 261.127L222.877 263.695C220.6 264.107 218.55 265.334 217.112 267.147C215.674 268.961 214.947 271.236 215.065 273.547L216.109 293.863C225.533 292.263 234.981 290.931 244.453 289.867L248.149 272.443C248.471 270.92 248.413 269.34 247.981 267.844C247.548 266.348 246.755 264.981 245.671 263.863C244.586 262.746 243.244 261.912 241.761 261.435C240.279 260.957 238.702 260.852 237.169 261.127Z" fill="black"/>
<path d="M248.976 318.211L235.98 320.539L236.088 298.003L249.084 295.663L248.976 318.211Z" fill="#293066"/>
<path d="M250.944 306.583C250.944 312.811 250.032 318.019 248.976 318.199C247.92 318.379 247.08 313.507 247.104 307.279C247.128 301.051 248.016 295.855 249.084 295.663C250.152 295.471 250.98 300.379 250.944 306.583Z" fill="#293066"/>
<path opacity="0.2" d="M250.944 306.583C250.944 312.811 250.032 318.019 248.976 318.199C247.92 318.379 247.08 313.507 247.104 307.279C247.128 301.051 248.016 295.855 249.084 295.663C250.152 295.471 250.98 300.379 250.944 306.583Z" fill="black"/>
<path d="M195.84 205.231C191.569 206.011 187.782 208.452 185.308 212.02C182.833 215.587 181.874 219.99 182.64 224.263L192.408 278.539C193.185 282.812 195.626 286.601 199.194 289.076C202.762 291.551 207.167 292.509 211.44 291.739C243.336 286.006 275.725 283.469 308.124 284.167L341.448 284.899L320.112 166.303L289.128 178.603C258.998 190.567 227.746 199.488 195.84 205.231Z" fill="#8CA2CE"/>
<path d="M195.84 205.231C191.569 206.011 187.782 208.452 185.308 212.02C182.833 215.587 181.874 219.99 182.64 224.263L192.408 278.539C193.185 282.812 195.626 286.601 199.194 289.076C202.762 291.551 207.167 292.509 211.44 291.739C243.336 286.006 275.725 283.469 308.124 284.167L341.448 284.899L320.112 166.303L289.128 178.603C258.998 190.567 227.746 199.488 195.84 205.231Z" fill="black" fill-opacity="0.2"/>
<path opacity="0.3" d="M281.4 181.579L299.832 284.071C301.452 284.071 303.084 284.071 304.704 284.071L285.936 179.791C284.4 180.463 282.912 181.039 281.4 181.579Z" fill="black"/>
<path d="M335.784 224.779C341.676 257.527 344.184 284.479 341.424 284.983C338.664 285.487 331.62 259.339 325.728 226.591C319.836 193.843 317.328 166.891 320.088 166.387C322.848 165.883 329.892 191.971 335.784 224.779Z" fill="#293066"/>
<path opacity="0.2" d="M335.784 224.779C341.676 257.527 344.184 284.479 341.424 284.983C338.664 285.487 331.62 259.339 325.728 226.591C319.836 193.843 317.328 166.891 320.088 166.387C322.848 165.883 329.892 191.971 335.784 224.779Z" fill="black"/>
<path opacity="0.2" d="M162.168 203.071L170.232 208.603C169.997 209.862 169.873 211.139 169.86 212.419C166.968 212.419 162.804 209.731 162.276 206.755C162.018 205.544 161.981 204.296 162.168 203.071Z" fill="black"/>
<path d="M168.972 172.315C173.844 172.759 181.188 185.851 176.304 190.459C171.42 195.067 159.744 171.463 168.972 172.315Z" fill="#263238"/>
<path d="M151.873 190.987C154.717 199.627 155.929 204.847 161.569 207.943C170.041 212.599 179.905 205.087 179.725 195.619C179.569 187.099 174.925 174.403 165.397 173.659C163.237 173.527 161.077 173.923 159.105 174.813C157.132 175.702 155.405 177.058 154.074 178.764C152.743 180.47 151.847 182.474 151.463 184.604C151.08 186.733 151.22 188.924 151.873 190.987Z" fill="#FFC3BD"/>
<path d="M175.2 170.911C172.832 170.428 170.414 170.239 168 170.347C169.403 169.054 170.677 167.627 171.804 166.087C169.548 167.633 167.043 168.782 164.4 169.483C164.842 168.378 165.117 167.213 165.216 166.027C163.38 168.235 160.26 169.735 156.888 170.995C158.326 169.204 159.435 167.173 160.164 164.995C158.064 168.871 150.18 172.195 145.212 175.495H145.14C144.791 175.702 144.458 175.935 144.144 176.191C143.738 176.477 143.388 176.835 143.112 177.247C142.642 177.767 142.288 178.381 142.074 179.047C141.86 179.714 141.79 180.419 141.87 181.115C141.949 181.811 142.176 182.482 142.535 183.084C142.894 183.685 143.377 184.203 143.952 184.603C143.043 185.248 142.393 186.194 142.119 187.274C141.844 188.353 141.962 189.495 142.452 190.495C142.38 188.815 142.776 186.979 143.988 186.235C141.948 192.139 148.788 197.707 154.884 199.279C158.484 200.191 160.692 186.415 157.284 180.967C161.904 180.379 165.852 179.227 168.216 177.595C166.436 178.173 164.548 178.333 162.696 178.063C167.136 176.311 171.912 173.839 175.68 174.463C173.865 173.803 171.947 173.474 170.016 173.491C171.293 172.968 172.656 172.687 174.036 172.663C178.08 172.831 180.744 176.263 179.712 178.567C181.26 176.083 180.696 172.075 175.2 170.911Z" fill="#263238"/>
<path d="M150.408 201.979C151.251 202.723 152.237 203.286 153.306 203.635C154.375 203.984 155.504 204.11 156.624 204.007C159.66 203.719 160.224 200.695 158.64 198.367C157.176 196.279 153.84 193.903 151.152 195.355C150.573 195.664 150.078 196.109 149.709 196.652C149.341 197.195 149.11 197.82 149.037 198.472C148.964 199.124 149.05 199.784 149.289 200.395C149.528 201.006 149.912 201.55 150.408 201.979Z" fill="#FFC3BD"/>
<path d="M197.833 301.171C197.833 301.171 223.033 370.447 220.357 398.707C217.609 428.119 200.581 477.907 200.581 477.907H184.873C184.873 477.907 194.089 429.907 195.073 400.999C196.141 369.523 167.293 329.719 165.529 305.467L197.833 301.171Z" fill="#293066"/>
<path opacity="0.2" d="M172.129 325.051C171.564 324.688 170.95 324.409 170.305 324.223C175.825 339.091 184.765 356.431 190.261 373.351C190.861 345.379 184.801 332.923 172.129 325.051Z" fill="black"/>
<path d="M180.396 303.463C180.396 303.463 187.596 371.983 180.288 398.515C172.284 427.579 149.244 477.859 149.244 477.859H132.264C132.264 477.859 147.048 429.979 152.328 401.179C158.064 369.979 150.372 330.847 148.728 307.651L180.396 303.463Z" fill="#293066"/>
<path d="M152.232 478.231H130.668L132.12 471.871H155.208L152.232 478.231Z" fill="#293066"/>
<path opacity="0.4" d="M152.232 478.231H130.668L132.12 471.871H155.208L152.232 478.231Z" fill="black"/>
<path d="M204.061 478.231H182.725L183.073 472.183L205.249 471.871L204.061 478.231Z" fill="#293066"/>
<path opacity="0.4" d="M204.061 478.231H182.725L183.073 472.183L205.249 471.871L204.061 478.231Z" fill="black"/>
<path d="M165.923 189.175C166.103 189.883 166.643 190.375 167.123 190.195C167.603 190.015 167.819 189.343 167.639 188.623C167.459 187.903 166.919 187.423 166.439 187.603C165.959 187.783 165.731 188.455 165.923 189.175Z" fill="#263238"/>
<path d="M174 186.571C174.192 187.291 174.72 187.771 175.2 187.603C175.68 187.435 175.908 186.739 175.716 186.031C175.524 185.323 174.996 184.831 174.516 184.999C174.036 185.167 173.868 185.851 174 186.571Z" fill="#263238"/>
<path d="M171.6 187.759C173.023 189.67 174.717 191.364 176.628 192.787C176.237 193.294 175.742 193.711 175.177 194.011C174.612 194.311 173.99 194.487 173.352 194.527L171.6 187.759Z" fill="#ED847E"/>
<path d="M171.743 197.179C170.811 197.519 169.809 197.623 168.827 197.48C167.844 197.338 166.913 196.954 166.115 196.363C166.094 196.343 166.078 196.319 166.066 196.292C166.055 196.265 166.049 196.237 166.049 196.207C166.049 196.178 166.055 196.149 166.066 196.123C166.078 196.096 166.094 196.072 166.115 196.051C166.156 196.012 166.209 195.991 166.265 195.991C166.321 195.991 166.375 196.012 166.415 196.051C167.163 196.587 168.03 196.934 168.941 197.062C169.853 197.189 170.781 197.094 171.647 196.783C171.674 196.774 171.703 196.771 171.731 196.773C171.759 196.776 171.786 196.784 171.811 196.797C171.836 196.811 171.858 196.829 171.875 196.852C171.892 196.874 171.905 196.9 171.911 196.927C171.917 196.982 171.903 197.037 171.872 197.083C171.842 197.129 171.796 197.163 171.743 197.179Z" fill="#263238"/>
<path d="M162.792 187.339C162.702 187.363 162.606 187.363 162.516 187.339C162.462 187.32 162.413 187.289 162.371 187.249C162.329 187.21 162.296 187.162 162.274 187.109C162.251 187.057 162.24 187 162.24 186.942C162.241 186.885 162.253 186.828 162.276 186.775C162.524 186.105 162.923 185.5 163.441 185.007C163.959 184.514 164.582 184.146 165.264 183.931C165.319 183.917 165.377 183.914 165.433 183.923C165.489 183.932 165.543 183.952 165.592 183.983C165.64 184.013 165.681 184.053 165.714 184.1C165.746 184.146 165.769 184.199 165.78 184.255C165.796 184.372 165.77 184.491 165.706 184.59C165.642 184.689 165.545 184.762 165.432 184.795C164.885 184.965 164.384 185.257 163.968 185.65C163.552 186.044 163.232 186.527 163.032 187.063C162.989 187.182 162.904 187.281 162.792 187.339Z" fill="#263238"/>
<path d="M176.892 182.647C176.816 182.673 176.733 182.676 176.655 182.657C176.576 182.638 176.505 182.597 176.448 182.539C176.106 182.116 175.663 181.784 175.16 181.574C174.657 181.365 174.11 181.284 173.568 181.339C173.514 181.352 173.457 181.352 173.402 181.341C173.347 181.329 173.295 181.306 173.25 181.273C173.205 181.24 173.167 181.198 173.139 181.15C173.111 181.101 173.094 181.047 173.088 180.991C173.077 180.875 173.108 180.758 173.177 180.663C173.245 180.568 173.346 180.501 173.46 180.475C174.13 180.39 174.81 180.474 175.439 180.72C176.068 180.965 176.625 181.364 177.06 181.879C177.14 181.964 177.184 182.075 177.184 182.191C177.184 182.307 177.14 182.419 177.06 182.503C177.021 182.568 176.962 182.619 176.892 182.647Z" fill="#263238"/>
<path d="M149.832 234.979C150.864 238.999 151.944 243.223 153.108 247.315C154.272 251.407 155.436 255.523 156.708 259.555C157.98 263.587 159.396 267.571 160.896 271.435C162.3 275.164 163.997 278.775 165.972 282.235C166.212 282.607 166.44 283.039 166.68 283.375L167.052 283.915L167.232 284.179C167.575 284.595 167.98 284.955 168.432 285.247C169.958 286.305 171.562 287.244 173.232 288.055C176.832 289.843 180.756 291.487 184.716 293.035C192.66 296.131 200.892 299.035 209.052 301.819L207.468 308.599C198.665 307.325 189.946 305.53 181.356 303.223C176.942 302.048 172.599 300.622 168.348 298.951C166.004 298.037 163.74 296.929 161.58 295.639C160.165 294.791 158.873 293.754 157.74 292.555L157.2 291.979L156.9 291.595L156.288 290.803C155.868 290.275 155.544 289.759 155.172 289.231C152.546 285.258 150.288 281.052 148.428 276.667C146.556 272.479 144.972 268.267 143.496 263.983C140.55 255.524 138.079 246.906 136.092 238.171L149.832 234.979Z" fill="#FFC3BD"/>
<path d="M134.461 232.591C129.901 243.223 137.317 267.475 137.317 267.475L159.517 261.775C158.145 253.218 156.168 244.769 153.601 236.491C149.761 225.127 138.001 224.407 134.461 232.591Z" fill="#263238"/>
<path d="M144.937 490.951C144.127 490.931 143.322 490.819 142.537 490.615C142.496 490.604 142.46 490.581 142.432 490.549C142.404 490.517 142.386 490.477 142.381 490.435C142.38 490.392 142.39 490.349 142.411 490.311C142.432 490.273 142.463 490.241 142.501 490.219C142.849 490.003 145.945 488.167 146.941 488.695C147.052 488.756 147.142 488.847 147.202 488.957C147.262 489.068 147.288 489.194 147.277 489.319C147.295 489.546 147.257 489.774 147.167 489.983C147.077 490.192 146.938 490.376 146.761 490.519C146.217 490.861 145.576 491.013 144.937 490.951ZM143.185 490.303C144.267 490.665 145.446 490.605 146.485 490.135C146.602 490.04 146.694 489.919 146.755 489.781C146.815 489.644 146.842 489.494 146.833 489.343C146.837 489.292 146.827 489.24 146.803 489.193C146.78 489.147 146.745 489.107 146.701 489.079C146.185 488.779 144.433 489.607 143.185 490.303Z" fill="#293066"/>
<path d="M142.572 490.615H142.464C142.432 490.595 142.406 490.567 142.389 490.533C142.372 490.499 142.365 490.461 142.368 490.423C142.368 490.303 142.764 487.627 143.892 486.751C144.021 486.641 144.173 486.559 144.336 486.511C144.5 486.464 144.671 486.451 144.84 486.475C145.002 486.471 145.159 486.526 145.283 486.63C145.407 486.734 145.489 486.879 145.512 487.039C145.644 488.083 143.676 490.111 142.68 490.639C142.642 490.645 142.604 490.636 142.572 490.615ZM144.672 486.859C144.484 486.865 144.302 486.933 144.156 487.051C143.463 487.878 143.022 488.886 142.884 489.955C143.88 489.235 145.152 487.699 145.068 487.087C145.068 487.087 145.068 486.907 144.768 486.871L144.672 486.859Z" fill="#293066"/>
<path d="M198.936 490.951C197.963 490.931 196.995 490.819 196.044 490.615C195.999 490.61 195.958 490.589 195.927 490.556C195.897 490.523 195.878 490.48 195.876 490.435C195.872 490.388 195.882 490.341 195.906 490.3C195.929 490.26 195.965 490.227 196.008 490.207C196.44 489.991 200.268 488.095 201.36 488.731C201.462 488.789 201.547 488.873 201.606 488.974C201.665 489.075 201.696 489.19 201.696 489.307C201.704 489.51 201.665 489.713 201.582 489.898C201.499 490.083 201.373 490.247 201.216 490.375C200.542 490.817 199.739 491.02 198.936 490.951ZM196.788 490.303C198.816 490.639 200.388 490.555 200.94 490.051C201.044 489.966 201.127 489.858 201.181 489.735C201.235 489.612 201.26 489.478 201.252 489.343C201.256 489.298 201.246 489.252 201.225 489.212C201.204 489.172 201.172 489.138 201.132 489.115C200.532 488.779 198.36 489.571 196.8 490.303H196.788Z" fill="#293066"/>
<path d="M196.081 490.615C196.042 490.627 196 490.627 195.961 490.615C195.93 490.592 195.906 490.561 195.891 490.525C195.876 490.489 195.872 490.45 195.877 490.411C196.046 489.072 196.619 487.816 197.521 486.811C197.858 486.536 198.287 486.399 198.721 486.427C199.321 486.499 199.477 486.799 199.513 487.051C199.621 488.095 197.281 490.099 196.141 490.651L196.081 490.615ZM198.565 486.859C198.279 486.859 198.003 486.961 197.785 487.147C197.048 487.94 196.563 488.934 196.393 490.003C197.593 489.319 199.177 487.747 199.105 487.111C199.105 487.111 199.105 486.907 198.697 486.871L198.565 486.859Z" fill="#293066"/>
<path d="M207.288 301.663L216.564 300.139L212.832 311.671C212.832 311.671 204.744 311.203 204.756 306.787L207.288 301.663Z" fill="#FFC3BD"/>
<path d="M225.348 304.423L221.796 313.735L212.832 311.671L216.564 300.139L225.348 304.423Z" fill="#FFC3BD"/>
<path d="M470.796 172.615L457.2 122.095C456.936 121.11 456.48 120.187 455.858 119.378C455.237 118.57 454.462 117.891 453.578 117.382C452.695 116.873 451.719 116.542 450.708 116.41C449.697 116.278 448.669 116.346 447.684 116.611L349.284 143.011C347.294 143.548 345.598 144.854 344.57 146.64C343.541 148.427 343.265 150.549 343.8 152.539L357.384 203.059C357.919 205.049 359.221 206.746 361.005 207.776C362.789 208.807 364.91 209.087 366.9 208.555L380.784 204.823L399.9 215.827L395.832 200.779L465.312 182.107C467.295 181.57 468.984 180.271 470.011 178.492C471.039 176.714 471.321 174.601 470.796 172.615Z" fill="#293066"/>
<path opacity="0.2" d="M470.796 172.615L457.2 122.095C456.936 121.11 456.48 120.187 455.858 119.378C455.237 118.57 454.462 117.891 453.578 117.382C452.695 116.873 451.719 116.542 450.708 116.41C449.697 116.278 448.669 116.346 447.684 116.611L349.284 143.011C347.294 143.548 345.598 144.854 344.57 146.64C343.541 148.427 343.265 150.549 343.8 152.539L357.384 203.059C357.919 205.049 359.221 206.746 361.005 207.776C362.789 208.807 364.91 209.087 366.9 208.555L380.784 204.823L399.9 215.827L395.832 200.779L465.312 182.107C467.295 181.57 468.984 180.271 470.011 178.492C471.039 176.714 471.321 174.601 470.796 172.615Z" fill="white"/>
<path d="M510.889 278.395L516.145 244.195C516.352 242.849 516.015 241.476 515.21 240.378C514.404 239.28 513.195 238.546 511.849 238.339L445.201 228.091C444.534 227.987 443.854 228.016 443.198 228.176C442.542 228.336 441.925 228.624 441.381 229.023C440.836 229.422 440.377 229.925 440.027 230.502C439.678 231.08 439.446 231.72 439.345 232.387L434.077 266.587C433.87 267.934 434.207 269.307 435.012 270.405C435.818 271.503 437.027 272.237 438.373 272.444L447.769 273.895L456.397 285.655L457.969 275.455L504.985 282.655C505.653 282.765 506.335 282.742 506.994 282.587C507.652 282.432 508.274 282.148 508.822 281.752C509.371 281.356 509.836 280.856 510.191 280.28C510.545 279.704 510.783 279.064 510.889 278.395Z" fill="#293066"/>
<path opacity="0.3" d="M510.889 278.395L516.145 244.195C516.352 242.849 516.015 241.476 515.21 240.378C514.404 239.28 513.195 238.546 511.849 238.339L445.201 228.091C444.534 227.987 443.854 228.016 443.198 228.176C442.542 228.336 441.925 228.624 441.381 229.023C440.836 229.422 440.377 229.925 440.027 230.502C439.678 231.08 439.446 231.72 439.345 232.387L434.077 266.587C433.87 267.934 434.207 269.307 435.012 270.405C435.818 271.503 437.027 272.237 438.373 272.444L447.769 273.895L456.397 285.655L457.969 275.455L504.985 282.655C505.653 282.765 506.335 282.742 506.994 282.587C507.652 282.432 508.274 282.148 508.822 281.752C509.371 281.356 509.836 280.856 510.191 280.28C510.545 279.704 510.783 279.064 510.889 278.395Z" fill="white"/>
<path d="M508.524 222.955L499.956 161.755C499.617 159.342 498.333 157.161 496.387 155.694C494.44 154.227 491.99 153.593 489.576 153.931L370.284 170.611C367.87 170.951 365.69 172.235 364.223 174.181C362.756 176.128 362.122 178.577 362.46 180.991L371.028 242.191C371.193 243.387 371.593 244.538 372.203 245.579C372.814 246.619 373.625 247.529 374.588 248.256C375.551 248.983 376.648 249.513 377.817 249.815C378.985 250.116 380.202 250.185 381.396 250.015L398.196 247.615L419.016 263.323L416.46 245.059L500.664 233.287C503.074 232.954 505.253 231.679 506.726 229.743C508.199 227.807 508.845 225.367 508.524 222.955Z" fill="#293066"/>
<path d="M382.117 197.491L388.873 196.543L399.493 208.255L397.681 195.307L404.497 194.359L407.773 217.759L400.957 218.719L390.397 207.091L392.197 219.943L385.393 220.891L382.117 197.491Z" fill="white"/>
<path d="M409.285 193.687L428.677 190.975L429.373 195.979L417.241 197.671L417.757 201.391L429.013 199.819L429.685 204.619L418.429 206.191L419.065 210.799L431.557 209.059L432.301 214.351L412.561 217.111L409.285 193.687Z" fill="white"/>
<path d="M430.512 190.723L437.376 189.763L441.684 202.519L443.472 188.911L450.312 187.951L455.772 200.527L456.42 187.099L463.248 186.139L461.364 210.271L454.272 211.255L448.104 197.095L446.076 212.407L438.984 213.391L430.512 190.723Z" fill="white"/>
<path d="M466.537 201.643L473.365 200.251C473.551 201.141 473.965 201.968 474.565 202.651C475.014 203.069 475.556 203.375 476.146 203.544C476.737 203.713 477.358 203.74 477.961 203.623C478.826 203.56 479.638 203.18 480.241 202.555C480.47 202.32 480.645 202.036 480.75 201.725C480.856 201.413 480.891 201.082 480.853 200.755C480.8 200.444 480.681 200.147 480.503 199.886C480.325 199.625 480.092 199.406 479.821 199.243C478.601 198.686 477.274 198.399 475.933 198.403C473.417 198.348 470.95 197.698 468.733 196.507C467.999 196.048 467.378 195.431 466.915 194.7C466.452 193.969 466.158 193.143 466.057 192.283C465.883 191.053 466.084 189.798 466.633 188.683C467.249 187.443 468.218 186.412 469.417 185.719C471.16 184.778 473.073 184.195 475.045 184.003C477.422 183.518 479.891 183.765 482.125 184.711C483.034 185.229 483.821 185.936 484.432 186.785C485.043 187.634 485.463 188.605 485.665 189.631L478.909 190.987C478.694 190.119 478.174 189.357 477.445 188.839C476.678 188.427 475.792 188.292 474.937 188.455C474.253 188.5 473.607 188.785 473.113 189.259C472.936 189.442 472.803 189.662 472.724 189.903C472.645 190.144 472.622 190.4 472.657 190.651C472.691 190.848 472.769 191.035 472.885 191.197C473.002 191.359 473.153 191.492 473.329 191.587C474.13 191.941 474.998 192.117 475.873 192.103C478.268 192.199 480.644 192.573 482.953 193.219C484.251 193.621 485.41 194.378 486.301 195.403C487.073 196.363 487.563 197.518 487.717 198.739C487.933 200.213 487.703 201.718 487.057 203.059C486.387 204.461 485.318 205.634 483.985 206.431C482.29 207.392 480.415 207.992 478.477 208.195C474.477 208.755 471.613 208.355 469.885 206.995C468.174 205.661 466.989 203.766 466.537 201.643Z" fill="white"/>
</svg>
