<svg width="600" height="448" viewBox="0 0 600 448" fill="none" xmlns="http://www.w3.org/2000/svg">
<path d="M527.172 118.887C527.497 116.957 527.394 114.979 526.871 113.092C526.348 111.206 525.418 109.457 524.145 107.969C522.873 106.482 521.289 105.291 519.506 104.482C517.724 103.674 515.785 103.266 513.828 103.287C513.092 103.29 512.357 103.354 511.632 103.479C510.081 100.891 507.807 98.8138 505.089 97.5039C502.371 96.1939 499.329 95.7087 496.338 96.1082C493.348 96.5077 490.54 97.7744 488.261 99.7519C485.982 101.729 484.333 104.331 483.516 107.235C482.551 106.94 481.548 106.791 480.54 106.791C477.879 106.791 475.327 107.848 473.446 109.73C471.565 111.611 470.508 114.163 470.508 116.823C470.511 117.533 470.587 118.241 470.736 118.935L527.172 118.887Z" fill="#F0F0F0"/>
<path d="M173.999 65.4754C174.198 64.2855 174.303 63.0817 174.311 61.8754C174.311 55.7043 171.86 49.786 167.496 45.4224C163.133 41.0588 157.214 38.6074 151.043 38.6074C149.78 38.6158 148.52 38.7282 147.275 38.9434C144.614 34.4971 140.709 30.9274 136.042 28.6751C131.375 26.4228 126.151 25.5864 121.014 26.2692C115.877 26.952 111.053 29.124 107.136 32.5172C103.22 35.9104 100.383 40.3762 98.9753 45.3634C96.0972 44.4613 93.0327 44.3311 90.0884 44.9857C87.1441 45.6402 84.4234 47.0566 82.1986 49.0931C79.9738 51.1296 78.3229 53.7147 77.4111 56.5898C76.4994 59.4648 76.3587 62.5289 77.0033 65.4754H173.999Z" fill="#F0F0F0"/>
<path d="M600 393.723H0V394.023H600V393.723Z" fill="#EBEBEB"/>
<path d="M539.881 413.031H500.137V413.331H539.881V413.031Z" fill="#EBEBEB"/>
<path d="M397.463 416.295H387.035V416.595H397.463V416.295Z" fill="#EBEBEB"/>
<path d="M498.936 401.896H475.908V402.196H498.936V401.896Z" fill="#EBEBEB"/>
<path d="M114.779 403.912H62.9512V404.212H114.779V403.912Z" fill="#EBEBEB"/>
<path d="M133.069 403.912H125.473V404.212H133.069V403.912Z" fill="#EBEBEB"/>
<path d="M270.18 408.976H157.764V409.276H270.18V408.976Z" fill="#EBEBEB"/>
<path d="M284.4 340.203H52.6916C50.8764 340.2 49.1366 339.477 47.8542 338.192C46.5718 336.908 45.8516 335.167 45.8516 333.352V7.63551C45.8674 5.83074 46.5946 4.10508 47.8753 2.83337C49.156 1.56166 50.8867 0.846598 52.6916 0.843506H284.4C286.217 0.843506 287.96 1.56541 289.245 2.85041C290.53 4.13541 291.252 5.87824 291.252 7.69551V333.352C291.252 335.169 290.53 336.912 289.245 338.197C287.96 339.482 286.217 340.203 284.4 340.203ZM52.6916 1.08351C50.9559 1.08669 49.2925 1.77838 48.0664 3.00678C46.8402 4.23517 46.1516 5.89988 46.1516 7.63551V333.352C46.1516 335.087 46.8402 336.752 48.0664 337.98C49.2925 339.209 50.9559 339.9 52.6916 339.904H284.4C286.136 339.9 287.801 339.209 289.029 337.981C290.257 336.753 290.948 335.088 290.952 333.352V7.63551C290.948 5.89878 290.257 4.2341 289.029 3.00605C287.801 1.77799 286.136 1.08668 284.4 1.08351H52.6916Z" fill="#EBEBEB"/>
<path d="M543.972 340.203H312.252C310.436 340.2 308.695 339.477 307.411 338.193C306.127 336.909 305.404 335.168 305.4 333.352V7.63551C305.419 5.82964 306.149 4.104 307.432 2.83262C308.714 1.56124 310.446 0.846564 312.252 0.843506H543.972C545.775 0.849751 547.503 1.5662 548.781 2.83758C550.059 4.10895 550.785 5.83281 550.8 7.63551V333.352C550.8 335.165 550.082 336.904 548.802 338.188C547.522 339.472 545.785 340.197 543.972 340.203ZM312.252 1.08351C310.516 1.08668 308.851 1.77799 307.623 3.00605C306.395 4.2341 305.704 5.89878 305.7 7.63551V333.352C305.704 335.088 306.395 336.753 307.623 337.981C308.851 339.209 310.516 339.9 312.252 339.904H543.972C545.709 339.9 547.374 339.209 548.602 337.981C549.83 336.753 550.521 335.088 550.524 333.352V7.63551C550.521 5.89878 549.83 4.2341 548.602 3.00605C547.374 1.77799 545.709 1.08668 543.972 1.08351H312.252Z" fill="#EBEBEB"/>
<path d="M45.4922 358.996V279.22H83.9162V257.404H102.312V193.288L126.072 169.528H174.312V238.228H240.492V251.8H287.28V233.968H337.548V220.528H376.8V140.944H446.292V191.656H462.288V210.028H499.476V240.16H519.348L534.636 255.448V271H549.864V358.996H45.4922Z" fill="#F0F0F0"/>
<path d="M92.2922 279.219H84.5762L83.9162 278.763V279.219H45.4922V358.995H92.2922V279.219Z" fill="#E6E6E6"/>
<path d="M287.951 239.776V251.8H286.055L284.039 264.664L289.739 358.996H353.135V233.968H338.219H288.851L287.951 239.776Z" fill="#E6E6E6"/>
<path d="M435.539 210.028V358.996H550.523V271H535.295V255.448L520.007 240.16H500.135V210.028H466.379H462.947H435.539Z" fill="#E6E6E6"/>
<path d="M520.081 248.248H513.133V255.196H520.081V248.248Z" fill="white"/>
<path d="M507.803 248.248H500.855V255.196H507.803V248.248Z" fill="white"/>
<path d="M520.081 261.196H513.133V268.144H520.081V261.196Z" fill="white"/>
<path d="M507.803 261.196H500.855V268.144H507.803V261.196Z" fill="white"/>
<path d="M482.136 215.632H475.188V222.58H482.136V215.632Z" fill="white"/>
<path d="M469.86 215.632H462.912V222.58H469.86V215.632Z" fill="white"/>
<path d="M84.2273 290.463H77.2793V297.411H84.2273V290.463Z" fill="white"/>
<path d="M71.9519 290.463H65.0039V297.411H71.9519V290.463Z" fill="white"/>
<path d="M345.133 261.34V254.392H338.185V261.34H345.133Z" fill="white"/>
<path d="M345.133 249.063V242.115H338.185V249.063H345.133Z" fill="white"/>
<path d="M297.672 447.916C426.171 447.916 530.34 441.834 530.34 434.332C530.34 426.829 426.171 420.748 297.672 420.748C169.173 420.748 65.0039 426.829 65.0039 434.332C65.0039 441.834 169.173 447.916 297.672 447.916Z" fill="#F5F5F5"/>
<path d="M532.236 375.171H466.68V429.387H532.236V375.171Z" fill="#293066"/>
<path opacity="0.3" d="M532.236 375.171H466.68V429.387H532.236V375.171Z" fill="white"/>
<path d="M482.843 375.171H432.035V429.387H482.843V375.171Z" fill="#293066"/>
<path opacity="0.1" d="M482.843 375.171H432.035V429.387H482.843V375.171Z" fill="white"/>
<path opacity="0.3" d="M464.628 375.171H450.252V392.043H464.628V375.171Z" fill="white"/>
<path opacity="0.1" d="M518.267 375.171H503.891V392.043H518.267V375.171Z" fill="black"/>
<path d="M504.671 407.079H502.775C502.745 406.528 502.745 405.975 502.775 405.423C502.775 404.559 503.435 402.891 504.635 403.647C505.007 403.875 505.439 403.347 505.067 403.119C504.798 402.957 504.493 402.865 504.18 402.85C503.866 402.835 503.554 402.898 503.271 403.034C502.988 403.17 502.743 403.373 502.558 403.627C502.373 403.881 502.254 404.176 502.211 404.487C502.051 405.333 502.011 406.198 502.091 407.055H500.999C500.567 407.055 500.447 407.715 500.891 407.727H502.091C502.091 408.783 502.091 409.839 502.091 410.895C502.091 411.339 502.775 411.255 502.775 410.823C502.775 409.791 502.775 408.771 502.775 407.739H504.551C504.995 407.763 505.115 407.091 504.671 407.079Z" fill="white"/>
<path d="M507.815 405.591C507.768 405.58 507.719 405.58 507.671 405.591C504.563 405.363 505.055 410.451 508.031 410.391C508.667 410.3 509.246 409.975 509.657 409.481C510.067 408.986 510.279 408.357 510.251 407.715C510.261 407.406 510.202 407.099 510.078 406.815C509.955 406.532 509.77 406.279 509.536 406.076C509.303 405.873 509.028 405.724 508.73 405.64C508.433 405.556 508.12 405.54 507.815 405.591ZM508.283 409.659C506.039 410.247 505.319 406.059 507.623 406.311C507.694 406.331 507.769 406.331 507.839 406.311C509.999 405.987 509.999 409.203 508.283 409.659Z" fill="white"/>
<path d="M515.232 406.851C514.308 403.851 509.652 406.311 510.984 409.047C511.324 409.584 511.847 409.978 512.457 410.157C513.066 410.336 513.72 410.287 514.296 410.019C514.585 409.908 514.845 409.734 515.058 409.509C515.271 409.285 515.432 409.016 515.528 408.722C515.625 408.428 515.655 408.117 515.616 407.81C515.577 407.503 515.47 407.208 515.304 406.947L515.232 406.851ZM511.524 408.567C510.888 406.743 513.924 404.967 514.596 407.127C514.603 407.165 514.619 407.201 514.642 407.232C514.665 407.263 514.694 407.289 514.728 407.307C515.904 409.407 512.172 410.463 511.524 408.567Z" fill="white"/>
<path d="M520.44 410.163C520.236 407.403 520.044 404.643 519.84 401.895C519.84 401.451 519.132 401.535 519.156 401.967L519.408 405.447C519.044 405.33 518.658 405.297 518.279 405.351C517.901 405.405 517.539 405.545 517.223 405.761C516.907 405.976 516.644 406.261 516.455 406.594C516.266 406.926 516.155 407.298 516.132 407.679C516.036 409.539 518.196 410.175 519.732 409.971V410.235C519.792 410.667 520.476 410.595 520.44 410.163ZM516.84 407.979C516.82 407.68 516.874 407.379 516.996 407.105C517.119 406.83 517.306 406.59 517.543 406.404C517.779 406.219 518.057 406.093 518.353 406.04C518.649 405.986 518.953 406.005 519.24 406.095C519.307 406.113 519.377 406.113 519.444 406.095C519.528 407.151 519.6 408.207 519.684 409.275C518.64 409.419 516.996 409.203 516.816 407.979H516.84Z" fill="white"/>
<path d="M299.963 49.4556H138.023C128.082 49.4556 120.023 57.5144 120.023 67.4556V405.304C120.023 415.245 128.082 423.304 138.023 423.304H299.963C309.905 423.304 317.963 415.245 317.963 405.304V67.4556C317.963 57.5144 309.905 49.4556 299.963 49.4556Z" fill="#263238"/>
<path d="M305.172 74.3796H132.828V375.052H305.172V74.3796Z" fill="#293066"/>
<path opacity="0.3" d="M305.172 345.244H132.828V375.04H305.172V345.244Z" fill="white"/>
<path opacity="0.1" d="M305.172 198.1C261.36 241.672 180.228 323.176 132.828 370.9V375.1H229.128L305.172 299.068V198.1Z" fill="white"/>
<path opacity="0.1" d="M132.828 225.58L284.028 74.3796H213.324C194.604 92.9556 162.624 124.996 132.828 154.9V225.58Z" fill="white"/>
<path opacity="0.1" d="M132.828 288.784L305.172 116.44V79.5637L132.828 251.896V288.784Z" fill="white"/>
<path opacity="0.2" d="M305.172 74.3796H132.828V87.9396H305.172V74.3796Z" fill="black"/>
<path d="M220.9 407.272C227.304 406.233 231.653 400.198 230.614 393.794C229.574 387.39 223.54 383.04 217.135 384.08C210.731 385.12 206.382 391.154 207.421 397.559C208.461 403.963 214.496 408.312 220.9 407.272Z" fill="#293066"/>
<g opacity="0.6">
<path opacity="0.6" d="M151.462 84.2676H154.066V80.7876H151.462V84.2676Z" fill="white"/>
<path opacity="0.6" d="M147.214 84.2676H149.818V79.6356H147.214V84.2676Z" fill="white"/>
<path opacity="0.6" d="M142.966 84.2676H145.57V78.4716H142.966V84.2676Z" fill="white"/>
<path opacity="0.6" d="M138.718 84.2676H141.322V77.3076H138.718V84.2676Z" fill="white"/>
</g>
<path opacity="0.6" d="M286.884 79.5156H285.336V82.9956H286.884V79.5156Z" fill="white"/>
<path opacity="0.6" d="M287.951 84.2676H300.275V78.2556H287.951V84.2676Z" fill="white"/>
<path opacity="0.4" d="M227.579 254.044C223.631 250.444 218.999 255.244 218.999 255.244C218.999 255.244 214.379 250.444 210.419 253.984C204.779 259.036 212.975 268.072 218.999 269.884C225.023 268.12 233.219 259.084 227.579 254.044Z" fill="white"/>
<path d="M268.355 279.244H169.643C166.657 279.244 163.794 280.43 161.684 282.54C159.573 284.651 158.387 287.514 158.387 290.5C158.387 293.485 159.573 296.348 161.684 298.459C163.794 300.57 166.657 301.756 169.643 301.756H268.355C271.34 301.756 274.203 300.57 276.314 298.459C278.425 296.348 279.611 293.485 279.611 290.5C279.611 287.514 278.425 284.651 276.314 282.54C274.203 280.43 271.34 279.244 268.355 279.244Z" fill="white"/>
<path d="M186.443 296.488V284.548H190.799C191.671 284.533 192.537 284.696 193.343 285.028C194.035 285.317 194.657 285.75 195.167 286.3C195.659 286.849 196.031 287.494 196.259 288.196C196.787 289.752 196.787 291.439 196.259 292.996C196 293.703 195.59 294.345 195.059 294.88C194.534 295.399 193.91 295.807 193.223 296.08C192.458 296.375 191.644 296.522 190.823 296.512L186.443 296.488ZM194.255 290.488C194.256 289.955 194.18 289.426 194.027 288.916C193.882 288.474 193.649 288.066 193.343 287.716C193.038 287.366 192.656 287.091 192.227 286.912C191.757 286.711 191.25 286.613 190.739 286.624H188.735V294.484H190.799C191.319 294.494 191.835 294.392 192.311 294.184C192.732 293.991 193.105 293.708 193.403 293.356C193.71 292.983 193.942 292.556 194.087 292.096C194.223 291.575 194.279 291.037 194.255 290.5V290.488Z" fill="#E0E0E0"/>
<path d="M203.412 296.572C202.583 296.586 201.761 296.409 201.012 296.056C200.322 295.726 199.706 295.261 199.2 294.688C198.179 293.54 197.611 292.06 197.604 290.524C197.6 289.738 197.751 288.959 198.048 288.232C198.325 287.519 198.732 286.864 199.248 286.3C199.768 285.736 200.397 285.284 201.096 284.968C201.821 284.632 202.612 284.463 203.412 284.476C204.223 284.462 205.025 284.643 205.752 285.004C206.458 285.354 207.087 285.844 207.6 286.444C208.116 287.017 208.522 287.68 208.8 288.4C209.079 289.102 209.222 289.851 209.22 290.608C209.224 291.388 209.077 292.162 208.788 292.888C208.508 293.595 208.101 294.246 207.588 294.808C207.073 295.369 206.448 295.819 205.752 296.128C205.015 296.451 204.215 296.602 203.412 296.572ZM199.98 290.572C199.981 291.077 200.062 291.579 200.22 292.06C200.368 292.523 200.595 292.957 200.892 293.344C201.192 293.706 201.558 294.007 201.972 294.232C202.426 294.458 202.928 294.573 203.436 294.568C203.949 294.575 204.456 294.455 204.912 294.22C205.331 293.994 205.699 293.683 205.992 293.308C206.284 292.921 206.507 292.486 206.652 292.024C206.804 291.555 206.881 291.065 206.88 290.572C206.88 290.062 206.799 289.556 206.64 289.072C206.492 288.605 206.26 288.17 205.956 287.788C205.664 287.42 205.295 287.121 204.876 286.912C204.418 286.694 203.918 286.581 203.412 286.581C202.905 286.581 202.405 286.694 201.948 286.912C201.529 287.138 201.161 287.449 200.868 287.824C200.578 288.207 200.354 288.637 200.208 289.096C200.063 289.558 199.987 290.039 199.98 290.524V290.572Z" fill="#E0E0E0"/>
<path d="M213.263 288.844V296.488H210.959V284.548H212.747L218.903 292.384V284.572H221.207V296.488H219.347L213.263 288.844Z" fill="#E0E0E0"/>
<path d="M227.039 284.548H229.067L233.567 296.488H231.167L230.063 293.512H225.935L224.855 296.488H222.455L227.039 284.548ZM229.691 291.88L228.059 287.188L226.355 291.88H229.691Z" fill="#E0E0E0"/>
<path d="M242.544 286.588H238.8V296.488H236.52V286.588H232.74V284.548H242.58L242.544 286.588Z" fill="#E0E0E0"/>
<path d="M252.228 294.448V296.488H244.008V284.548H252.072V286.588H246.312V289.456H251.292V291.34H246.312V294.448H252.228Z" fill="#E0E0E0"/>
<path opacity="0.3" d="M317.976 156.112L281.82 161.26L291.264 228.436L317.976 225.724V156.112Z" fill="#263238"/>
<path opacity="0.7" d="M220.667 240.148C257.423 240.148 287.219 210.351 287.219 173.596C287.219 136.84 257.423 107.044 220.667 107.044C183.912 107.044 154.115 136.84 154.115 173.596C154.115 210.351 183.912 240.148 220.667 240.148Z" fill="white"/>
<path d="M244.536 132.904C244.536 132.904 258.132 153.016 265.764 153.832C273.396 154.648 303.252 128.968 303.252 128.968L308.316 133.348C308.316 133.348 279.912 164.548 268.056 166.372C256.2 168.196 233.664 144.7 233.664 144.7L244.536 132.904Z" fill="#E4897B"/>
<path d="M241.295 134.404C241.295 134.404 246.095 129.7 252.695 137.872C259.295 146.044 262.007 147.712 262.007 147.712L245.207 164.116C245.207 164.116 235.331 138.772 241.295 134.404Z" fill="#293066"/>
<path d="M300.887 127.108C300.887 127.108 301.475 119.56 303.227 119.08C304.979 118.6 304.355 124.18 304.355 124.18C304.355 124.18 313.595 118.54 315.455 119.044C317.315 119.548 317.015 123.196 316.655 124.18C313.835 132.58 303.755 136.06 303.755 136.06L299.688 132.22L300.887 127.108Z" fill="#E4897B"/>
<path d="M231.599 112.936C231.599 112.936 240.875 128.392 238.031 138.136C235.187 147.88 220.559 139.12 220.559 139.12L220.739 119.92L231.599 112.936Z" fill="#263238"/>
<path d="M206.723 86.2957C206.723 86.2957 193.007 93.2436 198.395 117.688C207.419 158.668 220.739 141.688 220.739 141.688C220.739 141.688 220.151 125.536 214.739 117.688C209.327 109.84 210.455 98.6437 210.455 98.6437L206.723 86.2957Z" fill="#263238"/>
<path d="M246.503 194.56L205.379 198.16C204.98 187.966 203.512 177.842 200.999 167.956C200.015 164.02 198.791 159.616 197.207 154.54C196.355 151.816 195.419 148.9 194.375 145.768C193.595 143.368 192.743 140.86 191.807 138.184C197.393 136.398 203.099 135.014 208.883 134.044C214.98 132.952 221.148 132.302 227.339 132.1C235.343 132.028 244.535 132.928 244.535 132.928C244.535 132.928 245.843 133.24 246.671 141.724C247.415 149.644 248.147 165.592 246.503 194.56Z" fill="#293066"/>
<path opacity="0.2" d="M246.503 194.56L205.379 198.16C204.98 187.966 203.512 177.842 200.999 167.956C200.015 164.02 198.791 159.616 197.207 154.54C196.355 151.816 195.419 148.9 194.375 145.768C193.595 143.368 192.743 140.86 191.807 138.184C197.393 136.398 203.099 135.014 208.883 134.044C214.98 132.952 221.148 132.302 227.339 132.1C235.343 132.028 244.535 132.928 244.535 132.928C244.535 132.928 245.843 133.24 246.671 141.724C247.415 149.644 248.147 165.592 246.503 194.56Z" fill="white"/>
<path opacity="0.2" d="M205.199 195.028C211.787 192.46 233.507 181.828 233.507 181.828L204.707 188.332C204.839 190.516 205.019 192.724 205.199 195.028Z" fill="black"/>
<path d="M223.956 141.148C213.816 139.852 210.756 135.532 210.756 135.532C217.188 129.46 211.848 118.948 211.848 118.948L224.04 121.228C223.761 122.926 223.604 124.643 223.572 126.364C223.476 133.768 226.824 133.84 226.824 133.84C228.972 137.848 223.956 141.148 223.956 141.148Z" fill="#E4897B"/>
<path opacity="0.2" d="M224.051 121.228C223.772 122.926 223.616 124.643 223.583 126.364C215.339 126.364 211.859 118.948 211.859 118.948L224.051 121.228Z" fill="black"/>
<path d="M218.581 87.0757C229.189 86.4877 231.589 91.5757 232.981 102.46C234.709 116.068 232.261 126.376 218.845 124.192C204.121 121.792 199.993 98.4757 208.849 89.5597C210.925 87.4477 215.209 87.2437 218.581 87.0757Z" fill="#E4897B"/>
<path d="M226.127 103.84C227.061 105.376 228.177 106.794 229.451 108.064C229.167 108.519 228.762 108.888 228.281 109.127C227.8 109.366 227.262 109.468 226.727 109.42L226.127 103.84Z" fill="#DE5753"/>
<path d="M219.708 102.616C220.156 102.389 220.518 102.022 220.74 101.572L218.904 102.46C218.636 102.615 218.423 102.85 218.294 103.131C218.166 103.413 218.127 103.727 218.184 104.032C218.244 104.908 218.772 105.568 219.384 105.532C219.996 105.496 220.38 104.74 220.32 103.876C220.29 103.391 220.07 102.938 219.708 102.616Z" fill="#263238"/>
<path d="M230.003 101.644C230.452 101.417 230.814 101.05 231.035 100.6L229.211 101.488C228.943 101.646 228.729 101.883 228.599 102.166C228.468 102.448 228.426 102.764 228.479 103.072C228.551 103.948 229.079 104.608 229.679 104.56C230.279 104.512 230.675 103.78 230.603 102.904C230.596 102.664 230.539 102.428 230.435 102.211C230.332 101.994 230.185 101.801 230.003 101.644Z" fill="#263238"/>
<path d="M219.696 97.7198C218.852 97.6659 218.006 97.8055 217.224 98.1278C216.443 98.4502 215.744 98.9468 215.184 99.5798" stroke="#263238" stroke-width="0.707336" stroke-linecap="round" stroke-linejoin="round"/>
<path d="M226.139 97.2876C226.792 96.9194 227.519 96.7034 228.267 96.6556C229.015 96.6079 229.764 96.7295 230.459 97.0116" stroke="#263238" stroke-width="0.707336" stroke-linecap="round" stroke-linejoin="round"/>
<path d="M201.371 136.648C201.371 136.648 213.275 146.308 224.351 146.152C235.427 145.996 239.327 133.54 239.327 133.54C239.327 133.54 222.143 128.452 201.371 136.648Z" fill="#E4897B"/>
<path d="M183.864 160.768C183.864 160.768 180.12 182.848 180.564 189.136C181.008 195.424 190.512 195.616 195.864 194.98C202.02 194.248 234.12 181.552 234.12 181.552L232.632 175.204C232.632 175.204 207.504 182.044 196.8 183.244C196.3 183.295 195.795 183.231 195.323 183.057C194.851 182.883 194.425 182.604 194.078 182.24C193.731 181.877 193.471 181.439 193.319 180.96C193.167 180.48 193.126 179.973 193.2 179.476L195.684 163.084L183.864 160.768Z" fill="#E4897B"/>
<path d="M191.807 138.136C191.807 138.136 198.371 136.684 199.643 147.112C200.413 153.426 199.588 159.834 197.243 165.748L180.611 162.748C180.611 162.748 184.439 138.676 191.807 138.136Z" fill="#293066"/>
<path d="M240.828 168.844C240.418 168.595 239.934 168.497 239.46 168.568C237.492 169.072 231.516 174.988 231.168 175.768L232.704 181.372C232.704 181.372 235.848 183.052 237.372 182.572C238.896 182.092 246.624 176.404 246.636 175.036C246.645 174.96 246.645 174.883 246.636 174.808C246.912 174.604 247.14 174.436 247.296 174.34C248.604 173.524 243.768 169.912 240.828 168.844Z" fill="#E4897B"/>
<path d="M217.955 87.1116C217.955 87.1116 219.311 100.408 208.223 100.888C197.135 101.368 206.399 88.9716 206.399 88.9716L217.955 87.1116Z" fill="#263238"/>
<path d="M215.58 83.0077C197.352 83.5837 198.864 110.248 208.716 117.688C208.716 117.688 203.916 111.232 206.7 105.616C206.7 105.616 210.3 96.9277 209.1 90.2437C211.918 89.0207 214.911 88.2473 217.968 87.9516C220.02 90.4476 225.168 98.0317 231.912 97.8757C232.302 99.0515 232.603 100.255 232.812 101.476C232.812 101.476 233.832 82.4437 215.58 83.0077Z" fill="#263238"/>
<path d="M228.888 114.532C227.856 115.08 226.71 115.377 225.542 115.398C224.374 115.419 223.218 115.163 222.168 114.652C222.138 114.635 222.112 114.613 222.091 114.587C222.07 114.561 222.055 114.53 222.046 114.498C222.037 114.465 222.035 114.431 222.039 114.398C222.044 114.365 222.055 114.333 222.072 114.304C222.085 114.275 222.105 114.249 222.129 114.229C222.154 114.208 222.182 114.193 222.212 114.184C222.243 114.175 222.275 114.172 222.306 114.176C222.338 114.18 222.368 114.191 222.396 114.208C223.373 114.676 224.447 114.907 225.531 114.885C226.615 114.862 227.678 114.584 228.636 114.076C228.693 114.045 228.76 114.038 228.823 114.056C228.886 114.074 228.939 114.115 228.972 114.172C229.002 114.227 229.008 114.293 228.99 114.353C228.972 114.414 228.931 114.465 228.876 114.496L228.888 114.532Z" fill="#263238"/>
<path d="M208.559 107.764C208.389 106.542 207.742 105.438 206.759 104.693C205.775 103.948 204.537 103.624 203.315 103.792C200.051 104.32 198.851 111.16 207.119 112.336C208.295 112.504 208.895 111.316 208.559 107.764Z" fill="#E4897B"/>
<path d="M207.324 156.256L218.364 154.696C218.364 154.696 221.964 166.468 215.412 167.728C208.248 169.12 207.324 156.256 207.324 156.256Z" fill="#293066"/>
<path d="M248.915 219.688C248.363 214.24 247.499 206.824 246.395 200.992L246.503 194.56L205.379 198.16L205.007 204.16C204.047 205.936 199.847 214.732 197.951 236.248C206.503 239.35 215.601 240.667 224.682 240.118C233.763 239.569 242.635 237.166 250.751 233.056L248.915 219.688Z" fill="#263238"/>
<path d="M353.207 199.827L332.291 205.131C330.676 204.132 328.757 203.74 326.879 204.027C323.915 204.579 316.499 210.639 316.787 211.527C317.075 212.415 326.015 216.531 327.299 216.195C331.907 214.995 336.659 209.631 336.659 209.631L355.355 205.779L353.207 199.827Z" fill="#E4897B"/>
<path d="M405.599 124.611C401.351 129.135 390.095 128.751 390.095 128.751C390.095 128.751 386.387 129.075 385.463 125.931C389.531 124.923 390.155 121.995 390.791 119.463C391.104 117.899 391.104 116.288 390.791 114.723C390.66 113.841 390.476 112.967 390.239 112.107L403.307 100.743C402.095 107.643 400.799 120.051 405.599 124.611Z" fill="#E4897B"/>
<path opacity="0.2" d="M400.692 107.523C400.8 115.923 394.14 118.731 390.828 119.463C391.141 117.899 391.141 116.288 390.828 114.723L400.692 107.523Z" fill="black"/>
<path d="M401.77 109.371C400.5 111.62 398.525 113.388 396.151 114.405C393.777 115.422 391.135 115.631 388.63 114.999C385.373 114.252 382.526 112.285 380.674 109.503C380.409 109.119 380.168 108.719 379.954 108.303C375.934 100.647 373.762 86.8834 381.73 81.0274C383.483 79.7128 385.543 78.8706 387.715 78.5818C389.886 78.293 392.096 78.5671 394.131 79.378C396.166 80.1889 397.958 81.5092 399.336 83.2123C400.714 84.9153 401.63 86.944 401.998 89.1034C403.726 98.2834 405.19 103.599 401.77 109.371Z" fill="#E4897B"/>
<path d="M388.354 95.7033C388.481 95.9831 388.496 96.3008 388.395 96.591C388.295 96.8812 388.087 97.1218 387.814 97.2634C387.334 97.3834 386.794 96.8793 386.614 96.1473C386.434 95.4153 386.674 94.7073 387.154 94.5873C387.634 94.4673 388.162 94.9593 388.354 95.7033Z" fill="#263238"/>
<path d="M380.256 97.4074C380.496 98.1274 380.196 98.8474 379.728 98.9674C379.26 99.0874 378.696 98.5834 378.528 97.8514C378.36 97.1194 378.588 96.4114 379.068 96.2914C379.548 96.1714 380.076 96.7114 380.256 97.4074Z" fill="#263238"/>
<path d="M383.171 97.6353C382.94 100.047 382.371 102.415 381.479 104.667C382.679 105.147 384.359 104.391 385.499 103.767L383.171 97.6353Z" fill="#DE5753"/>
<path d="M390.754 91.7673C390.679 91.797 390.597 91.8059 390.517 91.7933C390.436 91.7806 390.361 91.7468 390.298 91.6953C389.868 91.3349 389.36 91.08 388.814 90.9508C388.269 90.8216 387.7 90.8218 387.154 90.9513C387.098 90.9759 387.036 90.9885 386.975 90.9881C386.913 90.9878 386.852 90.9745 386.796 90.9493C386.739 90.924 386.689 90.8872 386.647 90.8413C386.606 90.7954 386.575 90.7414 386.555 90.6827C386.536 90.624 386.529 90.562 386.535 90.5005C386.541 90.439 386.56 90.3795 386.591 90.3257C386.621 90.2719 386.662 90.2251 386.712 90.1882C386.761 90.1512 386.818 90.1251 386.878 90.1113C387.564 89.9368 388.28 89.9263 388.97 90.0806C389.661 90.2349 390.305 90.5496 390.85 90.9993C390.897 91.0347 390.936 91.0789 390.966 91.1294C390.995 91.18 391.014 91.2358 391.022 91.2938C391.03 91.3518 391.026 91.4108 391.011 91.4673C390.996 91.5239 390.97 91.5769 390.934 91.6233C390.883 91.681 390.822 91.7296 390.754 91.7673Z" fill="#263238"/>
<path d="M387.215 107.403C388.307 107.287 389.356 106.913 390.276 106.312C391.196 105.711 391.961 104.901 392.507 103.947C392.521 103.92 392.529 103.89 392.531 103.859C392.534 103.828 392.529 103.797 392.519 103.768C392.509 103.739 392.493 103.712 392.473 103.689C392.452 103.667 392.427 103.648 392.399 103.635C392.373 103.621 392.344 103.612 392.315 103.609C392.286 103.606 392.256 103.609 392.228 103.618C392.2 103.627 392.174 103.642 392.151 103.662C392.129 103.681 392.111 103.705 392.099 103.731C391.58 104.608 390.865 105.352 390.008 105.904C389.152 106.456 388.179 106.801 387.167 106.911C387.135 106.913 387.105 106.921 387.077 106.934C387.049 106.948 387.024 106.967 387.004 106.991C386.984 107.014 386.969 107.042 386.959 107.072C386.95 107.101 386.947 107.132 386.951 107.163C386.954 107.193 386.962 107.222 386.977 107.249C386.991 107.276 387.01 107.299 387.034 107.318C387.057 107.337 387.084 107.351 387.113 107.36C387.142 107.368 387.173 107.371 387.203 107.367L387.215 107.403Z" fill="#263238"/>
<path d="M376.176 95.2593C376.105 95.3174 376.015 95.3473 375.924 95.3433C375.867 95.3333 375.812 95.3119 375.763 95.2803C375.715 95.2486 375.673 95.2075 375.64 95.1593C375.608 95.1112 375.585 95.0569 375.574 94.9999C375.563 94.9428 375.564 94.8842 375.576 94.8273C375.706 94.1296 376 93.4728 376.434 92.9115C376.868 92.3501 377.429 91.9003 378.072 91.5993C378.126 91.578 378.184 91.5676 378.243 91.5687C378.301 91.5698 378.359 91.5824 378.412 91.6058C378.466 91.6292 378.514 91.663 378.555 91.7051C378.595 91.7472 378.627 91.7969 378.648 91.8513C378.669 91.9057 378.68 91.9637 378.679 92.0221C378.678 92.0805 378.665 92.1381 378.641 92.1916C378.618 92.2451 378.584 92.2935 378.542 92.3339C378.5 92.3744 378.45 92.4061 378.396 92.4273C377.894 92.6789 377.458 93.0442 377.123 93.4943C376.787 93.9443 376.562 94.4666 376.464 95.0193C376.435 95.077 376.395 95.1281 376.345 95.1694C376.296 95.2107 376.238 95.2413 376.176 95.2593Z" fill="#263238"/>
<path d="M407.806 95.5233C407.314 97.8271 405.935 99.8446 403.966 101.139C401.338 102.819 399.166 100.695 399.07 97.7433C399.07 95.1153 400.366 90.9873 403.378 90.5433C406.39 90.0993 408.358 92.6913 407.806 95.5233Z" fill="#E4897B"/>
<path d="M366.479 131.739C361.983 136.021 358.675 141.396 356.879 147.339C354.623 154.539 352.511 171.495 351.479 180.699C351.263 182.477 350.48 184.137 349.245 185.434C348.011 186.73 346.392 187.595 344.627 187.899L319.355 192.303L321.371 205.155L353.387 202.071C356.814 201.741 360.042 200.315 362.593 198.004C365.144 195.693 366.882 192.62 367.547 189.243C369.503 179.343 372.119 164.991 373.307 153.627C375.323 134.319 373.199 129.747 366.479 131.739Z" fill="#293066"/>
<path opacity="0.1" d="M366.479 131.739C361.983 136.021 358.675 141.396 356.879 147.339C354.623 154.539 352.511 171.495 351.479 180.699C351.263 182.477 350.48 184.137 349.245 185.434C348.011 186.73 346.392 187.595 344.627 187.899L319.355 192.303L321.371 205.155L353.387 202.071C356.814 201.741 360.042 200.315 362.593 198.004C365.144 195.693 366.882 192.62 367.547 189.243C369.503 179.343 372.119 164.991 373.307 153.627C375.323 134.319 373.199 129.747 366.479 131.739Z" fill="black"/>
<path d="M348.731 417.363L339.227 415.023L344.639 394.659L354.143 396.999L348.731 417.363Z" fill="#E4897B"/>
<path d="M339.323 411.735L350.123 415.623C350.3 415.688 350.449 415.811 350.546 415.973C350.642 416.135 350.679 416.325 350.651 416.511L349.559 425.043C349.508 425.41 349.315 425.742 349.02 425.967C348.726 426.192 348.354 426.291 347.987 426.243C347.884 426.229 347.783 426.2 347.687 426.159C344.219 424.851 341.759 423.759 337.379 422.139C334.679 421.155 326.435 418.539 322.715 417.159C318.995 415.779 319.835 411.963 321.515 412.167C328.895 413.151 334.787 412.947 337.679 411.771C338.203 411.554 338.79 411.541 339.323 411.735Z" fill="#2E353A"/>
<path d="M335.819 412.227C335.198 412.063 334.654 411.685 334.283 411.159C334.172 410.964 334.113 410.742 334.113 410.517C334.113 410.292 334.172 410.071 334.283 409.875C334.325 409.752 334.401 409.643 334.504 409.562C334.606 409.481 334.73 409.431 334.859 409.419C336.059 409.263 338.255 412.059 338.459 412.383C338.487 412.417 338.502 412.46 338.502 412.503C338.502 412.547 338.487 412.589 338.459 412.623C338.442 412.664 338.411 412.698 338.372 412.72C338.333 412.741 338.288 412.75 338.243 412.743C337.419 412.66 336.606 412.487 335.819 412.227ZM335.159 409.911C335.065 409.887 334.966 409.887 334.871 409.911C334.871 409.911 334.715 409.911 334.643 410.103C334.575 410.237 334.539 410.385 334.539 410.535C334.539 410.686 334.575 410.834 334.643 410.967C335.48 411.774 336.59 412.237 337.751 412.263C337.045 411.322 336.165 410.523 335.159 409.911Z" fill="#293066"/>
<path d="M338.208 412.731H338.1C337.368 411.903 336.3 409.311 336.816 408.447C336.903 408.302 337.038 408.191 337.198 408.134C337.357 408.078 337.532 408.078 337.692 408.135C337.86 408.17 338.019 408.241 338.158 408.342C338.296 408.444 338.411 408.574 338.496 408.723C339.216 409.923 338.496 412.563 338.496 412.695C338.484 412.733 338.463 412.767 338.433 412.792C338.403 412.818 338.366 412.834 338.328 412.839C338.301 412.831 338.276 412.817 338.256 412.799C338.235 412.78 338.219 412.757 338.208 412.731ZM337.716 408.495H337.62C337.344 408.399 337.272 408.555 337.236 408.603C336.912 409.143 337.512 411.003 338.172 412.047C338.496 411.02 338.496 409.919 338.172 408.891C338.127 408.798 338.063 408.714 337.985 408.646C337.906 408.578 337.815 408.527 337.716 408.495Z" fill="#293066"/>
<path opacity="0.2" d="M354.143 396.999L344.639 394.659L341.855 405.171L351.359 407.499L354.143 396.999Z" fill="black"/>
<path d="M411.66 417.267L401.94 418.419L399.84 397.455L409.56 396.303L411.66 417.267Z" fill="#E4897B"/>
<path d="M400.871 415.311L412.331 415.155C412.52 415.156 412.704 415.22 412.852 415.337C413 415.455 413.104 415.619 413.147 415.803L415.115 424.203C415.194 424.564 415.128 424.942 414.93 425.254C414.732 425.566 414.419 425.788 414.059 425.871C413.956 425.884 413.851 425.884 413.747 425.871C410.039 425.871 407.339 425.667 402.683 425.727C399.815 425.727 391.175 426.171 387.215 426.231C383.255 426.291 382.679 422.367 384.299 421.995C391.499 420.315 396.995 418.047 399.299 415.923C399.723 415.521 400.287 415.302 400.871 415.311Z" fill="#2E353A"/>
<path d="M397.775 417.003C397.133 417.067 396.488 416.905 395.951 416.547C395.774 416.406 395.637 416.221 395.553 416.011C395.468 415.801 395.44 415.572 395.471 415.347C395.464 415.217 395.496 415.087 395.562 414.974C395.628 414.861 395.726 414.77 395.843 414.711C396.887 414.159 399.959 415.995 400.295 416.199C400.334 416.219 400.365 416.251 400.385 416.29C400.404 416.329 400.41 416.373 400.403 416.415C400.399 416.461 400.381 416.504 400.35 416.539C400.32 416.573 400.28 416.597 400.235 416.607C399.433 416.835 398.608 416.968 397.775 417.003ZM396.347 415.071C396.247 415.06 396.146 415.081 396.059 415.131C395.999 415.131 395.927 415.215 395.915 415.395C395.899 415.545 395.919 415.696 395.973 415.835C396.027 415.975 396.114 416.1 396.227 416.199C397.291 416.664 398.492 416.706 399.587 416.319C398.598 415.698 397.498 415.274 396.347 415.071Z" fill="#293066"/>
<path d="M400.175 416.643H400.067C399.095 416.127 397.187 414.075 397.367 413.043C397.396 412.876 397.482 412.724 397.612 412.614C397.741 412.504 397.906 412.444 398.075 412.443C398.244 412.42 398.416 412.432 398.579 412.479C398.742 412.527 398.894 412.609 399.023 412.72C400.127 413.596 400.391 416.32 400.403 416.428C400.405 416.468 400.396 416.508 400.377 416.544C400.358 416.58 400.33 416.61 400.295 416.631L400.175 416.643ZM398.231 412.839H398.123C397.835 412.839 397.811 413.007 397.811 413.067C397.691 413.679 398.915 415.239 399.899 415.959C399.81 414.88 399.392 413.853 398.699 413.02C398.572 412.902 398.404 412.838 398.231 412.839Z" fill="#293066"/>
<path opacity="0.2" d="M409.56 396.303L399.84 397.455L400.932 408.267L410.652 407.115L409.56 396.303Z" fill="black"/>
<path d="M366.456 225.675C366.456 225.675 342 345.243 341.16 391.155L357.456 398.439C357.456 398.439 370.728 346.563 375.036 317.415C375.036 317.415 386.46 294.267 389.532 275.415C389.532 275.415 388.896 358.215 397.476 401.907L412.764 400.707C412.764 400.707 428.184 245.379 425.4 220.515L366.456 225.675Z" fill="#293066"/>
<path opacity="0.6" d="M366.456 225.675C366.456 225.675 342 345.243 341.16 391.155L357.456 398.439C357.456 398.439 370.728 346.563 375.036 317.415C375.036 317.415 386.46 294.267 389.532 275.415C389.532 275.415 388.896 358.215 397.476 401.907L412.764 400.707C412.764 400.707 428.184 245.379 425.4 220.515L366.456 225.675Z" fill="white"/>
<path opacity="0.2" d="M386.88 245.235C386.88 245.235 385.068 273.663 387.648 284.103C388.428 281.163 389.076 278.235 389.532 275.403L386.88 245.235Z" fill="black"/>
<path d="M395.531 405.375L416.519 402.255L415.871 396.447L394.055 399.303L395.531 405.375Z" fill="#293066"/>
<path d="M338.398 395.631L358.666 401.871L360.598 396.363L339.682 389.511L338.398 395.631Z" fill="#293066"/>
<path d="M366.479 131.739C366.479 131.739 369.071 126.615 391.847 125.295C414.623 123.975 424.799 127.347 424.799 127.347C424.799 127.347 422.735 175.563 425.375 220.527C425.375 220.527 387.287 234.099 366.431 225.675C366.455 225.675 350.831 167.439 366.479 131.739Z" fill="#293066"/>
<path opacity="0.2" d="M400.007 125.007C397.487 125.007 394.775 125.127 391.847 125.295C390.083 125.403 388.463 125.523 386.939 125.667C386.939 125.667 388.883 129.351 391.847 129.351C393.46 129.356 395.049 128.962 396.473 128.204C397.897 127.446 399.111 126.348 400.007 125.007Z" fill="black"/>
<path opacity="0.3" d="M424.211 187.659L389.531 205.191C389.531 205.191 411.395 205.863 424.463 198.771C424.359 195.019 424.275 191.315 424.211 187.659Z" fill="black"/>
<path opacity="0.1" d="M391.402 138.795L403.726 193.623L400.99 200.715L391.402 138.795Z" fill="black"/>
<path d="M391.498 140.329L326.598 150.163L335.995 212.188L400.896 202.355L391.498 140.329Z" fill="#293066"/>
<path opacity="0.1" d="M391.498 140.329L326.598 150.163L335.995 212.188L400.896 202.355L391.498 140.329Z" fill="white"/>
<path d="M342.591 146.339L292.381 154.112L301.966 216.026L352.176 208.253L342.591 146.339Z" fill="#293066"/>
<path opacity="0.3" d="M342.591 146.339L292.381 154.112L301.966 216.026L352.176 208.253L342.591 146.339Z" fill="white"/>
<path opacity="0.3" d="M324.599 149.117L310.393 151.316L312.974 167.989L327.181 165.79L324.599 149.117Z" fill="white"/>
<path opacity="0.1" d="M377.609 140.924L363.402 143.124L365.984 159.797L380.19 157.598L377.609 140.924Z" fill="black"/>
<path opacity="0.2" d="M347.045 195.88L331.521 198.283L332.985 207.734L348.508 205.331L347.045 195.88Z" fill="white"/>
<path opacity="0.2" d="M371.291 204.699L369.695 202.587L364.547 203.691C364.273 204.568 364.167 205.488 364.235 206.403L371.435 205.299L371.291 204.699Z" fill="#2E353A"/>
<path d="M362.399 178.707C361.199 179.115 359.519 179.091 359.351 177.507C359.219 176.187 360.779 175.107 361.967 175.323C362.059 175.339 362.154 175.318 362.23 175.264C362.307 175.21 362.359 175.128 362.375 175.035C362.391 174.943 362.369 174.848 362.315 174.772C362.261 174.695 362.179 174.643 362.087 174.627C361.662 174.568 361.229 174.599 360.817 174.72C360.405 174.84 360.024 175.047 359.698 175.326C359.373 175.605 359.11 175.951 358.928 176.339C358.746 176.728 358.649 177.15 358.643 177.579C358.847 179.667 361.043 179.979 362.663 179.379C363.131 179.223 362.879 178.551 362.399 178.707Z" fill="white"/>
<path d="M363.6 172.107C363.492 171.663 362.784 171.735 362.88 172.179C363.4 174.467 363.908 176.751 364.404 179.031C364.5 179.475 365.208 179.415 365.112 178.959L363.6 172.107Z" fill="white"/>
<path d="M367.86 173.451C367.811 173.465 367.769 173.494 367.74 173.535C364.536 174.147 366.42 179.152 369.396 178.228C370.008 177.962 370.5 177.479 370.777 176.871C371.054 176.264 371.096 175.576 370.896 174.939C370.824 174.623 370.682 174.327 370.481 174.073C370.28 173.818 370.024 173.612 369.733 173.47C369.442 173.327 369.123 173.251 368.798 173.248C368.474 173.245 368.153 173.314 367.86 173.451ZM369.444 177.423C367.344 178.623 365.484 174.639 367.872 174.231C367.945 174.222 368.012 174.188 368.064 174.135C370.2 173.247 371.076 176.487 369.444 177.423Z" fill="white"/>
<path d="M373.847 171.555L372.539 171.783L372.323 170.367C372.251 169.911 371.543 169.983 371.615 170.439C371.687 170.895 371.759 171.411 371.843 171.903L370.547 172.119C370.103 172.203 370.163 172.911 370.619 172.839L371.951 172.611L372.743 177.759C372.815 178.203 373.523 178.131 373.451 177.675C373.187 175.947 372.911 174.219 372.647 172.491L373.931 172.263C374.399 172.191 374.303 171.471 373.847 171.555Z" fill="white"/>
<path d="M378.863 172.503C378.427 172.245 377.925 172.118 377.419 172.138C376.913 172.157 376.422 172.321 376.007 172.611C375.839 171.675 375.659 170.739 375.467 169.803C375.371 169.359 374.663 169.431 374.759 169.887C375.247 172.287 375.647 174.687 375.959 177.087C376.031 177.543 376.739 177.471 376.667 177.015C376.499 175.815 376.307 174.615 376.103 173.415C376.289 173.231 376.51 173.087 376.755 172.992C376.999 172.898 377.26 172.855 377.521 172.866C377.783 172.877 378.039 172.942 378.274 173.058C378.509 173.173 378.718 173.336 378.887 173.535C379.321 174.45 379.546 175.451 379.547 176.463C379.569 176.547 379.619 176.619 379.69 176.669C379.76 176.718 379.846 176.74 379.932 176.731C380.017 176.722 380.097 176.683 380.156 176.621C380.216 176.559 380.251 176.477 380.255 176.391C380.183 175.095 380.135 173.187 378.863 172.503Z" fill="white"/>
<path d="M381.887 171.135C381.599 171.289 381.346 171.501 381.146 171.76C380.946 172.018 380.803 172.316 380.727 172.634C380.651 172.952 380.644 173.282 380.705 173.603C380.766 173.924 380.895 174.228 381.083 174.495C381.238 174.82 381.459 175.109 381.732 175.344C382.004 175.579 382.322 175.755 382.666 175.861C383.01 175.967 383.372 176.001 383.73 175.96C384.087 175.919 384.432 175.804 384.743 175.623C385.151 175.419 384.899 174.747 384.491 174.951C384.159 175.189 383.754 175.306 383.346 175.282C382.938 175.258 382.55 175.095 382.247 174.819C382.015 174.606 381.82 174.354 381.671 174.075C382.727 174.159 384.659 173.943 384.707 172.791C384.767 171.315 383.075 170.667 381.887 171.135ZM383.903 172.899C383.795 173.067 383.303 173.175 383.111 173.235C382.569 173.411 381.99 173.444 381.431 173.331C381.395 173.139 381.398 172.941 381.439 172.749C381.48 172.558 381.559 172.376 381.671 172.215C381.844 172.001 382.077 171.845 382.341 171.767C382.605 171.69 382.887 171.696 383.147 171.783C383.495 171.867 384.239 172.443 383.903 172.899Z" fill="white"/>
<path d="M389.998 172.527C389.799 172.185 389.491 171.92 389.124 171.774C388.756 171.628 388.35 171.61 387.97 171.723C387.394 171.843 386.002 172.419 386.314 171.279C386.506 170.523 387.514 170.235 388.222 170.295C388.678 170.295 388.798 169.635 388.33 169.587C387.13 169.479 384.814 170.559 385.558 172.131C385.906 172.863 386.758 172.779 387.454 172.611C387.835 172.455 388.243 172.378 388.654 172.383C388.805 172.394 388.95 172.446 389.073 172.534C389.196 172.622 389.292 172.742 389.35 172.882C389.409 173.021 389.427 173.174 389.404 173.323C389.381 173.472 389.317 173.612 389.218 173.727C388.714 174.387 387.73 174.267 387.01 174.147C386.92 174.139 386.829 174.165 386.757 174.22C386.685 174.275 386.636 174.356 386.621 174.445C386.606 174.535 386.625 174.627 386.675 174.703C386.725 174.779 386.802 174.834 386.89 174.855C387.34 174.983 387.812 175.009 388.272 174.933C388.733 174.856 389.171 174.678 389.554 174.411C389.815 174.182 389.998 173.878 390.078 173.54C390.157 173.203 390.129 172.848 389.998 172.527Z" fill="white"/>
<path d="M401.075 192.339L380.111 197.451C378.506 196.422 376.588 195.997 374.698 196.251C371.746 196.779 364.271 202.767 364.547 203.655C364.823 204.543 371.746 209.967 373.03 209.571C374.314 209.175 382.391 203.463 382.391 203.463L402.358 201.795L401.075 192.339Z" fill="#E4897B"/>
<path d="M423.467 127.275C423.467 127.275 414.659 129.615 415.907 145.959C416.459 153.063 416.735 160.647 416.879 166.959C416.966 171.182 415.85 175.342 413.662 178.955C411.473 182.567 408.302 185.482 404.519 187.359L387.311 194.391L389.531 205.191C389.531 205.191 414.539 202.899 423.335 195.867C432.131 188.835 435.191 173.823 433.763 161.379C431.771 144.099 432.431 126.579 423.467 127.275Z" fill="#293066"/>
<path opacity="0.1" d="M423.467 127.275C423.467 127.275 414.659 129.615 415.907 145.959C416.459 153.063 416.735 160.647 416.879 166.959C416.966 171.182 415.85 175.342 413.662 178.955C411.473 182.567 408.302 185.482 404.519 187.359L387.311 194.391L389.531 205.191C389.531 205.191 414.539 202.899 423.335 195.867C432.131 188.835 435.191 173.823 433.763 161.379C431.771 144.099 432.431 126.579 423.467 127.275Z" fill="black"/>
<path d="M388.943 191.655L390.407 206.679L386.363 207.063L384.215 192.999L388.943 191.655Z" fill="#293066"/>
<path opacity="0.6" d="M388.943 191.655L390.407 206.679L386.363 207.063L384.215 192.999L388.943 191.655Z" fill="white"/>
<path opacity="0.4" d="M410.093 150.394L396.145 151.641L396.343 153.864L410.292 152.617L410.093 150.394Z" fill="white"/>
<path d="M391.848 125.295L396.36 131.295L405.876 125.019V124.443C405.898 123.94 405.801 123.438 405.593 122.979C405.384 122.52 405.07 122.117 404.676 121.803C404.221 121.523 403.704 121.358 403.171 121.323C402.638 121.287 402.104 121.382 401.616 121.599L391.848 125.295Z" fill="#293066"/>
<path d="M385.5 125.775L386.616 123.927C388.02 122.271 389.136 123.123 389.136 123.123L391.848 125.295L387.888 131.295L385.5 125.775Z" fill="#293066"/>
<path opacity="0.6" d="M391.848 125.295L396.36 131.295L405.876 125.019V124.443C405.898 123.94 405.801 123.438 405.593 122.979C405.384 122.52 405.07 122.117 404.676 121.803C404.221 121.523 403.704 121.358 403.171 121.323C402.638 121.287 402.104 121.382 401.616 121.599L391.848 125.295Z" fill="white"/>
<path opacity="0.6" d="M385.5 125.775L386.616 123.927C388.02 122.271 389.136 123.123 389.136 123.123L391.848 125.295L387.888 131.295L385.5 125.775Z" fill="white"/>
<path d="M407.568 95.2835C408.204 91.1795 405.36 90.6155 403.488 91.1075C401.616 91.5995 399.588 94.5755 399.588 94.5755C397.764 91.6235 396.732 84.1475 396.732 84.1475C394.413 85.4287 391.829 86.1541 389.182 86.2665C386.535 86.379 383.899 85.8754 381.48 84.7955C380.547 87.3165 378.804 89.4565 376.524 90.8795C376.524 90.8795 373.14 89.3315 375.024 81.5555C377.16 72.7115 390.444 64.1555 403.824 72.9755C417.204 81.7955 409.104 98.1755 409.104 98.1755C409.104 98.1755 406.068 103.539 403.38 105.555C403.607 103.964 403.607 102.347 403.38 100.755C404.47 100.253 405.422 99.4918 406.152 98.5383C406.881 97.5847 407.368 96.4675 407.568 95.2835Z" fill="#2E353A"/>
<path d="M379.895 82.5994C380.669 83.5448 381.565 84.384 382.559 85.0954C383.571 85.8173 384.667 86.4136 385.823 86.8714C386.977 87.3261 388.189 87.6209 389.423 87.7474C390.687 87.8673 391.96 87.8311 393.215 87.6394C391.969 87.9309 390.691 88.068 389.411 88.0474C388.113 88.0237 386.824 87.8177 385.583 87.4354C384.318 87.0631 383.108 86.5265 381.983 85.8394C380.84 85.155 379.795 84.3194 378.875 83.3554L379.895 82.5994Z" fill="#2E353A"/>
<path d="M534.205 150.412C524.485 141.724 513.133 153.508 513.133 153.508C513.133 153.508 501.769 141.724 492.061 150.412C478.213 162.808 498.349 185.008 513.133 189.448C527.917 185.008 548.053 162.844 534.205 150.412Z" fill="#293066"/>
<path opacity="0.6" d="M534.205 150.412C524.485 141.724 513.133 153.508 513.133 153.508C513.133 153.508 501.769 141.724 492.061 150.412C478.213 162.808 498.349 185.008 513.133 189.448C527.917 185.008 548.053 162.844 534.205 150.412Z" fill="white"/>
<path d="M338.004 34.8515C328.284 26.1635 316.932 37.9475 316.932 37.9475C316.932 37.9475 305.568 26.1635 295.86 34.8515C282.012 47.2355 302.148 69.4355 316.932 73.8875C331.716 69.4355 351.852 47.2355 338.004 34.8515Z" fill="#293066"/>
<path opacity="0.6" d="M338.004 34.8515C328.284 26.1635 316.932 37.9475 316.932 37.9475C316.932 37.9475 305.568 26.1635 295.86 34.8515C282.012 47.2355 302.148 69.4355 316.932 73.8875C331.716 69.4355 351.852 47.2355 338.004 34.8515Z" fill="white"/>
<path d="M452.208 70.9235C448.236 67.3235 443.592 72.1955 443.592 72.1955C443.592 72.1955 438.96 67.3955 434.988 70.9235C429.324 75.9875 437.556 85.0595 443.592 86.8835C449.64 85.0595 457.86 75.9875 452.208 70.9235Z" fill="#293066"/>
<path opacity="0.6" d="M452.208 70.9235C448.236 67.3235 443.592 72.1955 443.592 72.1955C443.592 72.1955 438.96 67.3955 434.988 70.9235C429.324 75.9875 437.556 85.0595 443.592 86.8835C449.64 85.0595 457.86 75.9875 452.208 70.9235Z" fill="white"/>
<path d="M89.3647 166.276C85.3927 162.676 80.7607 167.548 80.7607 167.548C80.7607 167.548 76.1167 162.748 72.1447 166.276C66.4927 171.34 74.7127 180.412 80.7607 182.224C86.7967 180.412 95.0287 171.34 89.3647 166.276Z" fill="#293066"/>
<path opacity="0.6" d="M89.3647 166.276C85.3927 162.676 80.7607 167.548 80.7607 167.548C80.7607 167.548 76.1167 162.748 72.1447 166.276C66.4927 171.34 74.7127 180.412 80.7607 182.224C86.7967 180.412 95.0287 171.34 89.3647 166.276Z" fill="white"/>
</svg>
