<svg width="229" height="80" viewBox="0 0 229 80" fill="none" xmlns="http://www.w3.org/2000/svg">
<path d="M22.5 69.9731V36.1294H28.5C28.9375 36.1294 29.375 36.1769 29.8125 36.2719C30.25 36.3669 30.6875 36.4756 31.125 36.5981L57.0937 46.2544C57.9687 46.5669 58.6725 47.1294 59.205 47.9419C59.7375 48.7544 60.0025 49.5981 60 50.4731C60 51.7856 59.5462 52.8481 58.6387 53.6606C57.7312 54.4731 56.685 54.8794 55.5 54.8794H45.6562C45.3437 54.8794 45.1087 54.8631 44.9512 54.8306C44.7937 54.7981 44.5912 54.7206 44.3437 54.5981L38.3437 52.2544L37.125 55.9106L44.3437 58.4419C44.4687 58.5044 44.6562 58.5519 44.9062 58.5844C45.1562 58.6169 45.375 58.6319 45.5625 58.6294H71.25C73.25 58.6294 75 59.3481 76.5 60.7856C78 62.2231 78.75 64.0044 78.75 66.1294L48.8437 77.3794L22.5 69.9731ZM0 77.3794V36.1294H15V77.3794H0ZM56.25 43.6294L40.6875 28.4419C38.75 26.5669 37.11 24.4894 35.7675 22.2094C34.425 19.9294 33.7525 17.4444 33.75 14.7544C33.75 11.3169 34.9537 8.39565 37.3612 5.99065C39.7687 3.58566 42.69 2.38191 46.125 2.37941C48.125 2.37941 50 2.80191 51.75 3.64691C53.5 4.49191 55 5.63191 56.25 7.06691C57.5 5.62941 59 4.48815 60.75 3.64315C62.5 2.79816 64.375 2.37691 66.375 2.37941C69.8125 2.37941 72.7337 3.58316 75.1387 5.99065C77.5437 8.39815 78.7475 11.3194 78.75 14.7544C78.75 17.4419 78.0937 19.9269 76.7812 22.2094C75.4687 24.4919 73.8437 26.5694 71.9062 28.4419L56.25 43.6294Z" fill="#293066"/>
<path d="M129.438 39.106V44.3794H106.094V39.8794L117.133 28.0435C118.242 26.8091 119.117 25.7231 119.758 24.7856C120.398 23.8325 120.859 22.981 121.141 22.231C121.438 21.4653 121.586 20.7388 121.586 20.0513C121.586 19.02 121.414 18.1372 121.07 17.4028C120.727 16.6528 120.219 16.0747 119.547 15.6685C118.891 15.2622 118.078 15.0591 117.109 15.0591C116.078 15.0591 115.188 15.3091 114.438 15.8091C113.703 16.3091 113.141 17.0044 112.75 17.895C112.375 18.7856 112.188 19.7935 112.188 20.9185H105.414C105.414 18.8872 105.898 17.0278 106.867 15.3403C107.836 13.6372 109.203 12.2856 110.969 11.2856C112.734 10.27 114.828 9.76221 117.25 9.76221C119.641 9.76221 121.656 10.1528 123.297 10.9341C124.953 11.6997 126.203 12.8091 127.047 14.2622C127.906 15.6997 128.336 17.4185 128.336 19.4185C128.336 20.5435 128.156 21.645 127.797 22.7231C127.438 23.7856 126.922 24.8481 126.25 25.9106C125.594 26.9575 124.797 28.02 123.859 29.0981C122.922 30.1763 121.883 31.2935 120.742 32.4497L114.812 39.106H129.438ZM134.266 41.1216C134.266 40.1216 134.609 39.2856 135.297 38.6138C136 37.9419 136.93 37.606 138.086 37.606C139.242 37.606 140.164 37.9419 140.852 38.6138C141.555 39.2856 141.906 40.1216 141.906 41.1216C141.906 42.1216 141.555 42.9575 140.852 43.6294C140.164 44.3013 139.242 44.6372 138.086 44.6372C136.93 44.6372 136 44.3013 135.297 43.6294C134.609 42.9575 134.266 42.1216 134.266 41.1216ZM170.547 24.3169V30.2231C170.547 32.7856 170.273 34.9966 169.727 36.856C169.18 38.6997 168.391 40.2153 167.359 41.4028C166.344 42.5747 165.133 43.4419 163.727 44.0044C162.32 44.5669 160.758 44.8481 159.039 44.8481C157.664 44.8481 156.383 44.6763 155.195 44.3325C154.008 43.9731 152.938 43.4185 151.984 42.6685C151.047 41.9185 150.234 40.9731 149.547 39.8325C148.875 38.6763 148.359 37.3013 148 35.7075C147.641 34.1138 147.461 32.2856 147.461 30.2231V24.3169C147.461 21.7544 147.734 19.5591 148.281 17.731C148.844 15.8872 149.633 14.3794 150.648 13.2075C151.68 12.0356 152.898 11.1763 154.305 10.6294C155.711 10.0669 157.273 9.78564 158.992 9.78564C160.367 9.78564 161.641 9.96533 162.812 10.3247C164 10.6685 165.07 11.2075 166.023 11.9419C166.977 12.6763 167.789 13.6216 168.461 14.7778C169.133 15.9185 169.648 17.2856 170.008 18.8794C170.367 20.4575 170.547 22.27 170.547 24.3169ZM163.773 31.1138V23.4028C163.773 22.1685 163.703 21.0903 163.562 20.1685C163.438 19.2466 163.242 18.4653 162.977 17.8247C162.711 17.1685 162.383 16.6372 161.992 16.231C161.602 15.8247 161.156 15.5278 160.656 15.3403C160.156 15.1528 159.602 15.0591 158.992 15.0591C158.227 15.0591 157.547 15.2075 156.953 15.5044C156.375 15.8013 155.883 16.2778 155.477 16.9341C155.07 17.5747 154.758 18.4341 154.539 19.5122C154.336 20.5747 154.234 21.8716 154.234 23.4028V31.1138C154.234 32.3481 154.297 33.4341 154.422 34.3716C154.562 35.3091 154.766 36.1138 155.031 36.7856C155.312 37.4419 155.641 37.981 156.016 38.4028C156.406 38.8091 156.852 39.106 157.352 39.2935C157.867 39.481 158.43 39.5747 159.039 39.5747C159.789 39.5747 160.453 39.4263 161.031 39.1294C161.625 38.8169 162.125 38.3325 162.531 37.6763C162.953 37.0044 163.266 36.1294 163.469 35.0513C163.672 33.9731 163.773 32.6606 163.773 31.1138ZM198.109 24.3169V30.2231C198.109 32.7856 197.836 34.9966 197.289 36.856C196.742 38.6997 195.953 40.2153 194.922 41.4028C193.906 42.5747 192.695 43.4419 191.289 44.0044C189.883 44.5669 188.32 44.8481 186.602 44.8481C185.227 44.8481 183.945 44.6763 182.758 44.3325C181.57 43.9731 180.5 43.4185 179.547 42.6685C178.609 41.9185 177.797 40.9731 177.109 39.8325C176.438 38.6763 175.922 37.3013 175.562 35.7075C175.203 34.1138 175.023 32.2856 175.023 30.2231V24.3169C175.023 21.7544 175.297 19.5591 175.844 17.731C176.406 15.8872 177.195 14.3794 178.211 13.2075C179.242 12.0356 180.461 11.1763 181.867 10.6294C183.273 10.0669 184.836 9.78564 186.555 9.78564C187.93 9.78564 189.203 9.96533 190.375 10.3247C191.562 10.6685 192.633 11.2075 193.586 11.9419C194.539 12.6763 195.352 13.6216 196.023 14.7778C196.695 15.9185 197.211 17.2856 197.57 18.8794C197.93 20.4575 198.109 22.27 198.109 24.3169ZM191.336 31.1138V23.4028C191.336 22.1685 191.266 21.0903 191.125 20.1685C191 19.2466 190.805 18.4653 190.539 17.8247C190.273 17.1685 189.945 16.6372 189.555 16.231C189.164 15.8247 188.719 15.5278 188.219 15.3403C187.719 15.1528 187.164 15.0591 186.555 15.0591C185.789 15.0591 185.109 15.2075 184.516 15.5044C183.938 15.8013 183.445 16.2778 183.039 16.9341C182.633 17.5747 182.32 18.4341 182.102 19.5122C181.898 20.5747 181.797 21.8716 181.797 23.4028V31.1138C181.797 32.3481 181.859 33.4341 181.984 34.3716C182.125 35.3091 182.328 36.1138 182.594 36.7856C182.875 37.4419 183.203 37.981 183.578 38.4028C183.969 38.8091 184.414 39.106 184.914 39.2935C185.43 39.481 185.992 39.5747 186.602 39.5747C187.352 39.5747 188.016 39.4263 188.594 39.1294C189.188 38.8169 189.688 38.3325 190.094 37.6763C190.516 37.0044 190.828 36.1294 191.031 35.0513C191.234 33.9731 191.336 32.6606 191.336 31.1138ZM225.672 24.3169V30.2231C225.672 32.7856 225.398 34.9966 224.852 36.856C224.305 38.6997 223.516 40.2153 222.484 41.4028C221.469 42.5747 220.258 43.4419 218.852 44.0044C217.445 44.5669 215.883 44.8481 214.164 44.8481C212.789 44.8481 211.508 44.6763 210.32 44.3325C209.133 43.9731 208.062 43.4185 207.109 42.6685C206.172 41.9185 205.359 40.9731 204.672 39.8325C204 38.6763 203.484 37.3013 203.125 35.7075C202.766 34.1138 202.586 32.2856 202.586 30.2231V24.3169C202.586 21.7544 202.859 19.5591 203.406 17.731C203.969 15.8872 204.758 14.3794 205.773 13.2075C206.805 12.0356 208.023 11.1763 209.43 10.6294C210.836 10.0669 212.398 9.78564 214.117 9.78564C215.492 9.78564 216.766 9.96533 217.938 10.3247C219.125 10.6685 220.195 11.2075 221.148 11.9419C222.102 12.6763 222.914 13.6216 223.586 14.7778C224.258 15.9185 224.773 17.2856 225.133 18.8794C225.492 20.4575 225.672 22.27 225.672 24.3169ZM218.898 31.1138V23.4028C218.898 22.1685 218.828 21.0903 218.688 20.1685C218.562 19.2466 218.367 18.4653 218.102 17.8247C217.836 17.1685 217.508 16.6372 217.117 16.231C216.727 15.8247 216.281 15.5278 215.781 15.3403C215.281 15.1528 214.727 15.0591 214.117 15.0591C213.352 15.0591 212.672 15.2075 212.078 15.5044C211.5 15.8013 211.008 16.2778 210.602 16.9341C210.195 17.5747 209.883 18.4341 209.664 19.5122C209.461 20.5747 209.359 21.8716 209.359 23.4028V31.1138C209.359 32.3481 209.422 33.4341 209.547 34.3716C209.688 35.3091 209.891 36.1138 210.156 36.7856C210.438 37.4419 210.766 37.981 211.141 38.4028C211.531 38.8091 211.977 39.106 212.477 39.2935C212.992 39.481 213.555 39.5747 214.164 39.5747C214.914 39.5747 215.578 39.4263 216.156 39.1294C216.75 38.8169 217.25 38.3325 217.656 37.6763C218.078 37.0044 218.391 36.1294 218.594 35.0513C218.797 33.9731 218.898 32.6606 218.898 31.1138Z" fill="#293066"/>
<path d="M105.02 60.1606H110.322C111.41 60.1606 112.344 60.3234 113.125 60.6489C113.913 60.9744 114.518 61.4562 114.941 62.0942C115.365 62.7323 115.576 63.5168 115.576 64.4478C115.576 65.2095 115.446 65.8638 115.186 66.4106C114.932 66.951 114.57 67.4035 114.102 67.7681C113.639 68.1261 113.096 68.4126 112.471 68.6274L111.543 69.1157H106.934L106.914 66.8306H110.342C110.856 66.8306 111.283 66.7394 111.621 66.5571C111.96 66.3748 112.214 66.1209 112.383 65.7954C112.559 65.4699 112.646 65.0923 112.646 64.6626C112.646 64.2069 112.562 63.813 112.393 63.481C112.223 63.1489 111.966 62.895 111.621 62.7192C111.276 62.5435 110.843 62.4556 110.322 62.4556H107.949V74.3794H105.02V60.1606ZM112.969 74.3794L109.727 68.0415L112.822 68.022L116.104 74.2427V74.3794H112.969ZM122.52 74.5747C121.699 74.5747 120.964 74.4445 120.312 74.1841C119.661 73.9172 119.108 73.5493 118.652 73.0806C118.203 72.6118 117.858 72.0682 117.617 71.4497C117.376 70.8247 117.256 70.1606 117.256 69.4575V69.0669C117.256 68.2661 117.37 67.5337 117.598 66.8696C117.826 66.2056 118.151 65.6294 118.574 65.1411C119.004 64.6528 119.525 64.2785 120.137 64.0181C120.749 63.7511 121.439 63.6177 122.207 63.6177C122.956 63.6177 123.62 63.7414 124.199 63.9888C124.779 64.2362 125.264 64.5877 125.654 65.0435C126.051 65.4992 126.351 66.0461 126.553 66.6841C126.755 67.3156 126.855 68.0187 126.855 68.7935V69.9653H118.457V68.0903H124.092V67.8755C124.092 67.4849 124.02 67.1366 123.877 66.8306C123.74 66.5181 123.532 66.2707 123.252 66.0884C122.972 65.9061 122.614 65.8149 122.178 65.8149C121.807 65.8149 121.488 65.8963 121.221 66.0591C120.954 66.2218 120.736 66.4497 120.566 66.7427C120.404 67.0356 120.28 67.3807 120.195 67.7778C120.117 68.1685 120.078 68.5981 120.078 69.0669V69.4575C120.078 69.8807 120.137 70.2713 120.254 70.6294C120.378 70.9875 120.55 71.2967 120.771 71.5571C120.999 71.8175 121.273 72.0194 121.592 72.1626C121.917 72.3058 122.285 72.3774 122.695 72.3774C123.203 72.3774 123.675 72.2798 124.111 72.0845C124.554 71.8826 124.935 71.5799 125.254 71.1763L126.621 72.6606C126.4 72.9797 126.097 73.2856 125.713 73.5786C125.335 73.8716 124.88 74.1125 124.346 74.3013C123.812 74.4836 123.203 74.5747 122.52 74.5747ZM131.426 59.3794V74.3794H128.604V59.3794H131.426ZM139.453 71.9966V67.2896C139.453 66.951 139.398 66.6613 139.287 66.4204C139.176 66.173 139.004 65.981 138.77 65.8442C138.542 65.7075 138.245 65.6392 137.881 65.6392C137.568 65.6392 137.298 65.6945 137.07 65.8052C136.842 65.9093 136.667 66.0623 136.543 66.2642C136.419 66.4595 136.357 66.6906 136.357 66.9575H133.545C133.545 66.5083 133.649 66.0819 133.857 65.6782C134.066 65.2746 134.368 64.9198 134.766 64.6138C135.163 64.3013 135.635 64.0571 136.182 63.8813C136.735 63.7056 137.354 63.6177 138.037 63.6177C138.857 63.6177 139.587 63.7544 140.225 64.0278C140.863 64.3013 141.364 64.7114 141.729 65.2583C142.1 65.8052 142.285 66.4888 142.285 67.3091V71.8306C142.285 72.41 142.321 72.8853 142.393 73.2563C142.464 73.6209 142.568 73.9399 142.705 74.2134V74.3794H139.863C139.727 74.0929 139.622 73.7349 139.551 73.3052C139.486 72.869 139.453 72.4328 139.453 71.9966ZM139.824 67.9438L139.844 69.5356H138.271C137.9 69.5356 137.578 69.578 137.305 69.6626C137.031 69.7472 136.807 69.8677 136.631 70.0239C136.455 70.1737 136.325 70.3494 136.24 70.5513C136.162 70.7531 136.123 70.9744 136.123 71.2153C136.123 71.4562 136.178 71.6743 136.289 71.8696C136.4 72.0584 136.559 72.2082 136.768 72.3188C136.976 72.423 137.22 72.4751 137.5 72.4751C137.923 72.4751 138.291 72.3905 138.604 72.2212C138.916 72.0519 139.157 71.8436 139.326 71.5962C139.502 71.3488 139.593 71.1144 139.6 70.8931L140.342 72.0845C140.238 72.3514 140.094 72.6281 139.912 72.9146C139.736 73.201 139.512 73.4712 139.238 73.7251C138.965 73.9725 138.636 74.1776 138.252 74.3403C137.868 74.4966 137.412 74.5747 136.885 74.5747C136.214 74.5747 135.605 74.4412 135.059 74.1743C134.518 73.9009 134.089 73.5265 133.77 73.0513C133.457 72.5695 133.301 72.0226 133.301 71.4106C133.301 70.8573 133.405 70.3657 133.613 69.936C133.822 69.5063 134.128 69.145 134.531 68.8521C134.941 68.5526 135.452 68.328 136.064 68.1782C136.676 68.022 137.386 67.9438 138.193 67.9438H139.824ZM147.471 71.645L149.668 63.813H151.455L150.879 66.8892L148.682 74.3794H147.188L147.471 71.645ZM146.357 63.813L147.93 71.6353L148.076 74.3794H146.318L143.643 63.813H146.357ZM153.467 71.5083L155 63.813H157.725L155.049 74.3794H153.301L153.467 71.5083ZM151.699 63.813L153.887 71.5864L154.189 74.3794H152.686L150.488 66.8989L149.932 63.813H151.699ZM164.844 71.9966V67.2896C164.844 66.951 164.788 66.6613 164.678 66.4204C164.567 66.173 164.395 65.981 164.16 65.8442C163.932 65.7075 163.636 65.6392 163.271 65.6392C162.959 65.6392 162.689 65.6945 162.461 65.8052C162.233 65.9093 162.057 66.0623 161.934 66.2642C161.81 66.4595 161.748 66.6906 161.748 66.9575H158.936C158.936 66.5083 159.04 66.0819 159.248 65.6782C159.456 65.2746 159.759 64.9198 160.156 64.6138C160.553 64.3013 161.025 64.0571 161.572 63.8813C162.126 63.7056 162.744 63.6177 163.428 63.6177C164.248 63.6177 164.977 63.7544 165.615 64.0278C166.253 64.3013 166.755 64.7114 167.119 65.2583C167.49 65.8052 167.676 66.4888 167.676 67.3091V71.8306C167.676 72.41 167.712 72.8853 167.783 73.2563C167.855 73.6209 167.959 73.9399 168.096 74.2134V74.3794H165.254C165.117 74.0929 165.013 73.7349 164.941 73.3052C164.876 72.869 164.844 72.4328 164.844 71.9966ZM165.215 67.9438L165.234 69.5356H163.662C163.291 69.5356 162.969 69.578 162.695 69.6626C162.422 69.7472 162.197 69.8677 162.021 70.0239C161.846 70.1737 161.715 70.3494 161.631 70.5513C161.553 70.7531 161.514 70.9744 161.514 71.2153C161.514 71.4562 161.569 71.6743 161.68 71.8696C161.79 72.0584 161.95 72.2082 162.158 72.3188C162.367 72.423 162.611 72.4751 162.891 72.4751C163.314 72.4751 163.682 72.3905 163.994 72.2212C164.307 72.0519 164.548 71.8436 164.717 71.5962C164.893 71.3488 164.984 71.1144 164.99 70.8931L165.732 72.0845C165.628 72.3514 165.485 72.6281 165.303 72.9146C165.127 73.201 164.902 73.4712 164.629 73.7251C164.355 73.9725 164.027 74.1776 163.643 74.3403C163.258 74.4966 162.803 74.5747 162.275 74.5747C161.605 74.5747 160.996 74.4412 160.449 74.1743C159.909 73.9009 159.479 73.5265 159.16 73.0513C158.848 72.5695 158.691 72.0226 158.691 71.4106C158.691 70.8573 158.796 70.3657 159.004 69.936C159.212 69.5063 159.518 69.145 159.922 68.8521C160.332 68.5526 160.843 68.328 161.455 68.1782C162.067 68.022 162.777 67.9438 163.584 67.9438H165.215ZM172.598 66.0688V74.3794H169.785V63.813H172.422L172.598 66.0688ZM172.188 68.7251H171.426C171.426 67.9438 171.527 67.2407 171.729 66.6157C171.93 65.9842 172.214 65.4471 172.578 65.0044C172.943 64.5552 173.376 64.2134 173.877 63.979C174.385 63.7381 174.951 63.6177 175.576 63.6177C176.071 63.6177 176.523 63.6893 176.934 63.8325C177.344 63.9757 177.695 64.2036 177.988 64.5161C178.288 64.8286 178.516 65.242 178.672 65.7563C178.835 66.2707 178.916 66.8989 178.916 67.6411V74.3794H176.084V67.6313C176.084 67.1626 176.019 66.798 175.889 66.5376C175.758 66.2772 175.566 66.0949 175.312 65.9907C175.065 65.88 174.759 65.8247 174.395 65.8247C174.017 65.8247 173.688 65.8996 173.408 66.0493C173.135 66.1991 172.907 66.4074 172.725 66.6743C172.549 66.9347 172.415 67.2407 172.324 67.5923C172.233 67.9438 172.188 68.3215 172.188 68.7251Z" fill="#293066"/>
</svg>
